  0
SECTION
  2
HEADER
  9
$ACADVER
  1
AC1032
  9
$ACADMAINTVER
 90
       55
  9
$DWGCODEPAGE
  3
ANSI_936
  9
$LASTSAVEDBY
  1
zongti2
  9
$REQUIREDVERSIONS
160
                 0
  9
$INSBASE
 10
0.0
 20
0.0
 30
0.0
  9
$EXTMIN
 10
-0.251285716070953
 20
-0.0041763577647771
 30
-0.0015258207003583
  9
$EXTMAX
 10
32.25087233073678
 20
130.0053187439144
 30
0.0000000349246037
  9
$LIMMIN
 10
0.0
 20
0.0
  9
$LIMMAX
 10
22.0
 20
17.0
  9
$ORTHOMODE
 70
     0
  9
$REGENMODE
 70
     1
  9
$FILLMODE
 70
     1
  9
$QTEXTMODE
 70
     0
  9
$MIRRTEXT
 70
     0
  9
$LTSCALE
 40
1.21
  9
$ATTMODE
 70
     1
  9
$TEXTSIZE
 40
0.2
  9
$TRACEWID
 40
0.05
  9
$TEXTSTYLE
  7
STANDARD
  9
$CLAYER
  8
0
  9
$CELTYPE
  6
BYLAYER
  9
$CECOLOR
 62
   256
  9
$CELTSCALE
 40
1.0
  9
$DISPSILH
 70
     0
  9
$DIMSCALE
 40
1.0
  9
$DIMASZ
 40
0.1875
  9
$DIMEXO
 40
0.0625
  9
$DIMDLI
 40
0.836
  9
$DIMRND
 40
0.0
  9
$DIMDLE
 40
0.0
  9
$DIMEXE
 40
0.125
  9
$DIMTP
 40
0.0
  9
$DIMTM
 40
0.0
  9
$DIMTXT
 40
0.15625
  9
$DIMCEN
 40
0.198
  9
$DIMTSZ
 40
0.0
  9
$DIMTOL
 70
     0
  9
$DIMLIM
 70
     0
  9
$DIMTIH
 70
     1
  9
$DIMTOH
 70
     1
  9
$DIMSE1
 70
     0
  9
$DIMSE2
 70
     0
  9
$DIMTAD
 70
     0
  9
$DIMZIN
 70
     0
  9
$DIMBLK
  1
FILLED
  9
$DIMASO
 70
     1
  9
$DIMSHO
 70
     1
  9
$DIMPOST
  1

  9
$DIMAPOST
  1

  9
$DIMALT
 70
     0
  9
$DIMALTD
 70
     2
  9
$DIMALTF
 40
25.4
  9
$DIMLFAC
 40
1.0
  9
$DIMTOFL
 70
     0
  9
$DIMTVP
 40
0.0
  9
$DIMTIX
 70
     0
  9
$DIMSOXD
 70
     0
  9
$DIMSAH
 70
     0
  9
$DIMBLK1
  1

  9
$DIMBLK2
  1

  9
$DIMSTYLE
  2
STANDARD
  9
$DIMCLRD
 70
     0
  9
$DIMCLRE
 70
     0
  9
$DIMCLRT
 70
     0
  9
$DIMTFAC
 40
1.0
  9
$DIMGAP
 40
0.09
  9
$DIMJUST
 70
     0
  9
$DIMSD1
 70
     0
  9
$DIMSD2
 70
     0
  9
$DIMTOLJ
 70
     1
  9
$DIMTZIN
 70
     0
  9
$DIMALTZ
 70
     0
  9
$DIMALTTZ
 70
     0
  9
$DIMUPT
 70
     0
  9
$DIMDEC
 70
     4
  9
$DIMTDEC
 70
     4
  9
$DIMALTU
 70
     2
  9
$DIMALTTD
 70
     2
  9
$DIMTXSTY
  7
STANDARD
  9
$DIMAUNIT
 70
     0
  9
$DIMADEC
 70
     0
  9
$DIMALTRND
 40
0.0
  9
$DIMAZIN
 70
     0
  9
$DIMDSEP
 70
    46
  9
$DIMATFIT
 70
     3
  9
$DIMFRAC
 70
     0
  9
$DIMLDRBLK
  1

  9
$DIMLUNIT
 70
     2
  9
$DIMLWD
 70
    -2
  9
$DIMLWE
 70
    -2
  9
$DIMTMOVE
 70
     0
  9
$DIMFXL
 40
1.0
  9
$DIMFXLON
 70
     0
  9
$DIMJOGANG
 40
0.7853981633974483
  9
$DIMTFILL
 70
     0
  9
$DIMTFILLCLR
 70
     0
  9
$DIMARCSYM
 70
     0
  9
$DIMLTYPE
  6

  9
$DIMLTEX1
  6

  9
$DIMLTEX2
  6

  9
$DIMTXTDIRECTION
 70
     0
  9
$LUNITS
 70
     2
  9
$LUPREC
 70
     4
  9
$SKETCHINC
 40
0.1
  9
$FILLETRAD
 40
0.0
  9
$AUNITS
 70
     0
  9
$AUPREC
 70
     0
  9
$MENU
  1
.
  9
$ELEVATION
 40
0.0
  9
$PELEVATION
 40
0.0
  9
$THICKNESS
 40
0.0
  9
$LIMCHECK
 70
     0
  9
$CHAMFERA
 40
0.0
  9
$CHAMFERB
 40
0.0
  9
$CHAMFERC
 40
0.0
  9
$CHAMFERD
 40
0.0
  9
$SKPOLY
 70
     0
  9
$TDCREATE
 40
2460811.641053241
  9
$TDUCREATE
 40
2460811.307719908
  9
$TDUPDATE
 40
2461307.70482853
  9
$TDUUPDATE
 40
2461307.371495197
  9
$TDINDWG
 40
0.000625
  9
$TDUSRTIMER
 40
0.000625
  9
$USRTIMER
 70
     1
  9
$ANGBASE
 50
0.0
  9
$ANGDIR
 70
     0
  9
$PDMODE
 70
     3
  9
$PDSIZE
 40
0.3125
  9
$PLINEWID
 40
0.0
  9
$SPLFRAME
 70
     0
  9
$SPLINETYPE
 70
     6
  9
$SPLINESEGS
 70
     8
  9
$HANDSEED
  5
42B
  9
$SURFTAB1
 70
     6
  9
$SURFTAB2
 70
     6
  9
$SURFTYPE
 70
     6
  9
$SURFU
 70
     6
  9
$SURFV
 70
     6
  9
$UCSBASE
  2

  9
$UCSNAME
  2

  9
$UCSORG
 10
0.0
 20
0.0
 30
0.0
  9
$UCSXDIR
 10
1.0
 20
0.0
 30
0.0
  9
$UCSYDIR
 10
0.0
 20
1.0
 30
0.0
  9
$UCSORTHOREF
  2

  9
$UCSORTHOVIEW
 70
     0
  9
$UCSORGTOP
 10
0.0
 20
0.0
 30
0.0
  9
$UCSORGBOTTOM
 10
0.0
 20
0.0
 30
0.0
  9
$UCSORGLEFT
 10
0.0
 20
0.0
 30
0.0
  9
$UCSORGRIGHT
 10
0.0
 20
0.0
 30
0.0
  9
$UCSORGFRONT
 10
0.0
 20
0.0
 30
0.0
  9
$UCSORGBACK
 10
0.0
 20
0.0
 30
0.0
  9
$PUCSBASE
  2

  9
$PUCSNAME
  2

  9
$PUCSORG
 10
0.0
 20
0.0
 30
0.0
  9
$PUCSXDIR
 10
1.0
 20
0.0
 30
0.0
  9
$PUCSYDIR
 10
0.0
 20
1.0
 30
0.0
  9
$PUCSORTHOREF
  2

  9
$PUCSORTHOVIEW
 70
     0
  9
$PUCSORGTOP
 10
0.0
 20
0.0
 30
0.0
  9
$PUCSORGBOTTOM
 10
0.0
 20
0.0
 30
0.0
  9
$PUCSORGLEFT
 10
0.0
 20
0.0
 30
0.0
  9
$PUCSORGRIGHT
 10
0.0
 20
0.0
 30
0.0
  9
$PUCSORGFRONT
 10
0.0
 20
0.0
 30
0.0
  9
$PUCSORGBACK
 10
0.0
 20
0.0
 30
0.0
  9
$USERI1
 70
     0
  9
$USERI2
 70
     0
  9
$USERI3
 70
     0
  9
$USERI4
 70
     0
  9
$USERI5
 70
     0
  9
$USERR1
 40
0.0
  9
$USERR2
 40
0.0
  9
$USERR3
 40
0.0
  9
$USERR4
 40
0.0
  9
$USERR5
 40
0.0
  9
$WORLDVIEW
 70
     1
  9
$SHADEDGE
 70
     3
  9
$SHADEDIF
 70
    70
  9
$TILEMODE
 70
     1
  9
$MAXACTVP
 70
    64
  9
$PINSBASE
 10
0.0
 20
0.0
 30
0.0
  9
$PLIMCHECK
 70
     0
  9
$PEXTMIN
 10
1.000000000000000E+20
 20
1.000000000000000E+20
 30
1.000000000000000E+20
  9
$PEXTMAX
 10
-1.000000000000000E+20
 20
-1.000000000000000E+20
 30
-1.000000000000000E+20
  9
$PLIMMIN
 10
0.0
 20
0.0
  9
$PLIMMAX
 10
12.0
 20
9.0
  9
$UNITMODE
 70
     0
  9
$VISRETAIN
 70
     1
  9
$PLINEGEN
 70
     0
  9
$PSLTSCALE
 70
     1
  9
$TREEDEPTH
 70
  3020
  9
$CMLSTYLE
  2
Standard
  9
$CMLJUST
 70
     0
  9
$CMLSCALE
 40
1.0
  9
$PROXYGRAPHICS
 70
     1
  9
$MEASUREMENT
 70
     0
  9
$CELWEIGHT
370
    -1
  9
$ENDCAPS
280
     0
  9
$JOINSTYLE
280
     0
  9
$LWDISPLAY
290
     0
  9
$INSUNITS
 70
     1
  9
$HYPERLINKBASE
  1

  9
$STYLESHEET
  1

  9
$XEDIT
290
     1
  9
$CEPSNTYPE
380
     0
  9
$PSTYLEMODE
290
     1
  9
$FINGERPRINTGUID
  2
{4CBF3F3D-3FAC-E747-AD1B-47E269660F51}
  9
$VERSIONGUID
  2
{CA891854-07A9-C14C-B40A-7612A7CD3D84}
  9
$EXTNAMES
290
     1
  9
$PSVPSCALE
 40
0.0
  9
$OLESTARTUP
290
     0
  9
$SORTENTS
280
   127
  9
$INDEXCTL
280
     0
  9
$HIDETEXT
280
     1
  9
$XCLIPFRAME
280
     2
  9
$HALOGAP
280
     0
  9
$OBSCOLOR
 70
   257
  9
$OBSLTYPE
280
     0
  9
$INTERSECTIONDISPLAY
280
     0
  9
$INTERSECTIONCOLOR
 70
   257
  9
$DIMASSOC
280
     2
  9
$PROJECTNAME
  1

  9
$CAMERADISPLAY
290
     0
  9
$LENSLENGTH
 40
50.0
  9
$CAMERAHEIGHT
 40
0.0
  9
$STEPSPERSEC
 40
2.0
  9
$STEPSIZE
 40
6.0
  9
$3DDWFPREC
 40
2.0
  9
$PSOLWIDTH
 40
0.25
  9
$PSOLHEIGHT
 40
4.0
  9
$LOFTANG1
 40
1.570796326794897
  9
$LOFTANG2
 40
1.570796326794897
  9
$LOFTMAG1
 40
0.0
  9
$LOFTMAG2
 40
0.0
  9
$LOFTPARAM
 70
     7
  9
$LOFTNORMALS
280
     1
  9
$LATITUDE
 40
37.795
  9
$LONGITUDE
 40
-122.394
  9
$NORTHDIRECTION
 40
0.0
  9
$TIMEZONE
 70
 -8000
  9
$LIGHTGLYPHDISPLAY
280
     1
  9
$TILEMODELIGHTSYNCH
280
     1
  9
$CMATERIAL
347
3C6
  9
$SOLIDHIST
280
     0
  9
$SHOWHIST
280
     1
  9
$DWFFRAME
280
     2
  9
$DGNFRAME
280
     0
  9
$REALWORLDSCALE
290
     1
  9
$INTERFERECOLOR
 62
     1
  9
$CSHADOW
280
     0
  9
$SHADOWPLANELOCATION
 40
0.0
  0
ENDSEC
  0
SECTION
  2
CLASSES
  0
CLASS
  1
ACDBDICTIONARYWDFLT
  2
AcDbDictionaryWithDefault
  3
ObjectDBX Classes
 90
        0
 91
        3
280
     0
281
     0
  0
CLASS
  1
ACDBPLACEHOLDER
  2
AcDbPlaceHolder
  3
ObjectDBX Classes
 90
        0
 91
        1
280
     0
281
     0
  0
CLASS
  1
LAYOUT
  2
AcDbLayout
  3
ObjectDBX Classes
 90
        0
 91
        1
280
     0
281
     0
  0
CLASS
  1
MATERIAL
  2
AcDbMaterial
  3
ObjectDBX Classes
 90
     1153
 91
        3
280
     0
281
     0
  0
CLASS
  1
VISUALSTYLE
  2
AcDbVisualStyle
  3
ObjectDBX Classes
 90
     4095
 91
        3
280
     0
281
     0
  0
CLASS
  1
TABLESTYLE
  2
AcDbTableStyle
  3
ObjectDBX Classes
 90
     4095
 91
        3
280
     0
281
     0
  0
CLASS
  1
SCALE
  2
AcDbScale
  3
ObjectDBX Classes
 90
     1153
 91
        3
280
     0
281
     0
  0
CLASS
  1
MLEADERSTYLE
  2
AcDbMLeaderStyle
  3
ACDB_MLEADERSTYLE_CLASS
 90
     4095
 91
        3
280
     0
281
     0
  0
CLASS
  1
ACDBSECTIONVIEWSTYLE
  2
AcDbSectionViewStyle
  3
ObjectDBX Classes
 90
     1025
 91
        3
280
     0
281
     0
  0
CLASS
  1
ACDBDETAILVIEWSTYLE
  2
AcDbDetailViewStyle
  3
ObjectDBX Classes
 90
     1025
 91
        3
280
     0
281
     0
  0
CLASS
  1
DICTIONARYVAR
  2
AcDbDictionaryVar
  3
ObjectDBX Classes
 90
        0
 91
        3
280
     0
281
     0
  0
CLASS
  1
CELLSTYLEMAP
  2
AcDbCellStyleMap
  3
ObjectDBX Classes
 90
     1152
 91
        3
280
     0
281
     0
  0
ENDSEC
  0
SECTION
  2
TABLES
  0
TABLE
  2
VPORT
  5
8
330
0
100
AcDbSymbolTable
 70
     1
  0
VPORT
  5
1F4
330
8
100
AcDbSymbolTableRecord
100
AcDbViewportTableRecord
  2
*ACTIVE
 70
     0
 10
0.0
 20
0.0
 11
1.0
 21
1.0
 12
15.99979330733289
 22
65.00057119307483
 13
0.0
 23
0.0
 14
1.0
 24
1.0
 15
0.0
 25
0.0
 16
0.0
 26
0.0
 36
1.0
 17
0.0
 27
0.0
 37
0.0
 40
130.970156395534
 41
2.00616522811344
 42
50.0
 43
0.0
 44
0.0
 50
0.0
 51
0.0
 71
     0
 72
   100
 73
     1
 74
     1
 75
     0
 76
     0
 77
     0
 78
     0
281
     0
 65
     1
110
0.0
120
0.0
130
0.0
111
1.0
121
0.0
131
0.0
112
0.0
122
1.0
132
0.0
 79
     0
146
0.0
348
3E4
 60
     3
 61
     5
292
     1
282
     1
141
0.0
142
0.0
 63
   250
421
  3355443
1001
ACAD_NAV_VCDISPLAY
1070
     3
  0
ENDTAB
  0
TABLE
  2
LTYPE
  5
5
330
0
100
AcDbSymbolTable
 70
     6
  0
LTYPE
  5
14
330
5
100
AcDbSymbolTableRecord
100
AcDbLinetypeTableRecord
  2
BYBLOCK
 70
     0
  3

 72
    65
 73
     0
 40
0.0
  0
LTYPE
  5
15
330
5
100
AcDbSymbolTableRecord
100
AcDbLinetypeTableRecord
  2
BYLAYER
 70
     0
  3

 72
    65
 73
     0
 40
0.0
  0
LTYPE
  5
16
330
5
100
AcDbSymbolTableRecord
100
AcDbLinetypeTableRecord
  2
CONTINUOUS
 70
     0
  3
Solid line
 72
    65
 73
     0
 40
0.0
  0
LTYPE
  5
1F5
330
5
100
AcDbSymbolTableRecord
100
AcDbLinetypeTableRecord
  2
CENTER
 70
     0
  3
____ _ ____ _ ____ _ ____ _ ____ _ ____ _ ____
 72
    65
 73
     4
 40
0.6
 49
0.375
 74
     0
 49
-0.075
 74
     0
 49
0.075
 74
     0
 49
-0.075
 74
     0
  0
LTYPE
  5
1F6
330
5
100
AcDbSymbolTableRecord
100
AcDbLinetypeTableRecord
  2
HIDDEN
 70
     0
  3
- - - - - - - - - - - - - - - - - - - -
 72
    65
 73
     2
 40
0.2
 49
0.1
 74
     0
 49
-0.1
 74
     0
  0
LTYPE
  5
1F7
330
5
100
AcDbSymbolTableRecord
100
AcDbLinetypeTableRecord
  2
PHANTOM
 70
     0
  3
_____ _ _ _____ _ _ _____ _ _ _____
 72
    65
 73
     6
 40
0.8
 49
0.45
 74
     0
 49
-0.05
 74
     0
 49
0.1
 74
     0
 49
-0.05
 74
     0
 49
0.1
 74
     0
 49
-0.05
 74
     0
  0
LTYPE
  5
1F8
330
5
100
AcDbSymbolTableRecord
100
AcDbLinetypeTableRecord
  2
DOT
 70
     0
  3
. . . . . . . . . . . . . . . . . . . .
 72
    65
 73
     2
 40
0.2
 49
0.1
 74
     0
 49
-0.1
 74
     0
  0
LTYPE
  5
1F9
330
5
100
AcDbSymbolTableRecord
100
AcDbLinetypeTableRecord
  2
DASHED
 70
     0
  3
- - - - - - - - - - - - - - - - - - - -
 72
    65
 73
     2
 40
0.2
 49
0.1
 74
     0
 49
-0.1
 74
     0
  0
ENDTAB
  0
TABLE
  2
LAYER
  5
2
102
{ACAD_XDICTIONARY
360
421
102
}
330
0
100
AcDbSymbolTable
 70
    38
  0
LAYER
  5
10
330
2
100
AcDbSymbolTableRecord
100
AcDbLayerTableRecord
  2
0
 70
     0
 62
     7
  6
CONTINUOUS
370
    -3
390
F
347
3D6
348
0
  0
LAYER
  5
1FA
330
2
100
AcDbSymbolTableRecord
100
AcDbLayerTableRecord
  2
DEFAULT_1
 70
     0
 62
     7
  6
CENTER
370
    -3
390
F
347
3D6
348
0
  0
LAYER
  5
1FB
330
2
100
AcDbSymbolTableRecord
100
AcDbLayerTableRecord
  2
DEFAULT_2
 70
     0
 62
     8
  6
HIDDEN
370
    -3
390
F
347
3D6
348
0
  0
LAYER
  5
1FC
330
2
100
AcDbSymbolTableRecord
100
AcDbLayerTableRecord
  2
DEFAULT_3
 70
     0
 62
     7
  6
PHANTOM
370
    -3
390
F
347
3D6
348
0
  0
LAYER
  5
1FD
330
2
100
AcDbSymbolTableRecord
100
AcDbLayerTableRecord
  2
01_ALL_DTM_PLN
 70
     0
 62
     7
  6
CONTINUOUS
370
    -3
390
F
347
3D6
348
0
  0
LAYER
  5
1FE
330
2
100
AcDbSymbolTableRecord
100
AcDbLayerTableRecord
  2
01__ASM_ALL_DTM_PLN
 70
     0
 62
     7
  6
CONTINUOUS
370
    -3
390
F
347
3D6
348
0
  0
LAYER
  5
1FF
330
2
100
AcDbSymbolTableRecord
100
AcDbLayerTableRecord
  2
01__ASM_DEF_DTM_PLN
 70
     0
 62
     7
  6
CONTINUOUS
370
    -3
390
F
347
3D6
348
0
  0
LAYER
  5
200
330
2
100
AcDbSymbolTableRecord
100
AcDbLayerTableRecord
  2
01___PRT_ALL_DTM_PLN
 70
     0
 62
     7
  6
CONTINUOUS
370
    -3
390
F
347
3D6
348
0
  0
LAYER
  5
201
330
2
100
AcDbSymbolTableRecord
100
AcDbLayerTableRecord
  2
01___PRT_DEF_DTM_PLN
 70
     0
 62
     7
  6
CONTINUOUS
370
    -3
390
F
347
3D6
348
0
  0
LAYER
  5
202
330
2
100
AcDbSymbolTableRecord
100
AcDbLayerTableRecord
  2
02_ALL_AXES
 70
     0
 62
     7
  6
CONTINUOUS
370
    -3
390
F
347
3D6
348
0
  0
LAYER
  5
203
330
2
100
AcDbSymbolTableRecord
100
AcDbLayerTableRecord
  2
02__ASM_ALL_AXES
 70
     0
 62
     7
  6
CONTINUOUS
370
    -3
390
F
347
3D6
348
0
  0
LAYER
  5
204
330
2
100
AcDbSymbolTableRecord
100
AcDbLayerTableRecord
  2
02___PRT_ALL_AXES
 70
     0
 62
     7
  6
CONTINUOUS
370
    -3
390
F
347
3D6
348
0
  0
LAYER
  5
205
330
2
100
AcDbSymbolTableRecord
100
AcDbLayerTableRecord
  2
03_ALL_CURVES
 70
     0
 62
     7
  6
CONTINUOUS
370
    -3
390
F
347
3D6
348
0
  0
LAYER
  5
206
330
2
100
AcDbSymbolTableRecord
100
AcDbLayerTableRecord
  2
03__ASM_ALL_CURVES
 70
     0
 62
     7
  6
CONTINUOUS
370
    -3
390
F
347
3D6
348
0
  0
LAYER
  5
207
330
2
100
AcDbSymbolTableRecord
100
AcDbLayerTableRecord
  2
03___PRT_ALL_CURVES
 70
     0
 62
     7
  6
CONTINUOUS
370
    -3
390
F
347
3D6
348
0
  0
LAYER
  5
208
330
2
100
AcDbSymbolTableRecord
100
AcDbLayerTableRecord
  2
04_ALL_DTM_PNT
 70
     0
 62
     7
  6
CONTINUOUS
370
    -3
390
F
347
3D6
348
0
  0
LAYER
  5
209
330
2
100
AcDbSymbolTableRecord
100
AcDbLayerTableRecord
  2
04__ASM_ALL_DTM_PNT
 70
     0
 62
     7
  6
CONTINUOUS
370
    -3
390
F
347
3D6
348
0
  0
LAYER
  5
20A
330
2
100
AcDbSymbolTableRecord
100
AcDbLayerTableRecord
  2
04___PRT_ALL_DTM_PNT
 70
     0
 62
     7
  6
CONTINUOUS
370
    -3
390
F
347
3D6
348
0
  0
LAYER
  5
20B
330
2
100
AcDbSymbolTableRecord
100
AcDbLayerTableRecord
  2
05_ALL_DTM_CSYS
 70
     0
 62
     7
  6
CONTINUOUS
370
    -3
390
F
347
3D6
348
0
  0
LAYER
  5
20C
330
2
100
AcDbSymbolTableRecord
100
AcDbLayerTableRecord
  2
05__ASM_ALL_DTM_CSYS
 70
     0
 62
     7
  6
CONTINUOUS
370
    -3
390
F
347
3D6
348
0
  0
LAYER
  5
20D
330
2
100
AcDbSymbolTableRecord
100
AcDbLayerTableRecord
  2
05__ASM_DEF_DTM_CSYS
 70
     0
 62
     7
  6
CONTINUOUS
370
    -3
390
F
347
3D6
348
0
  0
LAYER
  5
20E
330
2
100
AcDbSymbolTableRecord
100
AcDbLayerTableRecord
  2
05___PRT_ALL_DTM_CSYS
 70
     0
 62
     7
  6
CONTINUOUS
370
    -3
390
F
347
3D6
348
0
  0
LAYER
  5
20F
330
2
100
AcDbSymbolTableRecord
100
AcDbLayerTableRecord
  2
05___PRT_DEF_DTM_CSYS
 70
     0
 62
     7
  6
CONTINUOUS
370
    -3
390
F
347
3D6
348
0
  0
LAYER
  5
210
330
2
100
AcDbSymbolTableRecord
100
AcDbLayerTableRecord
  2
06_ALL_SURFS
 70
     0
 62
     7
  6
CONTINUOUS
370
    -3
390
F
347
3D6
348
0
  0
LAYER
  5
211
330
2
100
AcDbSymbolTableRecord
100
AcDbLayerTableRecord
  2
06__ASM_ALL_SURFS
 70
     0
 62
     7
  6
CONTINUOUS
370
    -3
390
F
347
3D6
348
0
  0
LAYER
  5
212
330
2
100
AcDbSymbolTableRecord
100
AcDbLayerTableRecord
  2
06___PRT_ALL_SURFS
 70
     0
 62
     7
  6
CONTINUOUS
370
    -3
390
F
347
3D6
348
0
  0
LAYER
  5
213
330
2
100
AcDbSymbolTableRecord
100
AcDbLayerTableRecord
  2
07__ASM_ALL_SKELETONS
 70
     0
 62
     7
  6
CONTINUOUS
370
    -3
390
F
347
3D6
348
0
  0
LAYER
  5
214
330
2
100
AcDbSymbolTableRecord
100
AcDbLayerTableRecord
  2
1_ALL_PLANES
 70
     0
 62
     7
  6
CONTINUOUS
370
    -3
390
F
347
3D6
348
0
  0
LAYER
  5
215
330
2
100
AcDbSymbolTableRecord
100
AcDbLayerTableRecord
  2
2_ALL_CSYS
 70
     0
 62
     7
  6
CONTINUOUS
370
    -3
390
F
347
3D6
348
0
  0
LAYER
  5
216
330
2
100
AcDbSymbolTableRecord
100
AcDbLayerTableRecord
  2
3_ALL_AXES
 70
     0
 62
     7
  6
CONTINUOUS
370
    -3
390
F
347
3D6
348
0
  0
LAYER
  5
217
330
2
100
AcDbSymbolTableRecord
100
AcDbLayerTableRecord
  2
4_ALL_POINTS
 70
     0
 62
     7
  6
CONTINUOUS
370
    -3
390
F
347
3D6
348
0
  0
LAYER
  5
218
330
2
100
AcDbSymbolTableRecord
100
AcDbLayerTableRecord
  2
5_ALL_CURVES
 70
     0
 62
     7
  6
CONTINUOUS
370
    -3
390
F
347
3D6
348
0
  0
LAYER
  5
219
330
2
100
AcDbSymbolTableRecord
100
AcDbLayerTableRecord
  2
7_ALL_FEATURES
 70
     0
 62
     7
  6
CONTINUOUS
370
    -3
390
F
347
3D6
348
0
  0
LAYER
  5
21A
330
2
100
AcDbSymbolTableRecord
100
AcDbLayerTableRecord
  2
AXES
 70
     0
 62
     7
  6
CONTINUOUS
370
    -3
390
F
347
3D6
348
0
  0
LAYER
  5
21B
330
2
100
AcDbSymbolTableRecord
100
AcDbLayerTableRecord
  2
CURVERS
 70
     0
 62
     7
  6
CONTINUOUS
370
    -3
390
F
347
3D6
348
0
  0
LAYER
  5
21C
330
2
100
AcDbSymbolTableRecord
100
AcDbLayerTableRecord
  2
PLANES
 70
     0
 62
     7
  6
CONTINUOUS
370
    -3
390
F
347
3D6
348
0
  0
LAYER
  5
21D
330
2
100
AcDbSymbolTableRecord
100
AcDbLayerTableRecord
  2
POINTS
 70
     0
 62
     7
  6
CONTINUOUS
370
    -3
390
F
347
3D6
348
0
  0
LAYER
  5
21E
330
2
100
AcDbSymbolTableRecord
100
AcDbLayerTableRecord
  2
XSEC_DATUMS
 70
     0
 62
     7
  6
CONTINUOUS
370
    -3
390
F
347
3D6
348
0
  0
ENDTAB
  0
TABLE
  2
STYLE
  5
3
330
0
100
AcDbSymbolTable
 70
     2
  0
STYLE
  5
11
330
3
100
AcDbSymbolTableRecord
100
AcDbTextStyleTableRecord
  2
STANDARD
 70
     0
 40
0.0
 41
0.8
 50
0.0
 71
     0
 42
0.2
  3
txt
  4

  0
STYLE
  5
21F
330
3
100
AcDbSymbolTableRecord
100
AcDbTextStyleTableRecord
  2
TEXTSTYLE_1
 70
     0
 40
0.0
 41
0.8
 50
0.0
 71
     0
 42
0.2
  3
gdt
  4

  0
ENDTAB
  0
TABLE
  2
VIEW
  5
6
330
0
100
AcDbSymbolTable
 70
     0
  0
ENDTAB
  0
TABLE
  2
UCS
  5
7
330
0
100
AcDbSymbolTable
 70
     0
  0
ENDTAB
  0
TABLE
  2
APPID
  5
9
330
0
100
AcDbSymbolTable
 70
     2
  0
APPID
  5
220
330
9
100
AcDbSymbolTableRecord
100
AcDbRegAppTableRecord
  2
ACAD
 70
     0
  0
APPID
  5
427
330
9
100
AcDbSymbolTableRecord
100
AcDbRegAppTableRecord
  2
ACAD_NAV_VCDISPLAY
 70
     0
  0
ENDTAB
  0
TABLE
  2
DIMSTYLE
  5
A
330
0
100
AcDbSymbolTable
 70
     1
100
AcDbDimStyleTable
  0
DIMSTYLE
105
224
330
A
100
AcDbSymbolTableRecord
100
AcDbDimStyleTableRecord
  2
STANDARD
 70
     0
 41
0.1875
 44
0.125
 47
0.01
 48
0.01
 78
     4
 79
     1
140
0.15625
171
     1
178
     0
179
     2
271
     2
272
     2
284
     4
340
11
341
223
342
223
343
223
344
223
  0
ENDTAB
  0
TABLE
  2
BLOCK_RECORD
  5
1
330
0
100
AcDbSymbolTable
 70
     1
  0
BLOCK_RECORD
  5
221
330
1
100
AcDbSymbolTableRecord
100
AcDbBlockTableRecord
  2
*Model_Space
340
3C1
 70
     0
280
     1
281
     0
  0
BLOCK_RECORD
  5
222
330
1
100
AcDbSymbolTableRecord
100
AcDbBlockTableRecord
  2
*Paper_Space
340
3C2
 70
     0
280
     1
281
     0
  0
BLOCK_RECORD
  5
223
330
1
100
AcDbSymbolTableRecord
100
AcDbBlockTableRecord
  2
_FILLED
340
0
 70
     0
280
     1
281
     0
  0
ENDTAB
  0
ENDSEC
  0
SECTION
  2
BLOCKS
  0
BLOCK
  5
20
330
221
100
AcDbEntity
  8
0
100
AcDbBlockBegin
  2
*Model_Space
 70
     0
 10
0.0
 20
0.0
 30
0.0
  3
*Model_Space
  1

  0
ENDBLK
  5
21
330
221
100
AcDbEntity
  8
0
100
AcDbBlockEnd
  0
BLOCK
  5
1C
330
222
100
AcDbEntity
 67
     1
  8
0
100
AcDbBlockBegin
  2
*Paper_Space
 70
     0
 10
0.0
 20
0.0
 30
0.0
  3
*Paper_Space
  1

  0
ENDBLK
  5
1D
330
222
100
AcDbEntity
 67
     1
  8
0
100
AcDbBlockEnd
  0
BLOCK
  5
225
330
223
100
AcDbEntity
  8
0
100
AcDbBlockBegin
  2
_FILLED
 70
     0
 10
0.0
 20
0.0
 30
0.0
  3
_FILLED
  1

  0
SOLID
  5
226
330
223
100
AcDbEntity
  8
0
  6
ByBlock
 62
     0
100
AcDbTrace
 10
0.0
 20
0.0
 30
0.0
 11
-1.0
 21
0.1666666667
 31
0.0
 12
-1.0
 22
-0.1666666667
 32
0.0
 13
-1.0
 23
-0.1666666667
 33
0.0
  0
ENDBLK
  5
227
330
223
100
AcDbEntity
  8
0
  6
ByBlock
 62
     0
100
AcDbBlockEnd
  0
ENDSEC
  0
SECTION
  2
ENTITIES
  0
SPLINE
  5
228
330
221
100
AcDbEntity
  8
03___PRT_ALL_CURVES
  6
Continuous
 62
     4
100
AcDbSpline
210
0.0
220
0.0
230
1.0
 70
     8
 71
     3
 72
     8
 73
     4
 74
     0
 42
0.0000001
 43
0.0000000001
 40
0.0
 40
0.0
 40
0.0
 40
0.0
 40
1.0
 40
1.0
 40
1.0
 40
1.0
 10
18.25443418194001
 20
121.1633697454199
 30
0.0
 10
18.00034137034004
 20
120.8478853421
 30
0.0
 10
17.81446130522002
 20
120.55286499996
 30
0.0
 10
17.69777659574004
 20
120.2769096768399
 30
0.0
  0
SPLINE
  5
229
330
221
100
AcDbEntity
  8
03___PRT_ALL_CURVES
  6
Continuous
 62
     4
100
AcDbSpline
210
0.0
220
0.0
230
1.0
 70
     8
 71
     3
 72
     8
 73
     4
 74
     0
 42
0.0000001
 43
0.0000000001
 40
0.0
 40
0.0
 40
0.0
 40
0.0
 40
1.0
 40
1.0
 40
1.0
 40
1.0
 10
17.69777659574004
 20
120.2769096768399
 30
0.0
 10
17.58083255480003
 20
120.00034104278
 30
0.0
 10
17.49556632198002
 20
119.6575716064
 30
0.0
 10
17.44099588502002
 20
119.2500000009199
 30
0.0
  0
SPLINE
  5
22A
330
221
100
AcDbEntity
  8
03___PRT_ALL_CURVES
  6
Continuous
 62
     4
100
AcDbSpline
210
0.0
220
0.0
230
1.0
 70
     8
 71
     3
 72
     8
 73
     4
 74
     0
 42
0.0000001
 43
0.0000000001
 40
0.0
 40
0.0
 40
0.0
 40
0.0
 40
1.0
 40
1.0
 40
1.0
 40
1.0
 10
18.13335628592
 20
119.2500000009199
 30
0.0
 10
18.15552504270002
 20
119.5433151470799
 30
0.0
 10
18.19986374498001
 20
119.7974079028
 30
0.0
 10
18.26490515922001
 20
120.01271708864
 30
0.0
  0
SPLINE
  5
22B
330
221
100
AcDbEntity
  8
03___PRT_ALL_CURVES
  6
Continuous
 62
     4
100
AcDbSpline
210
0.0
220
0.0
230
1.0
 70
     8
 71
     3
 72
     8
 73
     4
 74
     0
 42
0.0000001
 43
0.0000000001
 40
0.0
 40
0.0
 40
0.0
 40
0.0
 40
1.0
 40
1.0
 40
1.0
 40
1.0
 10
18.26490515922001
 20
120.01271708864
 30
0.0
 10
18.34822685948001
 20
120.28854023016
 30
0.0
 10
18.46248300384002
 20
120.53922239072
 30
0.0
 10
18.60591187116
 20
120.76420840506
 30
0.0
  0
SPLINE
  5
22C
330
221
100
AcDbEntity
  8
03___PRT_ALL_CURVES
  6
Continuous
 62
     4
100
AcDbSpline
210
0.0
220
0.0
230
1.0
 70
     8
 71
     3
 72
     8
 73
     4
 74
     0
 42
0.0000001
 43
0.0000000001
 40
0.0
 40
0.0
 40
0.0
 40
0.0
 40
1.0
 40
1.0
 40
1.0
 40
1.0
 10
18.60591187116
 20
120.76420840506
 30
0.0
 10
18.72339756710002
 20
120.9484993217199
 30
0.0
 10
18.87005479474004
 20
121.12073663028
 30
0.0
 10
19.04740841514001
 20
121.2810367643399
 30
0.0
  0
SPLINE
  5
22D
330
221
100
AcDbEntity
  8
03___PRT_ALL_CURVES
  6
Continuous
 62
     4
100
AcDbSpline
210
0.0
220
0.0
230
1.0
 70
     8
 71
     3
 72
     8
 73
     4
 74
     0
 42
0.0000001
 43
0.0000000001
 40
0.0
 40
0.0
 40
0.0
 40
0.0
 40
1.0
 40
1.0
 40
1.0
 40
1.0
 10
19.33731229558001
 20
120.51023188228
 30
0.0
 10
19.33731229558001
 20
120.31582537244
 30
0.0
 10
19.35266049196002
 20
120.1401773391799
 30
0.0
 10
19.3867668906
 20
119.9798770832
 30
0.0
  0
SPLINE
  5
22E
330
221
100
AcDbEntity
  8
03___PRT_ALL_CURVES
  6
Continuous
 62
     4
100
AcDbSpline
210
0.0
220
0.0
230
1.0
 70
     8
 71
     3
 72
     8
 73
     4
 74
     0
 42
0.0000001
 43
0.0000000001
 40
0.0
 40
0.0
 40
0.0
 40
0.0
 40
1.0
 40
1.0
 40
1.0
 40
1.0
 10
19.3867668906
 20
119.9798770832
 30
0.0
 10
19.42087323844001
 20
119.81957706852
 30
0.0
 10
19.46691663378002
 20
119.69508867132
 30
0.0
 10
19.52697141842
 20
119.60214733828
 30
0.0
  0
SPLINE
  5
22F
330
221
100
AcDbEntity
  8
03___PRT_ALL_CURVES
  6
Continuous
 62
     4
100
AcDbSpline
210
0.0
220
0.0
230
1.0
 70
     8
 71
     3
 72
     8
 73
     4
 74
     0
 42
0.0000001
 43
0.0000000001
 40
0.0
 40
0.0
 40
0.0
 40
0.0
 40
1.0
 40
1.0
 40
1.0
 40
1.0
 10
19.52697141842
 20
119.60214733828
 30
0.0
 10
19.61016447784002
 20
119.47339699888
 30
0.0
 10
19.71759946490002
 20
119.37448840828
 30
0.0
 10
19.84720380563999
 20
119.3079809035
 30
0.0
  0
SPLINE
  5
230
330
221
100
AcDbEntity
  8
03___PRT_ALL_CURVES
  6
Continuous
 62
     4
100
AcDbSpline
210
0.0
220
0.0
230
1.0
 70
     8
 71
     3
 72
     8
 73
     4
 74
     0
 42
0.0000001
 43
0.0000000001
 40
0.0
 40
0.0
 40
0.0
 40
0.0
 40
1.0
 40
1.0
 40
1.0
 40
1.0
 10
19.84720380563999
 20
119.3079809035
 30
0.0
 10
19.97680814384003
 20
119.2414733987199
 30
0.0
 10
20.14563472516002
 20
119.20736698738
 30
0.0
 10
20.35709412190002
 20
119.20736698738
 30
0.0
  0
SPLINE
  5
231
330
221
100
AcDbEntity
  8
03___PRT_ALL_CURVES
  6
Continuous
 62
     4
100
AcDbSpline
210
0.0
220
0.0
230
1.0
 70
     8
 71
     3
 72
     8
 73
     4
 74
     0
 42
0.0000001
 43
0.0000000001
 40
0.0
 40
0.0
 40
0.0
 40
0.0
 40
1.0
 40
1.0
 40
1.0
 40
1.0
 10
20.35709412190002
 20
119.20736698738
 30
0.0
 10
20.73226482952001
 20
119.20736698738
 30
0.0
 10
20.99658997270004
 20
119.31139154184
 30
0.0
 10
21.15047390674002
 20
119.5225551454199
 30
0.0
  0
SPLINE
  5
232
330
221
100
AcDbEntity
  8
03___PRT_ALL_CURVES
  6
Continuous
 62
     4
100
AcDbSpline
210
0.0
220
0.0
230
1.0
 70
     8
 71
     3
 72
     8
 73
     4
 74
     0
 42
0.0000001
 43
0.0000000001
 40
0.0
 40
0.0
 40
0.0
 40
0.0
 40
1.0
 40
1.0
 40
1.0
 40
1.0
 10
21.15047390674002
 20
119.5225551454199
 30
0.0
 10
21.30354674003999
 20
119.7326057337
 30
0.0
 10
21.38028652814
 20
120.06514321442
 30
0.0
 10
21.38028652814
 20
120.51875847686
 30
0.0
  0
SPLINE
  5
233
330
221
100
AcDbEntity
  8
03___PRT_ALL_CURVES
  6
Continuous
 62
     4
100
AcDbSpline
210
0.0
220
0.0
230
1.0
 70
     8
 71
     3
 72
     8
 73
     4
 74
     0
 42
0.0000001
 43
0.0000000001
 40
0.0
 40
0.0
 40
0.0
 40
0.0
 40
1.0
 40
1.0
 40
1.0
 40
1.0
 10
21.38028652814
 20
120.51875847686
 30
0.0
 10
21.38028652814
 20
120.71998629132
 30
0.0
 10
21.35641248394003
 20
120.91439294848
 30
0.0
 10
21.31035891082004
 20
121.10197565434
 30
0.0
  0
SPLINE
  5
234
330
221
100
AcDbEntity
  8
03___PRT_ALL_CURVES
  6
Continuous
 62
     4
100
AcDbSpline
210
0.0
220
0.0
230
1.0
 70
     8
 71
     3
 72
     8
 73
     4
 74
     0
 42
0.0000001
 43
0.0000000001
 40
0.0
 40
0.0
 40
0.0
 40
0.0
 40
1.0
 40
1.0
 40
1.0
 40
1.0
 10
21.31035891082004
 20
121.10197565434
 30
0.0
 10
21.28649385060001
 20
121.19918140862
 30
0.0
 10
21.25409276732003
 20
121.28444749158
 30
0.0
 10
21.21487052674001
 20
121.3577762552599
 30
0.0
  0
SPLINE
  5
235
330
221
100
AcDbEntity
  8
03___PRT_ALL_CURVES
  6
Continuous
 62
     4
100
AcDbSpline
210
0.0
220
0.0
230
1.0
 70
     8
 71
     3
 72
     8
 73
     4
 74
     0
 42
0.0000001
 43
0.0000000001
 40
0.0
 40
0.0
 40
0.0
 40
0.0
 40
1.0
 40
1.0
 40
1.0
 40
1.0
 10
21.21487052674001
 20
121.3577762552599
 30
0.0
 10
21.17564828616
 20
121.43110501894
 30
0.0
 10
21.12278373352001
 20
121.5010232027
 30
0.0
 10
21.05457073304001
 20
121.56753040268
 30
0.0
  0
SPLINE
  5
236
330
221
100
AcDbEntity
  8
03___PRT_ALL_CURVES
  6
Continuous
 62
     4
100
AcDbSpline
210
0.0
220
0.0
230
1.0
 70
     8
 71
     3
 72
     8
 73
     4
 74
     0
 42
0.0000001
 43
0.0000000001
 40
0.0
 40
0.0
 40
0.0
 40
0.0
 40
1.0
 40
1.0
 40
1.0
 40
1.0
 10
21.05457073304001
 20
121.56753040268
 30
0.0
 10
20.98635704676002
 20
121.63403827068
 30
0.0
 10
20.89768083346002
 20
121.6886084079199
 30
0.0
 10
20.79013959820003
 20
121.72925387146
 30
0.0
  0
SPLINE
  5
237
330
221
100
AcDbEntity
  8
03___PRT_ALL_CURVES
  6
Continuous
 62
     4
100
AcDbSpline
210
0.0
220
0.0
230
1.0
 70
     8
 71
     3
 72
     8
 73
     4
 74
     0
 42
0.0000001
 43
0.0000000001
 40
0.0
 40
0.0
 40
0.0
 40
0.0
 40
1.0
 40
1.0
 40
1.0
 40
1.0
 10
20.79013959820003
 20
121.72925387146
 30
0.0
 10
20.68110497248
 20
121.77046376618
 30
0.0
 10
20.54297478392002
 20
121.79263311732
 30
0.0
 10
20.37585289565999
 20
121.79263311732
 30
0.0
  0
SPLINE
  5
238
330
221
100
AcDbEntity
  8
03___PRT_ALL_CURVES
  6
Continuous
 62
     4
100
AcDbSpline
210
0.0
220
0.0
230
1.0
 70
     8
 71
     3
 72
     8
 73
     4
 74
     0
 42
0.0000001
 43
0.0000000001
 40
0.0
 40
0.0
 40
0.0
 40
0.0
 40
1.0
 40
1.0
 40
1.0
 40
1.0
 10
20.37585289565999
 20
121.79263311732
 30
0.0
 10
20.02455623224003
 20
121.79263311732
 30
0.0
 10
19.76364286024003
 20
121.6971350024999
 30
0.0
 10
19.59353499624004
 20
121.5074645538
 30
0.0
  0
SPLINE
  5
239
330
221
100
AcDbEntity
  8
03___PRT_ALL_CURVES
  6
Continuous
 62
     4
100
AcDbSpline
210
0.0
220
0.0
230
1.0
 70
     8
 71
     3
 72
     8
 73
     4
 74
     0
 42
0.0000001
 43
0.0000000001
 40
0.0
 40
0.0
 40
0.0
 40
0.0
 40
1.0
 40
1.0
 40
1.0
 40
1.0
 10
19.59353499624004
 20
121.5074645538
 30
0.0
 10
19.42257912276003
 20
121.3168485774
 30
0.0
 10
19.33731229558001
 20
120.98431098492
 30
0.0
 10
19.33731229558001
 20
120.51023188228
 30
0.0
  0
SPLINE
  5
23A
330
221
100
AcDbEntity
  8
03___PRT_ALL_CURVES
  6
Continuous
 62
     4
100
AcDbSpline
210
0.0
220
0.0
230
1.0
 70
     8
 71
     3
 72
     8
 73
     4
 74
     0
 42
0.0000001
 43
0.0000000001
 40
0.0
 40
0.0
 40
0.0
 40
0.0
 40
1.0
 40
1.0
 40
1.0
 40
1.0
 10
20.02626211910001
 20
120.5085265948599
 30
0.0
 10
20.02626211910001
 20
120.8223055608999
 30
0.0
 10
20.05184204762
 20
121.0388812720199
 30
0.0
 10
20.10300143476002
 20
121.15484335912
 30
0.0
  0
SPLINE
  5
23B
330
221
100
AcDbEntity
  8
03___PRT_ALL_CURVES
  6
Continuous
 62
     4
100
AcDbSpline
210
0.0
220
0.0
230
1.0
 70
     8
 71
     3
 72
     8
 73
     4
 74
     0
 42
0.0000001
 43
0.0000000001
 40
0.0
 40
0.0
 40
0.0
 40
0.0
 40
1.0
 40
1.0
 40
1.0
 40
1.0
 10
20.10300143476002
 20
121.15484335912
 30
0.0
 10
20.15416057298003
 20
121.2708048823399
 30
0.0
 10
20.23601682278002
 20
121.33049118664
 30
0.0
 10
20.35197885146002
 20
121.33049118664
 30
0.0
  0
SPLINE
  5
23C
330
221
100
AcDbEntity
  8
03___PRT_ALL_CURVES
  6
Continuous
 62
     4
100
AcDbSpline
210
0.0
220
0.0
230
1.0
 70
     8
 71
     3
 72
     8
 73
     4
 74
     0
 42
0.0000001
 43
0.0000000001
 40
0.0
 40
0.0
 40
0.0
 40
0.0
 40
1.0
 40
1.0
 40
1.0
 40
1.0
 10
20.35197885146002
 20
121.33049118664
 30
0.0
 10
20.46452911150001
 20
121.33049118664
 30
0.0
 10
20.54809005436002
 20
121.2725101722999
 30
0.0
 10
20.60436589558
 20
121.1582534945399
 30
0.0
  0
SPLINE
  5
23D
330
221
100
AcDbEntity
  8
03___PRT_ALL_CURVES
  6
Continuous
 62
     4
100
AcDbSpline
210
0.0
220
0.0
230
1.0
 70
     8
 71
     3
 72
     8
 73
     4
 74
     0
 42
0.0000001
 43
0.0000000001
 40
0.0
 40
0.0
 40
0.0
 40
0.0
 40
1.0
 40
1.0
 40
1.0
 40
1.0
 10
20.60436589558
 20
121.1582534945399
 30
0.0
 10
20.66064150566001
 20
121.04399728922
 30
0.0
 10
20.68963201156001
 20
120.82060027094
 30
0.0
 10
20.68963201156001
 20
120.48976804462
 30
0.0
  0
SPLINE
  5
23E
330
221
100
AcDbEntity
  8
03___PRT_ALL_CURVES
  6
Continuous
 62
     4
100
AcDbSpline
210
0.0
220
0.0
230
1.0
 70
     8
 71
     3
 72
     8
 73
     4
 74
     0
 42
0.0000001
 43
0.0000000001
 40
0.0
 40
0.0
 40
0.0
 40
0.0
 40
1.0
 40
1.0
 40
1.0
 40
1.0
 10
20.68963201156001
 20
120.48976804462
 30
0.0
 10
20.68963201156001
 20
120.2629604489599
 30
0.0
 10
20.67598970204
 20
120.09583901028
 30
0.0
 10
20.65229694272003
 20
119.99006844966
 30
0.0
  0
SPLINE
  5
23F
330
221
100
AcDbEntity
  8
03___PRT_ALL_CURVES
  6
Continuous
 62
     4
100
AcDbSpline
210
0.0
220
0.0
230
1.0
 70
     8
 71
     3
 72
     8
 73
     4
 74
     0
 42
0.0000001
 43
0.0000000001
 40
0.0
 40
0.0
 40
0.0
 40
0.0
 40
1.0
 40
1.0
 40
1.0
 40
1.0
 10
20.65229694272003
 20
119.99006844966
 30
0.0
 10
20.62824041984001
 20
119.8826739502
 30
0.0
 10
20.58901817926002
 20
119.80422920742
 30
0.0
 10
20.53785832222002
 20
119.7547748994199
 30
0.0
  0
SPLINE
  5
240
330
221
100
AcDbEntity
  8
03___PRT_ALL_CURVES
  6
Continuous
 62
     4
100
AcDbSpline
210
0.0
220
0.0
230
1.0
 70
     8
 71
     3
 72
     8
 73
     4
 74
     0
 42
0.0000001
 43
0.0000000001
 40
0.0
 40
0.0
 40
0.0
 40
0.0
 40
1.0
 40
1.0
 40
1.0
 40
1.0
 10
20.53785832222002
 20
119.7547748994199
 30
0.0
 10
20.48669846264002
 20
119.70532058888
 30
0.0
 10
20.42530687092002
 20
119.68144609764
 30
0.0
 10
20.35538942884003
 20
119.68144609764
 30
0.0
  0
SPLINE
  5
241
330
221
100
AcDbEntity
  8
03___PRT_ALL_CURVES
  6
Continuous
 62
     4
100
AcDbSpline
210
0.0
220
0.0
230
1.0
 70
     8
 71
     3
 72
     8
 73
     4
 74
     0
 42
0.0000001
 43
0.0000000001
 40
0.0
 40
0.0
 40
0.0
 40
0.0
 40
1.0
 40
1.0
 40
1.0
 40
1.0
 10
20.35538942884003
 20
119.68144609764
 30
0.0
 10
20.24795325052
 20
119.68144609764
 30
0.0
 10
20.16609819198001
 20
119.73942700022
 30
0.0
 10
20.10982257936001
 20
119.8553885717
 30
0.0
  0
SPLINE
  5
242
330
221
100
AcDbEntity
  8
03___PRT_ALL_CURVES
  6
Continuous
 62
     4
100
AcDbSpline
210
0.0
220
0.0
230
1.0
 70
     8
 71
     3
 72
     8
 73
     4
 74
     0
 42
0.0000001
 43
0.0000000001
 40
0.0
 40
0.0
 40
0.0
 40
0.0
 40
1.0
 40
1.0
 40
1.0
 40
1.0
 10
20.10982257936001
 20
119.8553885717
 30
0.0
 10
20.05354674068002
 20
119.9713506105399
 30
0.0
 10
20.02626211910001
 20
120.18963168528
 30
0.0
 10
20.02626211910001
 20
120.5085265948599
 30
0.0
  0
LINE
  5
243
330
221
100
AcDbEntity
  8
03___PRT_ALL_CURVES
  6
Continuous
 62
     4
100
AcDbLine
 10
22.61493833366001
 20
119.8161664530399
 30
0.0
 11
22.78076805788001
 21
119.96741929252
 31
0.0
  0
LINE
  5
244
330
221
100
AcDbEntity
  8
03___PRT_ALL_CURVES
  6
Continuous
 62
     4
100
AcDbLine
 10
22.78076805788001
 20
119.96741929252
 30
0.0
 11
23.06141154790004
 21
120.1713305001399
 31
0.0
  0
SPLINE
  5
245
330
221
100
AcDbEntity
  8
03___PRT_ALL_CURVES
  6
Continuous
 62
     4
100
AcDbSpline
210
0.0
220
0.0
230
1.0
 70
     8
 71
     3
 72
     8
 73
     4
 74
     0
 42
0.0000001
 43
0.0000000001
 40
0.0
 40
0.0
 40
0.0
 40
0.0
 40
1.0
 40
1.0
 40
1.0
 40
1.0
 10
23.06141154790004
 20
120.1713305001399
 30
0.0
 10
23.29706699988003
 20
120.33628921264
 30
0.0
 10
23.45907242390001
 20
120.48806275466
 30
0.0
 10
23.54813535982001
 20
120.62765154584
 30
0.0
  0
SPLINE
  5
246
330
221
100
AcDbEntity
  8
03___PRT_ALL_CURVES
  6
Continuous
 62
     4
100
AcDbSpline
210
0.0
220
0.0
230
1.0
 70
     8
 71
     3
 72
     8
 73
     4
 74
     0
 42
0.0000001
 43
0.0000000001
 40
0.0
 40
0.0
 40
0.0
 40
0.0
 40
1.0
 40
1.0
 40
1.0
 40
1.0
 10
23.54813535982001
 20
120.62765154584
 30
0.0
 10
23.63642604430001
 20
120.76602998384
 30
0.0
 10
23.68246944218004
 20
120.91098222124
 30
0.0
 10
23.68246944218004
 20
121.06446105322
 30
0.0
  0
SPLINE
  5
247
330
221
100
AcDbEntity
  8
03___PRT_ALL_CURVES
  6
Continuous
 62
     4
100
AcDbSpline
210
0.0
220
0.0
230
1.0
 70
     8
 71
     3
 72
     8
 73
     4
 74
     0
 42
0.0000001
 43
0.0000000001
 40
0.0
 40
0.0
 40
0.0
 40
0.0
 40
1.0
 40
1.0
 40
1.0
 40
1.0
 10
23.68246944218004
 20
121.06446105322
 30
0.0
 10
23.68246944218004
 20
121.20770800066
 30
0.0
 10
23.64324720160002
 20
121.33560705144
 30
0.0
 10
23.56480227594002
 20
121.45156863308
 30
0.0
  0
SPLINE
  5
248
330
221
100
AcDbEntity
  8
03___PRT_ALL_CURVES
  6
Continuous
 62
     4
100
AcDbSpline
210
0.0
220
0.0
230
1.0
 70
     8
 71
     3
 72
     8
 73
     4
 74
     0
 42
0.0000001
 43
0.0000000001
 40
0.0
 40
0.0
 40
0.0
 40
0.0
 40
1.0
 40
1.0
 40
1.0
 40
1.0
 10
23.56480227594002
 20
121.45156863308
 30
0.0
 10
23.48635704802001
 20
121.5675306617599
 30
0.0
 10
23.38062794274003
 20
121.65279674472
 30
0.0
 10
23.24390709858
 20
121.70833966386
 30
0.0
  0
SPLINE
  5
249
330
221
100
AcDbEntity
  8
03___PRT_ALL_CURVES
  6
Continuous
 62
     4
100
AcDbSpline
210
0.0
220
0.0
230
1.0
 70
     8
 71
     3
 72
     8
 73
     4
 74
     0
 42
0.0000001
 43
0.0000000001
 40
0.0
 40
0.0
 40
0.0
 40
0.0
 40
1.0
 40
1.0
 40
1.0
 40
1.0
 10
23.24390709858
 20
121.70833966386
 30
0.0
 10
23.10777695428004
 20
121.76364260888
 30
0.0
 10
22.91848571488001
 20
121.79263311732
 30
0.0
 10
22.67462523232001
 20
121.79263311732
 30
0.0
  0
SPLINE
  5
24A
330
221
100
AcDbEntity
  8
03___PRT_ALL_CURVES
  6
Continuous
 62
     4
100
AcDbSpline
210
0.0
220
0.0
230
1.0
 70
     8
 71
     3
 72
     8
 73
     4
 74
     0
 42
0.0000001
 43
0.0000000001
 40
0.0
 40
0.0
 40
0.0
 40
0.0
 40
1.0
 40
1.0
 40
1.0
 40
1.0
 10
22.67462523232001
 20
121.79263311732
 30
0.0
 10
22.43929059758
 20
121.79263311732
 30
0.0
 10
22.25682170674003
 20
121.76193732146
 30
0.0
 10
22.12380676068003
 20
121.7039563680799
 30
0.0
  0
SPLINE
  5
24B
330
221
100
AcDbEntity
  8
03___PRT_ALL_CURVES
  6
Continuous
 62
     4
100
AcDbSpline
210
0.0
220
0.0
230
1.0
 70
     8
 71
     3
 72
     8
 73
     4
 74
     0
 42
0.0000001
 43
0.0000000001
 40
0.0
 40
0.0
 40
0.0
 40
0.0
 40
1.0
 40
1.0
 40
1.0
 40
1.0
 10
22.12380676068003
 20
121.7039563680799
 30
0.0
 10
21.9907918705
 20
121.6459754401
 30
0.0
 10
21.88847215388003
 20
121.5607093571399
 30
0.0
 10
21.81625800570004
 20
121.4519635802199
 30
0.0
  0
SPLINE
  5
24C
330
221
100
AcDbEntity
  8
03___PRT_ALL_CURVES
  6
Continuous
 62
     4
100
AcDbSpline
210
0.0
220
0.0
230
1.0
 70
     8
 71
     3
 72
     8
 73
     4
 74
     0
 42
0.0000001
 43
0.0000000001
 40
0.0
 40
0.0
 40
0.0
 40
0.0
 40
1.0
 40
1.0
 40
1.0
 40
1.0
 10
21.81625800570004
 20
121.4519635802199
 30
0.0
 10
21.74351961676004
 20
121.34242835606
 30
0.0
 10
21.69406564403999
 20
121.18894952662
 30
0.0
 10
21.66678102246001
 20
120.9945430167799
 30
0.0
  0
SPLINE
  5
24D
330
221
100
AcDbEntity
  8
03___PRT_ALL_CURVES
  6
Continuous
 62
     4
100
AcDbSpline
210
0.0
220
0.0
230
1.0
 70
     8
 71
     3
 72
     8
 73
     4
 74
     0
 42
0.0000001
 43
0.0000000001
 40
0.0
 40
0.0
 40
0.0
 40
0.0
 40
1.0
 40
1.0
 40
1.0
 40
1.0
 10
22.36255080948001
 20
120.93826743972
 30
0.0
 10
22.38130958324004
 20
121.0781036624599
 30
0.0
 10
22.41882713076004
 20
121.1770122047999
 30
0.0
 10
22.47552722056
 20
121.2328530710199
 30
0.0
  0
SPLINE
  5
24E
330
221
100
AcDbEntity
  8
03___PRT_ALL_CURVES
  6
Continuous
 62
     4
100
AcDbSpline
210
0.0
220
0.0
230
1.0
 70
     8
 71
     3
 72
     8
 73
     4
 74
     0
 42
0.0000001
 43
0.0000000001
 40
0.0
 40
0.0
 40
0.0
 40
0.0
 40
1.0
 40
1.0
 40
1.0
 40
1.0
 10
22.47552722056
 20
121.2328530710199
 30
0.0
 10
22.53137858206
 20
121.2878580689599
 30
0.0
 10
22.60470659898002
 20
121.3168485774
 30
0.0
 10
22.69338400608001
 20
121.3168485774
 30
0.0
  0
SPLINE
  5
24F
330
221
100
AcDbEntity
  8
03___PRT_ALL_CURVES
  6
Continuous
 62
     4
100
AcDbSpline
210
0.0
220
0.0
230
1.0
 70
     8
 71
     3
 72
     8
 73
     4
 74
     0
 42
0.0000001
 43
0.0000000001
 40
0.0
 40
0.0
 40
0.0
 40
0.0
 40
1.0
 40
1.0
 40
1.0
 40
1.0
 10
22.69338400608001
 20
121.3168485774
 30
0.0
 10
22.778649642
 20
121.3168485774
 30
0.0
 10
22.84856827534003
 20
121.28956350624
 30
0.0
 10
22.90484340282001
 20
121.23499321914
 30
0.0
  0
SPLINE
  5
250
330
221
100
AcDbEntity
  8
03___PRT_ALL_CURVES
  6
Continuous
 62
     4
100
AcDbSpline
210
0.0
220
0.0
230
1.0
 70
     8
 71
     3
 72
     8
 73
     4
 74
     0
 42
0.0000001
 43
0.0000000001
 40
0.0
 40
0.0
 40
0.0
 40
0.0
 40
1.0
 40
1.0
 40
1.0
 40
1.0
 10
22.90484340282001
 20
121.23499321914
 30
0.0
 10
22.96111853284003
 20
121.18042293204
 30
0.0
 10
22.99010904128002
 20
121.11562076294
 30
0.0
 10
22.99010904128002
 20
121.0405865619799
 30
0.0
  0
SPLINE
  5
251
330
221
100
AcDbEntity
  8
03___PRT_ALL_CURVES
  6
Continuous
 62
     4
100
AcDbSpline
210
0.0
220
0.0
230
1.0
 70
     8
 71
     3
 72
     8
 73
     4
 74
     0
 42
0.0000001
 43
0.0000000001
 40
0.0
 40
0.0
 40
0.0
 40
0.0
 40
1.0
 40
1.0
 40
1.0
 40
1.0
 10
22.99010904128002
 20
121.0405865619799
 30
0.0
 10
22.99010904128002
 20
120.9689632355799
 30
0.0
 10
22.96111853284003
 20
120.89563432458
 30
0.0
 10
22.90428752636001
 20
120.8175975312
 30
0.0
  0
SPLINE
  5
252
330
221
100
AcDbEntity
  8
03___PRT_ALL_CURVES
  6
Continuous
 62
     4
100
AcDbSpline
210
0.0
220
0.0
230
1.0
 70
     8
 71
     3
 72
     8
 73
     4
 74
     0
 42
0.0000001
 43
0.0000000001
 40
0.0
 40
0.0
 40
0.0
 40
0.0
 40
1.0
 40
1.0
 40
1.0
 40
1.0
 10
22.90428752636001
 20
120.8175975312
 30
0.0
 10
22.84686238848002
 20
120.7387449152199
 30
0.0
 10
22.71725805028004
 20
120.6227830364
 30
0.0
 10
22.51434275380004
 20
120.4726901793599
 30
0.0
  0
SPLINE
  5
253
330
221
100
AcDbEntity
  8
03___PRT_ALL_CURVES
  6
Continuous
 62
     4
100
AcDbSpline
210
0.0
220
0.0
230
1.0
 70
     8
 71
     3
 72
     8
 73
     4
 74
     0
 42
0.0000001
 43
0.0000000001
 40
0.0
 40
0.0
 40
0.0
 40
0.0
 40
1.0
 40
1.0
 40
1.0
 40
1.0
 10
22.51434275380004
 20
120.4726901793599
 30
0.0
 10
22.18008191863998
 20
120.22544334848
 30
0.0
 10
21.95327432298001
 20
120.01057300098
 30
0.0
 10
21.83219660476001
 20
119.8298092705599
 30
0.0
  0
SPLINE
  5
254
330
221
100
AcDbEntity
  8
03___PRT_ALL_CURVES
  6
Continuous
 62
     4
100
AcDbSpline
210
0.0
220
0.0
230
1.0
 70
     8
 71
     3
 72
     8
 73
     4
 74
     0
 42
0.0000001
 43
0.0000000001
 40
0.0
 40
0.0
 40
0.0
 40
0.0
 40
1.0
 40
1.0
 40
1.0
 40
1.0
 10
21.83219660476001
 20
119.8298092705599
 30
0.0
 10
21.71111853348
 20
119.64904501436
 30
0.0
 10
21.63949520707999
 20
119.4546384664199
 30
0.0
 10
21.61562116288002
 20
119.2500000009199
 30
0.0
  0
SPLINE
  5
255
330
221
100
AcDbEntity
  8
03___PRT_ALL_CURVES
  6
Continuous
 62
     4
100
AcDbSpline
210
0.0
220
0.0
230
1.0
 70
     8
 71
     3
 72
     8
 73
     4
 74
     0
 42
0.0000001
 43
0.0000000001
 40
0.0
 40
0.0
 40
0.0
 40
0.0
 40
1.0
 40
1.0
 40
1.0
 40
1.0
 10
26.25729197604002
 20
65.94113231864
 30
0.0
 10
26.24092084546001
 20
65.86500682953996
 30
0.0
 10
26.21390856776003
 20
65.80688951117997
 30
0.0
 10
26.17809635846001
 20
65.76741465743996
 30
0.0
  0
SPLINE
  5
256
330
221
100
AcDbEntity
  8
03___PRT_ALL_CURVES
  6
Continuous
 62
     4
100
AcDbSpline
210
0.0
220
0.0
230
1.0
 70
     8
 71
     3
 72
     8
 73
     4
 74
     0
 42
0.0000001
 43
0.0000000001
 40
0.0
 40
0.0
 40
0.0
 40
0.0
 40
1.0
 40
1.0
 40
1.0
 40
1.0
 10
26.17809635846001
 20
65.76741465743996
 30
0.0
 10
26.14187587718004
 20
65.72748977665998
 30
0.0
 10
26.08785132432001
 20
65.70784447177996
 30
0.0
 10
26.01745564088
 20
65.70784447177996
 30
0.0
  0
SPLINE
  5
257
330
221
100
AcDbEntity
  8
03___PRT_ALL_CURVES
  6
Continuous
 62
     4
100
AcDbSpline
210
0.0
220
0.0
230
1.0
 70
     8
 71
     3
 72
     8
 73
     4
 74
     0
 42
0.0000001
 43
0.0000000001
 40
0.0
 40
0.0
 40
0.0
 40
0.0
 40
1.0
 40
1.0
 40
1.0
 40
1.0
 10
26.01745564088
 20
65.70784447177996
 30
0.0
 10
25.94378580092001
 20
65.70784447177996
 30
0.0
 10
25.88730559638
 20
65.73240109779996
 30
0.0
 10
25.84695343426003
 20
65.78131281099999
 30
0.0
  0
SPLINE
  5
258
330
221
100
AcDbEntity
  8
03___PRT_ALL_CURVES
  6
Continuous
 62
     4
100
AcDbSpline
210
0.0
220
0.0
230
1.0
 70
     8
 71
     3
 72
     8
 73
     4
 74
     0
 42
0.0000001
 43
0.0000000001
 40
0.0
 40
0.0
 40
0.0
 40
0.0
 40
1.0
 40
1.0
 40
1.0
 40
1.0
 10
25.84695343426003
 20
65.78131281099999
 30
0.0
 10
25.80626876582002
 20
65.83062756123996
 30
0.0
 10
25.78662348126002
 20
65.92230560749996
 30
0.0
 10
25.78662348126002
 20
66.05491130367997
 30
0.0
  0
SPLINE
  5
259
330
221
100
AcDbEntity
  8
03___PRT_ALL_CURVES
  6
Continuous
 62
     4
100
AcDbSpline
210
0.0
220
0.0
230
1.0
 70
     8
 71
     3
 72
     8
 73
     4
 74
     0
 42
0.0000001
 43
0.0000000001
 40
0.0
 40
0.0
 40
0.0
 40
0.0
 40
1.0
 40
1.0
 40
1.0
 40
1.0
 10
25.78662348126002
 20
66.05491130367997
 30
0.0
 10
25.78662348126002
 20
66.16214187153997
 30
0.0
 10
25.80299454072002
 20
66.24072308597997
 30
0.0
 10
25.83699530330003
 20
66.29172420825998
 30
0.0
  0
SPLINE
  5
25A
330
221
100
AcDbEntity
  8
03___PRT_ALL_CURVES
  6
Continuous
 62
     4
100
AcDbSpline
210
0.0
220
0.0
230
1.0
 70
     8
 71
     3
 72
     8
 73
     4
 74
     0
 42
0.0000001
 43
0.0000000001
 40
0.0
 40
0.0
 40
0.0
 40
0.0
 40
1.0
 40
1.0
 40
1.0
 40
1.0
 10
25.83699530330003
 20
66.29172420825998
 30
0.0
 10
25.88157571960002
 20
66.35859479841997
 30
0.0
 10
25.94624148815998
 20
66.39297406671997
 30
0.0
 10
26.03055254382002
 20
66.39297406671997
 30
0.0
  0
SPLINE
  5
25B
330
221
100
AcDbEntity
  8
03___PRT_ALL_CURVES
  6
Continuous
 62
     4
100
AcDbSpline
210
0.0
220
0.0
230
1.0
 70
     8
 71
     3
 72
     8
 73
     4
 74
     0
 42
0.0000001
 43
0.0000000001
 40
0.0
 40
0.0
 40
0.0
 40
0.0
 40
1.0
 40
1.0
 40
1.0
 40
1.0
 10
26.03055254382002
 20
66.39297406671997
 30
0.0
 10
26.06738742824001
 20
66.39297406671997
 30
0.0
 10
26.10094815868004
 20
66.38478853825998
 30
0.0
 10
26.13098192132003
 20
66.36956594995996
 30
0.0
  0
SPLINE
  5
25C
330
221
100
AcDbEntity
  8
03___PRT_ALL_CURVES
  6
Continuous
 62
     4
100
AcDbSpline
210
0.0
220
0.0
230
1.0
 70
     8
 71
     3
 72
     8
 73
     4
 74
     0
 42
0.0000001
 43
0.0000000001
 40
0.0
 40
0.0
 40
0.0
 40
0.0
 40
1.0
 40
1.0
 40
1.0
 40
1.0
 10
26.13098192132003
 20
66.36956594995996
 30
0.0
 10
26.16070262388001
 20
66.35450203546
 30
0.0
 10
26.18607775220002
 20
66.33240106111995
 30
0.0
 10
26.20701317134004
 20
66.30431701009996
 30
0.0
  0
SPLINE
  5
25D
330
221
100
AcDbEntity
  8
03___PRT_ALL_CURVES
  6
Continuous
 62
     4
100
AcDbSpline
210
0.0
220
0.0
230
1.0
 70
     8
 71
     3
 72
     8
 73
     4
 74
     0
 42
0.0000001
 43
0.0000000001
 40
0.0
 40
0.0
 40
0.0
 40
0.0
 40
1.0
 40
1.0
 40
1.0
 40
1.0
 10
26.20701317134004
 20
66.30431701009996
 30
0.0
 10
26.21963848263999
 20
66.28738064823997
 30
0.0
 10
26.2319167766
 20
66.26036837054
 30
0.0
 10
26.24337653270001
 20
66.22435195539998
 30
0.0
  0
SPLINE
  5
25E
330
221
100
AcDbEntity
  8
03___PRT_ALL_CURVES
  6
Continuous
 62
     4
100
AcDbSpline
210
0.0
220
0.0
230
1.0
 70
     8
 71
     3
 72
     8
 73
     4
 74
     0
 42
0.0000001
 43
0.0000000001
 40
0.0
 40
0.0
 40
0.0
 40
0.0
 40
1.0
 40
1.0
 40
1.0
 40
1.0
 10
26.57079814861999
 20
66.29720325496001
 30
0.0
 10
26.52823328074004
 20
66.42326056951998
 30
0.0
 10
26.4643860475
 20
66.51739430556
 30
0.0
 10
26.37742727552001
 20
66.57851153155994
 30
0.0
  0
SPLINE
  5
25F
330
221
100
AcDbEntity
  8
03___PRT_ALL_CURVES
  6
Continuous
 62
     4
100
AcDbSpline
210
0.0
220
0.0
230
1.0
 70
     8
 71
     3
 72
     8
 73
     4
 74
     0
 42
0.0000001
 43
0.0000000001
 40
0.0
 40
0.0
 40
0.0
 40
0.0
 40
1.0
 40
1.0
 40
1.0
 40
1.0
 10
26.37742727552001
 20
66.57851153155994
 30
0.0
 10
26.29085263282002
 20
66.63935878349994
 30
0.0
 10
26.17216237998002
 20
66.67046389527994
 30
0.0
 10
26.02154840384003
 20
66.67046389527994
 30
0.0
  0
SPLINE
  5
260
330
221
100
AcDbEntity
  8
03___PRT_ALL_CURVES
  6
Continuous
 62
     4
100
AcDbSpline
210
0.0
220
0.0
230
1.0
 70
     8
 71
     3
 72
     8
 73
     4
 74
     0
 42
0.0000001
 43
0.0000000001
 40
0.0
 40
0.0
 40
0.0
 40
0.0
 40
1.0
 40
1.0
 40
1.0
 40
1.0
 10
26.02154840384003
 20
66.67046389527994
 30
0.0
 10
25.82836970460002
 20
66.67046389527994
 30
0.0
 10
25.67857433744001
 20
66.61643927129995
 30
0.0
 10
25.57298091388003
 20
66.51002729971995
 30
0.0
  0
SPLINE
  5
261
330
221
100
AcDbEntity
  8
03___PRT_ALL_CURVES
  6
Continuous
 62
     4
100
AcDbSpline
210
0.0
220
0.0
230
1.0
 70
     8
 71
     3
 72
     8
 73
     4
 74
     0
 42
0.0000001
 43
0.0000000001
 40
0.0
 40
0.0
 40
0.0
 40
0.0
 40
1.0
 40
1.0
 40
1.0
 40
1.0
 10
25.57298091388003
 20
66.51002729971995
 30
0.0
 10
25.46738744714
 20
66.40361528495995
 30
0.0
 10
25.41499999794001
 20
66.25136423055997
 30
0.0
 10
25.41499999794001
 20
66.05245568755996
 30
0.0
  0
SPLINE
  5
262
330
221
100
AcDbEntity
  8
03___PRT_ALL_CURVES
  6
Continuous
 62
     4
100
AcDbSpline
210
0.0
220
0.0
230
1.0
 70
     8
 71
     3
 72
     8
 73
     4
 74
     0
 42
0.0000001
 43
0.0000000001
 40
0.0
 40
0.0
 40
0.0
 40
0.0
 40
1.0
 40
1.0
 40
1.0
 40
1.0
 10
25.41499999794001
 20
66.05245568755996
 30
0.0
 10
25.41499999794001
 20
65.90347886079999
 30
0.0
 10
25.44446793494001
 20
65.78151431173995
 30
0.0
 10
25.50493282798001
 20
65.68567540511995
 30
0.0
  0
SPLINE
  5
263
330
221
100
AcDbEntity
  8
03___PRT_ALL_CURVES
  6
Continuous
 62
     4
100
AcDbSpline
210
0.0
220
0.0
230
1.0
 70
     8
 71
     3
 72
     8
 73
     4
 74
     0
 42
0.0000001
 43
0.0000000001
 40
0.0
 40
0.0
 40
0.0
 40
0.0
 40
1.0
 40
1.0
 40
1.0
 40
1.0
 10
25.50493282798001
 20
65.68567540511995
 30
0.0
 10
25.56479535494
 20
65.59079127179996
 30
0.0
 10
25.63600954068005
 20
65.52366984901997
 30
0.0
 10
25.71883605270003
 20
65.48635691627999
 30
0.0
  0
SPLINE
  5
264
330
221
100
AcDbEntity
  8
03___PRT_ALL_CURVES
  6
Continuous
 62
     4
100
AcDbSpline
210
0.0
220
0.0
230
1.0
 70
     8
 71
     3
 72
     8
 73
     4
 74
     0
 42
0.0000001
 43
0.0000000001
 40
0.0
 40
0.0
 40
0.0
 40
0.0
 40
1.0
 40
1.0
 40
1.0
 40
1.0
 10
25.71883605270003
 20
65.48635691627999
 30
0.0
 10
25.80135742690001
 20
65.44918144579995
 30
0.0
 10
25.90776945690001
 20
65.42953615361998
 30
0.0
 10
26.03873807482003
 20
65.42953615361998
 30
0.0
  0
SPLINE
  5
265
330
221
100
AcDbEntity
  8
03___PRT_ALL_CURVES
  6
Continuous
 62
     4
100
AcDbSpline
210
0.0
220
0.0
230
1.0
 70
     8
 71
     3
 72
     8
 73
     4
 74
     0
 42
0.0000001
 43
0.0000000001
 40
0.0
 40
0.0
 40
0.0
 40
0.0
 40
1.0
 40
1.0
 40
1.0
 40
1.0
 10
26.03873807482003
 20
65.42953615361998
 30
0.0
 10
26.14596864268003
 20
65.42953615361998
 30
0.0
 10
26.23437246384
 20
65.44508867776
 30
0.0
 10
26.30394953830003
 20
65.47619372349996
 30
0.0
  0
SPLINE
  5
266
330
221
100
AcDbEntity
  8
03___PRT_ALL_CURVES
  6
Continuous
 62
     4
100
AcDbSpline
210
0.0
220
0.0
230
1.0
 70
     8
 71
     3
 72
     8
 73
     4
 74
     0
 42
0.0000001
 43
0.0000000001
 40
0.0
 40
0.0
 40
0.0
 40
0.0
 40
1.0
 40
1.0
 40
1.0
 40
1.0
 10
26.30394953830003
 20
65.47619372349996
 30
0.0
 10
26.37352661276003
 20
65.50729877177994
 30
0.0
 10
26.43164393111999
 20
65.55313779363993
 30
0.0
 10
26.47906148424002
 20
65.61457447289999
 30
0.0
  0
SPLINE
  5
267
330
221
100
AcDbEntity
  8
03___PRT_ALL_CURVES
  6
Continuous
 62
     4
100
AcDbSpline
210
0.0
220
0.0
230
1.0
 70
     8
 71
     3
 72
     8
 73
     4
 74
     0
 42
0.0000001
 43
0.0000000001
 40
0.0
 40
0.0
 40
0.0
 40
0.0
 40
1.0
 40
1.0
 40
1.0
 40
1.0
 10
26.47906148424002
 20
65.61457447289999
 30
0.0
 10
26.52577759350001
 20
65.67510231729997
 30
0.0
 10
26.56015686180001
 20
65.7512278445
 30
0.0
 10
26.58225783360001
 20
65.84290585519997
 30
0.0
  0
SPLINE
  5
268
330
221
100
AcDbEntity
  8
03___PRT_ALL_CURVES
  6
Continuous
 62
     4
100
AcDbSpline
210
0.0
220
0.0
230
1.0
 70
     8
 71
     3
 72
     8
 73
     4
 74
     0
 42
0.0000001
 43
0.0000000001
 40
0.0
 40
0.0
 40
0.0
 40
0.0
 40
1.0
 40
1.0
 40
1.0
 40
1.0
 10
29.8883970176
 20
66.67046389527994
 30
0.0
 10
29.85238074470004
 20
66.59515690847996
 30
0.0
 10
29.80326727930003
 20
66.53130967777994
 30
0.0
 10
29.74109390860002
 20
66.48051444535997
 30
0.0
  0
SPLINE
  5
269
330
221
100
AcDbEntity
  8
03___PRT_ALL_CURVES
  6
Continuous
 62
     4
100
AcDbSpline
210
0.0
220
0.0
230
1.0
 70
     8
 71
     3
 72
     8
 73
     4
 74
     0
 42
0.0000001
 43
0.0000000001
 40
0.0
 40
0.0
 40
0.0
 40
0.0
 40
1.0
 40
1.0
 40
1.0
 40
1.0
 10
29.74109390860002
 20
66.48051444535997
 30
0.0
 10
29.67802857372001
 20
66.42899048439998
 30
0.0
 10
29.58962496846001
 20
66.38478853825998
 30
0.0
 10
29.47666434348
 20
66.34877219169996
 30
0.0
  0
SPLINE
  5
26A
330
221
100
AcDbEntity
  8
03___PRT_ALL_CURVES
  6
Continuous
 62
     4
100
AcDbSpline
210
0.0
220
0.0
230
1.0
 70
     8
 71
     3
 72
     8
 73
     4
 74
     0
 42
0.0000001
 43
0.0000000001
 40
0.0
 40
0.0
 40
0.0
 40
0.0
 40
1.0
 40
1.0
 40
1.0
 40
1.0
 10
29.47666434348
 20
66.07537519975997
 30
0.0
 10
29.55360840854001
 20
66.09829471195997
 30
0.0
 10
29.61745556811999
 20
66.12285129987995
 30
0.0
 10
29.66837032278002
 20
66.14871923646001
 30
0.0
  0
SPLINE
  5
26B
330
221
100
AcDbEntity
  8
03___PRT_ALL_CURVES
  6
Continuous
 62
     4
100
AcDbSpline
210
0.0
220
0.0
230
1.0
 70
     8
 71
     3
 72
     8
 73
     4
 74
     0
 42
0.0000001
 43
0.0000000001
 40
0.0
 40
0.0
 40
0.0
 40
0.0
 40
1.0
 40
1.0
 40
1.0
 40
1.0
 10
29.66837032278002
 20
66.14871923646001
 30
0.0
 10
29.71895636588002
 20
66.17442016549998
 30
0.0
 10
29.77216223863999
 20
66.20798089593998
 30
0.0
 10
29.82700547159999
 20
66.24972715483995
 30
0.0
  0
SPLINE
  5
26C
330
221
100
AcDbEntity
  8
03___PRT_ALL_CURVES
  6
Continuous
 62
     4
100
AcDbSpline
210
0.0
220
0.0
230
1.0
 70
     8
 71
     3
 72
     8
 73
     4
 74
     0
 42
0.0000001
 43
0.0000000001
 40
0.0
 40
0.0
 40
0.0
 40
0.0
 40
1.0
 40
1.0
 40
1.0
 40
1.0
 10
26.25729197604002
 20
28.94113232081995
 30
0.0
 10
26.24092084546001
 20
28.86500682917998
 30
0.0
 10
26.21390856776003
 20
28.80688951081993
 30
0.0
 10
26.17809635846001
 20
28.76741465707997
 30
0.0
  0
SPLINE
  5
26D
330
221
100
AcDbEntity
  8
03___PRT_ALL_CURVES
  6
Continuous
 62
     4
100
AcDbSpline
210
0.0
220
0.0
230
1.0
 70
     8
 71
     3
 72
     8
 73
     4
 74
     0
 42
0.0000001
 43
0.0000000001
 40
0.0
 40
0.0
 40
0.0
 40
0.0
 40
1.0
 40
1.0
 40
1.0
 40
1.0
 10
26.17809635846001
 20
28.76741465707997
 30
0.0
 10
26.14187587718004
 20
28.72748977629996
 30
0.0
 10
26.08785132432001
 20
28.70784447141997
 30
0.0
 10
26.01745564088
 20
28.70784447141997
 30
0.0
  0
SPLINE
  5
26E
330
221
100
AcDbEntity
  8
03___PRT_ALL_CURVES
  6
Continuous
 62
     4
100
AcDbSpline
210
0.0
220
0.0
230
1.0
 70
     8
 71
     3
 72
     8
 73
     4
 74
     0
 42
0.0000001
 43
0.0000000001
 40
0.0
 40
0.0
 40
0.0
 40
0.0
 40
1.0
 40
1.0
 40
1.0
 40
1.0
 10
26.01745564088
 20
28.70784447141997
 30
0.0
 10
25.94378580092001
 20
28.70784447141997
 30
0.0
 10
25.88730559638
 20
28.73240109743998
 30
0.0
 10
25.84695343426003
 20
28.78131281063995
 30
0.0
  0
SPLINE
  5
26F
330
221
100
AcDbEntity
  8
03___PRT_ALL_CURVES
  6
Continuous
 62
     4
100
AcDbSpline
210
0.0
220
0.0
230
1.0
 70
     8
 71
     3
 72
     8
 73
     4
 74
     0
 42
0.0000001
 43
0.0000000001
 40
0.0
 40
0.0
 40
0.0
 40
0.0
 40
1.0
 40
1.0
 40
1.0
 40
1.0
 10
25.84695343426003
 20
28.78131281063995
 30
0.0
 10
25.80626876582002
 20
28.83062756087998
 30
0.0
 10
25.78662348126002
 20
28.92230560967997
 30
0.0
 10
25.78662348126002
 20
29.05491130331995
 30
0.0
  0
SPLINE
  5
270
330
221
100
AcDbEntity
  8
03___PRT_ALL_CURVES
  6
Continuous
 62
     4
100
AcDbSpline
210
0.0
220
0.0
230
1.0
 70
     8
 71
     3
 72
     8
 73
     4
 74
     0
 42
0.0000001
 43
0.0000000001
 40
0.0
 40
0.0
 40
0.0
 40
0.0
 40
1.0
 40
1.0
 40
1.0
 40
1.0
 10
25.78662348126002
 20
29.05491130331995
 30
0.0
 10
25.78662348126002
 20
29.16214187117995
 30
0.0
 10
25.80299454072002
 20
29.24072308561998
 30
0.0
 10
25.83699530330003
 20
29.29172420789999
 30
0.0
  0
SPLINE
  5
271
330
221
100
AcDbEntity
  8
03___PRT_ALL_CURVES
  6
Continuous
 62
     4
100
AcDbSpline
210
0.0
220
0.0
230
1.0
 70
     8
 71
     3
 72
     8
 73
     4
 74
     0
 42
0.0000001
 43
0.0000000001
 40
0.0
 40
0.0
 40
0.0
 40
0.0
 40
1.0
 40
1.0
 40
1.0
 40
1.0
 10
25.83699530330003
 20
29.29172420789999
 30
0.0
 10
25.88157571960002
 20
29.35859480059997
 30
0.0
 10
25.94624148815998
 20
29.39297406635998
 30
0.0
 10
26.03055254382002
 20
29.39297406635998
 30
0.0
  0
SPLINE
  5
272
330
221
100
AcDbEntity
  8
03___PRT_ALL_CURVES
  6
Continuous
 62
     4
100
AcDbSpline
210
0.0
220
0.0
230
1.0
 70
     8
 71
     3
 72
     8
 73
     4
 74
     0
 42
0.0000001
 43
0.0000000001
 40
0.0
 40
0.0
 40
0.0
 40
0.0
 40
1.0
 40
1.0
 40
1.0
 40
1.0
 10
26.03055254382002
 20
29.39297406635998
 30
0.0
 10
26.06738742824001
 20
29.39297406635998
 30
0.0
 10
26.10094815868004
 20
29.38478853789999
 30
0.0
 10
26.13098192132003
 20
29.36956594959997
 30
0.0
  0
SPLINE
  5
273
330
221
100
AcDbEntity
  8
03___PRT_ALL_CURVES
  6
Continuous
 62
     4
100
AcDbSpline
210
0.0
220
0.0
230
1.0
 70
     8
 71
     3
 72
     8
 73
     4
 74
     0
 42
0.0000001
 43
0.0000000001
 40
0.0
 40
0.0
 40
0.0
 40
0.0
 40
1.0
 40
1.0
 40
1.0
 40
1.0
 10
26.13098192132003
 20
29.36956594959997
 30
0.0
 10
26.16070262388001
 20
29.35450203509996
 30
0.0
 10
26.18607775220002
 20
29.33240106075996
 30
0.0
 10
26.20701317134004
 20
29.30431700973998
 30
0.0
  0
SPLINE
  5
274
330
221
100
AcDbEntity
  8
03___PRT_ALL_CURVES
  6
Continuous
 62
     4
100
AcDbSpline
210
0.0
220
0.0
230
1.0
 70
     8
 71
     3
 72
     8
 73
     4
 74
     0
 42
0.0000001
 43
0.0000000001
 40
0.0
 40
0.0
 40
0.0
 40
0.0
 40
1.0
 40
1.0
 40
1.0
 40
1.0
 10
26.20701317134004
 20
29.30431700973998
 30
0.0
 10
26.21963848263999
 20
29.28738064787998
 30
0.0
 10
26.2319167766
 20
29.26036837271997
 30
0.0
 10
26.24337653270001
 20
29.22435195503996
 30
0.0
  0
SPLINE
  5
275
330
221
100
AcDbEntity
  8
03___PRT_ALL_CURVES
  6
Continuous
 62
     4
100
AcDbSpline
210
0.0
220
0.0
230
1.0
 70
     8
 71
     3
 72
     8
 73
     4
 74
     0
 42
0.0000001
 43
0.0000000001
 40
0.0
 40
0.0
 40
0.0
 40
0.0
 40
1.0
 40
1.0
 40
1.0
 40
1.0
 10
26.57079814861999
 20
29.29720325459996
 30
0.0
 10
26.52823328074004
 20
29.42326056915996
 30
0.0
 10
26.4643860475
 20
29.51739430519996
 30
0.0
 10
26.37742727552001
 20
29.57851153373997
 30
0.0
  0
SPLINE
  5
276
330
221
100
AcDbEntity
  8
03___PRT_ALL_CURVES
  6
Continuous
 62
     4
100
AcDbSpline
210
0.0
220
0.0
230
1.0
 70
     8
 71
     3
 72
     8
 73
     4
 74
     0
 42
0.0000001
 43
0.0000000001
 40
0.0
 40
0.0
 40
0.0
 40
0.0
 40
1.0
 40
1.0
 40
1.0
 40
1.0
 10
26.37742727552001
 20
29.57851153373997
 30
0.0
 10
26.29085263282002
 20
29.63935878313998
 30
0.0
 10
26.17216237998002
 20
29.67046389745997
 30
0.0
 10
26.02154840384003
 20
29.67046389745997
 30
0.0
  0
SPLINE
  5
277
330
221
100
AcDbEntity
  8
03___PRT_ALL_CURVES
  6
Continuous
 62
     4
100
AcDbSpline
210
0.0
220
0.0
230
1.0
 70
     8
 71
     3
 72
     8
 73
     4
 74
     0
 42
0.0000001
 43
0.0000000001
 40
0.0
 40
0.0
 40
0.0
 40
0.0
 40
1.0
 40
1.0
 40
1.0
 40
1.0
 10
26.02154840384003
 20
29.67046389745997
 30
0.0
 10
25.82836970460002
 20
29.67046389745997
 30
0.0
 10
25.67857433744001
 20
29.61643927093996
 30
0.0
 10
25.57298091388003
 20
29.51002729935996
 30
0.0
  0
SPLINE
  5
278
330
221
100
AcDbEntity
  8
03___PRT_ALL_CURVES
  6
Continuous
 62
     4
100
AcDbSpline
210
0.0
220
0.0
230
1.0
 70
     8
 71
     3
 72
     8
 73
     4
 74
     0
 42
0.0000001
 43
0.0000000001
 40
0.0
 40
0.0
 40
0.0
 40
0.0
 40
1.0
 40
1.0
 40
1.0
 40
1.0
 10
25.57298091388003
 20
29.51002729935996
 30
0.0
 10
25.46738744714
 20
29.40361528459997
 30
0.0
 10
25.41499999794001
 20
29.25136423273997
 30
0.0
 10
25.41499999794001
 20
29.05245568719999
 30
0.0
  0
SPLINE
  5
279
330
221
100
AcDbEntity
  8
03___PRT_ALL_CURVES
  6
Continuous
 62
     4
100
AcDbSpline
210
0.0
220
0.0
230
1.0
 70
     8
 71
     3
 72
     8
 73
     4
 74
     0
 42
0.0000001
 43
0.0000000001
 40
0.0
 40
0.0
 40
0.0
 40
0.0
 40
1.0
 40
1.0
 40
1.0
 40
1.0
 10
25.41499999794001
 20
29.05245568719999
 30
0.0
 10
25.41499999794001
 20
28.90347886044
 30
0.0
 10
25.44446793494001
 20
28.78151431137996
 30
0.0
 10
25.50493282798001
 20
28.68567540475999
 30
0.0
  0
SPLINE
  5
27A
330
221
100
AcDbEntity
  8
03___PRT_ALL_CURVES
  6
Continuous
 62
     4
100
AcDbSpline
210
0.0
220
0.0
230
1.0
 70
     8
 71
     3
 72
     8
 73
     4
 74
     0
 42
0.0000001
 43
0.0000000001
 40
0.0
 40
0.0
 40
0.0
 40
0.0
 40
1.0
 40
1.0
 40
1.0
 40
1.0
 10
25.50493282798001
 20
28.68567540475999
 30
0.0
 10
25.56479535494
 20
28.59079127143997
 30
0.0
 10
25.63600954068005
 20
28.52366984865998
 30
0.0
 10
25.71883605270003
 20
28.48635691592
 30
0.0
  0
SPLINE
  5
27B
330
221
100
AcDbEntity
  8
03___PRT_ALL_CURVES
  6
Continuous
 62
     4
100
AcDbSpline
210
0.0
220
0.0
230
1.0
 70
     8
 71
     3
 72
     8
 73
     4
 74
     0
 42
0.0000001
 43
0.0000000001
 40
0.0
 40
0.0
 40
0.0
 40
0.0
 40
1.0
 40
1.0
 40
1.0
 40
1.0
 10
25.71883605270003
 20
28.48635691592
 30
0.0
 10
25.80135742690001
 20
28.44918144797998
 30
0.0
 10
25.90776945690001
 20
28.42953615325999
 30
0.0
 10
26.03873807482003
 20
28.42953615325999
 30
0.0
  0
SPLINE
  5
27C
330
221
100
AcDbEntity
  8
03___PRT_ALL_CURVES
  6
Continuous
 62
     4
100
AcDbSpline
210
0.0
220
0.0
230
1.0
 70
     8
 71
     3
 72
     8
 73
     4
 74
     0
 42
0.0000001
 43
0.0000000001
 40
0.0
 40
0.0
 40
0.0
 40
0.0
 40
1.0
 40
1.0
 40
1.0
 40
1.0
 10
26.03873807482003
 20
28.42953615325999
 30
0.0
 10
26.14596864268003
 20
28.42953615325999
 30
0.0
 10
26.23437246384
 20
28.44508867740001
 30
0.0
 10
26.30394953830003
 20
28.47619372567999
 30
0.0
  0
SPLINE
  5
27D
330
221
100
AcDbEntity
  8
03___PRT_ALL_CURVES
  6
Continuous
 62
     4
100
AcDbSpline
210
0.0
220
0.0
230
1.0
 70
     8
 71
     3
 72
     8
 73
     4
 74
     0
 42
0.0000001
 43
0.0000000001
 40
0.0
 40
0.0
 40
0.0
 40
0.0
 40
1.0
 40
1.0
 40
1.0
 40
1.0
 10
26.30394953830003
 20
28.47619372567999
 30
0.0
 10
26.37352661276003
 20
28.50729877141995
 30
0.0
 10
26.43164393111999
 20
28.55313779581996
 30
0.0
 10
26.47906148424002
 20
28.61457447253997
 30
0.0
  0
SPLINE
  5
27E
330
221
100
AcDbEntity
  8
03___PRT_ALL_CURVES
  6
Continuous
 62
     4
100
AcDbSpline
210
0.0
220
0.0
230
1.0
 70
     8
 71
     3
 72
     8
 73
     4
 74
     0
 42
0.0000001
 43
0.0000000001
 40
0.0
 40
0.0
 40
0.0
 40
0.0
 40
1.0
 40
1.0
 40
1.0
 40
1.0
 10
26.47906148424002
 20
28.61457447253997
 30
0.0
 10
26.52577759350001
 20
28.67510231693998
 30
0.0
 10
26.56015686180001
 20
28.75122784413995
 30
0.0
 10
26.58225783360001
 20
28.84290585483996
 30
0.0
  0
LINE
  5
27F
330
221
100
AcDbEntity
  8
03___PRT_ALL_CURVES
  6
Continuous
 62
     4
100
AcDbLine
 10
29.86384028490002
 20
28.72175989697999
 30
0.0
 11
29.94343849756001
 21
28.79436133165999
 31
0.0
  0
LINE
  5
280
330
221
100
AcDbEntity
  8
03___PRT_ALL_CURVES
  6
Continuous
 62
     4
100
AcDbLine
 10
29.94343849756001
 20
28.79436133165999
 30
0.0
 11
30.07814742804001
 21
28.89223863907998
 31
0.0
  0
SPLINE
  5
281
330
221
100
AcDbEntity
  8
03___PRT_ALL_CURVES
  6
Continuous
 62
     4
100
AcDbSpline
210
0.0
220
0.0
230
1.0
 70
     8
 71
     3
 72
     8
 73
     4
 74
     0
 42
0.0000001
 43
0.0000000001
 40
0.0
 40
0.0
 40
0.0
 40
0.0
 40
1.0
 40
1.0
 40
1.0
 40
1.0
 10
30.07814742804001
 20
28.89223863907998
 30
0.0
 10
30.19126204560001
 20
28.97141882361998
 30
0.0
 10
30.26902464852
 20
29.04427012317996
 30
0.0
 10
30.31177485766
 20
29.11127274254
 30
0.0
  0
SPLINE
  5
282
330
221
100
AcDbEntity
  8
03___PRT_ALL_CURVES
  6
Continuous
 62
     4
100
AcDbSpline
210
0.0
220
0.0
230
1.0
 70
     8
 71
     3
 72
     8
 73
     4
 74
     0
 42
0.0000001
 43
0.0000000001
 40
0.0
 40
0.0
 40
0.0
 40
0.0
 40
1.0
 40
1.0
 40
1.0
 40
1.0
 10
30.31177485766
 20
29.11127274254
 30
0.0
 10
30.35415438682003
 20
29.17769439277996
 30
0.0
 10
30.37625521638
 20
29.24727146723995
 30
0.0
 10
30.37625521638
 20
29.32094130465998
 30
0.0
  0
SPLINE
  5
283
330
221
100
AcDbEntity
  8
03___PRT_ALL_CURVES
  6
Continuous
 62
     4
100
AcDbSpline
210
0.0
220
0.0
230
1.0
 70
     8
 71
     3
 72
     8
 73
     4
 74
     0
 42
0.0000001
 43
0.0000000001
 40
0.0
 40
0.0
 40
0.0
 40
0.0
 40
1.0
 40
1.0
 40
1.0
 40
1.0
 10
30.37625521638
 20
29.32094130465998
 30
0.0
 10
30.37625521638
 20
29.38969984125995
 30
0.0
 10
30.35742854080002
 20
29.45109138471997
 30
0.0
 10
30.31977479848001
 20
29.50675320887999
 30
0.0
  0
SPLINE
  5
284
330
221
100
AcDbEntity
  8
03___PRT_ALL_CURVES
  6
Continuous
 62
     4
100
AcDbSpline
210
0.0
220
0.0
230
1.0
 70
     8
 71
     3
 72
     8
 73
     4
 74
     0
 42
0.0000001
 43
0.0000000001
 40
0.0
 40
0.0
 40
0.0
 40
0.0
 40
1.0
 40
1.0
 40
1.0
 40
1.0
 10
30.31977479848001
 20
29.50675320887999
 30
0.0
 10
30.28212126698
 20
29.56241471807999
 30
0.0
 10
30.23137129736003
 20
29.60334243911998
 30
0.0
 10
30.16574478142002
 20
29.63000318844001
 30
0.0
  0
SPLINE
  5
285
330
221
100
AcDbEntity
  8
03___PRT_ALL_CURVES
  6
Continuous
 62
     4
100
AcDbSpline
210
0.0
220
0.0
230
1.0
 70
     8
 71
     3
 72
     8
 73
     4
 74
     0
 42
0.0000001
 43
0.0000000001
 40
0.0
 40
0.0
 40
0.0
 40
0.0
 40
1.0
 40
1.0
 40
1.0
 40
1.0
 10
30.16574478142002
 20
29.63000318844001
 30
0.0
 10
30.10040253720004
 20
29.65654845411996
 30
0.0
 10
30.00954302880001
 20
29.67046389745997
 30
0.0
 10
29.89248970944001
 20
29.67046389745997
 30
0.0
  0
SPLINE
  5
286
330
221
100
AcDbEntity
  8
03___PRT_ALL_CURVES
  6
Continuous
 62
     4
100
AcDbSpline
210
0.0
220
0.0
230
1.0
 70
     8
 71
     3
 72
     8
 73
     4
 74
     0
 42
0.0000001
 43
0.0000000001
 40
0.0
 40
0.0
 40
0.0
 40
0.0
 40
1.0
 40
1.0
 40
1.0
 40
1.0
 10
29.89248970944001
 20
29.67046389745997
 30
0.0
 10
29.77952937148001
 20
29.67046389745997
 30
0.0
 10
29.69194401706002
 20
29.65572991371994
 30
0.0
 10
29.62809684478003
 20
29.62789905751998
 30
0.0
  0
SPLINE
  5
287
330
221
100
AcDbEntity
  8
03___PRT_ALL_CURVES
  6
Continuous
 62
     4
100
AcDbSpline
210
0.0
220
0.0
230
1.0
 70
     8
 71
     3
 72
     8
 73
     4
 74
     0
 42
0.0000001
 43
0.0000000001
 40
0.0
 40
0.0
 40
0.0
 40
0.0
 40
1.0
 40
1.0
 40
1.0
 40
1.0
 10
29.62809684478003
 20
29.62789905751998
 30
0.0
 10
29.56424969790001
 20
29.60006821147999
 30
0.0
 10
29.51513651952001
 20
29.55914049297999
 30
0.0
 10
29.48047363990003
 20
29.50694238553996
 30
0.0
  0
SPLINE
  5
288
330
221
100
AcDbEntity
  8
03___PRT_ALL_CURVES
  6
Continuous
 62
     4
100
AcDbSpline
210
0.0
220
0.0
230
1.0
 70
     8
 71
     3
 72
     8
 73
     4
 74
     0
 42
0.0000001
 43
0.0000000001
 40
0.0
 40
0.0
 40
0.0
 40
0.0
 40
1.0
 40
1.0
 40
1.0
 40
1.0
 10
29.48047363990003
 20
29.50694238553996
 30
0.0
 10
29.44555930282002
 20
29.45436561235999
 30
0.0
 10
29.42182139499999
 20
29.38069577239997
 30
0.0
 10
29.40872448952001
 20
29.28738064787998
 30
0.0
  0
SPLINE
  5
289
330
221
100
AcDbEntity
  8
03___PRT_ALL_CURVES
  6
Continuous
 62
     4
100
AcDbSpline
210
0.0
220
0.0
230
1.0
 70
     8
 71
     3
 72
     8
 73
     4
 74
     0
 42
0.0000001
 43
0.0000000001
 40
0.0
 40
0.0
 40
0.0
 40
0.0
 40
1.0
 40
1.0
 40
1.0
 40
1.0
 10
29.74269427370001
 20
29.26036837271997
 30
0.0
 10
29.75169848480002
 20
29.3274897574
 30
0.0
 10
29.76970662252
 20
29.37496586006
 30
0.0
 10
29.79692281142002
 20
29.40176961899999
 30
0.0
  0
SPLINE
  5
28A
330
221
100
AcDbEntity
  8
03___PRT_ALL_CURVES
  6
Continuous
 62
     4
100
AcDbSpline
210
0.0
220
0.0
230
1.0
 70
     8
 71
     3
 72
     8
 73
     4
 74
     0
 42
0.0000001
 43
0.0000000001
 40
0.0
 40
0.0
 40
0.0
 40
0.0
 40
1.0
 40
1.0
 40
1.0
 40
1.0
 10
29.79692281142002
 20
29.40176961899999
 30
0.0
 10
29.82373131762
 20
29.42817187251998
 30
0.0
 10
29.85892905266002
 20
29.44208731839998
 30
0.0
 10
29.90149392054002
 20
29.44208731839998
 30
0.0
  0
SPLINE
  5
28B
330
221
100
AcDbEntity
  8
03___PRT_ALL_CURVES
  6
Continuous
 62
     4
100
AcDbSpline
210
0.0
220
0.0
230
1.0
 70
     8
 71
     3
 72
     8
 73
     4
 74
     0
 42
0.0000001
 43
0.0000000001
 40
0.0
 40
0.0
 40
0.0
 40
0.0
 40
1.0
 40
1.0
 40
1.0
 40
1.0
 10
29.90149392054002
 20
29.44208731839998
 30
0.0
 10
29.94242142822003
 20
29.44208731839998
 30
0.0
 10
29.97598237202001
 20
29.42899048403999
 30
0.0
 10
30.00299450240001
 20
29.40279681785998
 30
0.0
  0
SPLINE
  5
28C
330
221
100
AcDbEntity
  8
03___PRT_ALL_CURVES
  6
Continuous
 62
     4
100
AcDbSpline
210
0.0
220
0.0
230
1.0
 70
     8
 71
     3
 72
     8
 73
     4
 74
     0
 42
0.0000001
 43
0.0000000001
 40
0.0
 40
0.0
 40
0.0
 40
0.0
 40
1.0
 40
1.0
 40
1.0
 40
1.0
 10
30.00299450240001
 20
29.40279681785998
 30
0.0
 10
30.0300067801
 20
29.37660300690001
 30
0.0
 10
30.04392222344001
 20
29.34549796623998
 30
0.0
 10
30.04392222344001
 20
29.30948155109996
 30
0.0
  0
SPLINE
  5
28D
330
221
100
AcDbEntity
  8
03___PRT_ALL_CURVES
  6
Continuous
 62
     4
100
AcDbSpline
210
0.0
220
0.0
230
1.0
 70
     8
 71
     3
 72
     8
 73
     4
 74
     0
 42
0.0000001
 43
0.0000000001
 40
0.0
 40
0.0
 40
0.0
 40
0.0
 40
1.0
 40
1.0
 40
1.0
 40
1.0
 10
30.04392222344001
 20
29.30948155109996
 30
0.0
 10
30.04392222344001
 20
29.27510235391998
 30
0.0
 10
30.0300067801
 20
29.23990447663996
 30
0.0
 10
30.00272779732003
 20
29.20244667753997
 30
0.0
  0
SPLINE
  5
28E
330
221
100
AcDbEntity
  8
03___PRT_ALL_CURVES
  6
Continuous
 62
     4
100
AcDbSpline
210
0.0
220
0.0
230
1.0
 70
     8
 71
     3
 72
     8
 73
     4
 74
     0
 42
0.0000001
 43
0.0000000001
 40
0.0
 40
0.0
 40
0.0
 40
0.0
 40
1.0
 40
1.0
 40
1.0
 40
1.0
 10
30.00272779732003
 20
29.20244667753997
 30
0.0
 10
29.97516383162002
 20
29.16459755842001
 30
0.0
 10
29.91295375030003
 20
29.10893585617995
 30
0.0
 10
29.81555440738001
 20
29.03689128601997
 30
0.0
  0
SPLINE
  5
28F
330
221
100
AcDbEntity
  8
03___PRT_ALL_CURVES
  6
Continuous
 62
     4
100
AcDbSpline
210
0.0
220
0.0
230
1.0
 70
     8
 71
     3
 72
     8
 73
     4
 74
     0
 42
0.0000001
 43
0.0000000001
 40
0.0
 40
0.0
 40
0.0
 40
0.0
 40
1.0
 40
1.0
 40
1.0
 40
1.0
 10
29.81555440738001
 20
29.03689128601997
 30
0.0
 10
29.65510920630001
 20
28.91821280861996
 30
0.0
 10
29.54624156018002
 20
28.81507503927998
 30
0.0
 10
29.48812416562001
 20
28.72830831669995
 30
0.0
  0
SPLINE
  5
290
330
221
100
AcDbEntity
  8
03___PRT_ALL_CURVES
  6
Continuous
 62
     4
100
AcDbSpline
210
0.0
220
0.0
230
1.0
 70
     8
 71
     3
 72
     8
 73
     4
 74
     0
 42
0.0000001
 43
0.0000000001
 40
0.0
 40
0.0
 40
0.0
 40
0.0
 40
1.0
 40
1.0
 40
1.0
 40
1.0
 10
29.48812416562001
 20
28.72830831669995
 30
0.0
 10
29.43000678122002
 20
28.64154160681994
 30
0.0
 10
29.39562758404
 20
28.54822646451998
 30
0.0
 10
29.38416775682003
 20
28.45000000107999
 30
0.0
  0
SPLINE
  5
291
330
221
100
AcDbEntity
  8
03___PRT_ALL_CURVES
  6
Continuous
 62
     4
100
AcDbSpline
210
0.0
220
0.0
230
1.0
 70
     8
 71
     3
 72
     8
 73
     4
 74
     0
 42
0.0000001
 43
0.0000000001
 40
0.0
 40
0.0
 40
0.0
 40
0.0
 40
1.0
 40
1.0
 40
1.0
 40
1.0
 10
10.05525262504003
 20
120.2731923309599
 30
0.0
 10
10.02114610194002
 20
120.11459756052
 30
0.0
 10
9.964870527420032
 20
119.99351981436
 30
0.0
 10
9.890261756140006
 20
119.91128053256
 30
0.0
  0
SPLINE
  5
292
330
221
100
AcDbEntity
  8
03___PRT_ALL_CURVES
  6
Continuous
 62
     4
100
AcDbSpline
210
0.0
220
0.0
230
1.0
 70
     8
 71
     3
 72
     8
 73
     4
 74
     0
 42
0.0000001
 43
0.0000000001
 40
0.0
 40
0.0
 40
0.0
 40
0.0
 40
1.0
 40
1.0
 40
1.0
 40
1.0
 10
9.890261756140006
 20
119.91128053256
 30
0.0
 10
9.814802422680032
 20
119.82810369866
 30
0.0
 10
9.70225126855999
 20
119.7871759827
 30
0.0
 10
9.555593593880019
 20
119.7871759827
 30
0.0
  0
SPLINE
  5
293
330
221
100
AcDbEntity
  8
03___PRT_ALL_CURVES
  6
Continuous
 62
     4
100
AcDbSpline
210
0.0
220
0.0
230
1.0
 70
     8
 71
     3
 72
     8
 73
     4
 74
     0
 42
0.0000001
 43
0.0000000001
 40
0.0
 40
0.0
 40
0.0
 40
0.0
 40
1.0
 40
1.0
 40
1.0
 40
1.0
 10
9.555593593880019
 20
119.7871759827
 30
0.0
 10
9.402114761900009
 20
119.7871759827
 30
0.0
 10
9.28444766932003
 20
119.83833561876
 30
0.0
 10
9.200380661940017
 20
119.9402350238
 30
0.0
  0
SPLINE
  5
294
330
221
100
AcDbEntity
  8
03___PRT_ALL_CURVES
  6
Continuous
 62
     4
100
AcDbSpline
210
0.0
220
0.0
230
1.0
 70
     8
 71
     3
 72
     8
 73
     4
 74
     0
 42
0.0000001
 43
0.0000000001
 40
0.0
 40
0.0
 40
0.0
 40
0.0
 40
1.0
 40
1.0
 40
1.0
 40
1.0
 10
9.200380661940017
 20
119.9402350238
 30
0.0
 10
9.115620940680031
 20
120.04297408426
 30
0.0
 10
9.074693260280014
 20
120.23397001672
 30
0.0
 10
9.074693260280014
 20
120.51023188228
 30
0.0
  0
SPLINE
  5
295
330
221
100
AcDbEntity
  8
03___PRT_ALL_CURVES
  6
Continuous
 62
     4
100
AcDbSpline
210
0.0
220
0.0
230
1.0
 70
     8
 71
     3
 72
     8
 73
     4
 74
     0
 42
0.0000001
 43
0.0000000001
 40
0.0
 40
0.0
 40
0.0
 40
0.0
 40
1.0
 40
1.0
 40
1.0
 40
1.0
 10
9.074693260280014
 20
120.51023188228
 30
0.0
 10
9.074693260280014
 20
120.73362890056
 30
0.0
 10
9.108799636060013
 20
120.89733976186
 30
0.0
 10
9.179634559160007
 20
121.00359209952
 30
0.0
  0
SPLINE
  5
296
330
221
100
AcDbEntity
  8
03___PRT_ALL_CURVES
  6
Continuous
 62
     4
100
AcDbSpline
210
0.0
220
0.0
230
1.0
 70
     8
 71
     3
 72
     8
 73
     4
 74
     0
 42
0.0000001
 43
0.0000000001
 40
0.0
 40
0.0
 40
0.0
 40
0.0
 40
1.0
 40
1.0
 40
1.0
 40
1.0
 10
9.179634559160007
 20
121.00359209952
 30
0.0
 10
9.272510423700027
 20
121.1429058315599
 30
0.0
 10
9.40723077909999
 20
121.21452930528
 30
0.0
 10
9.582878812360036
 20
121.21452930528
 30
0.0
  0
SPLINE
  5
297
330
221
100
AcDbEntity
  8
03___PRT_ALL_CURVES
  6
Continuous
 62
     4
100
AcDbSpline
210
0.0
220
0.0
230
1.0
 70
     8
 71
     3
 72
     8
 73
     4
 74
     0
 42
0.0000001
 43
0.0000000001
 40
0.0
 40
0.0
 40
0.0
 40
0.0
 40
1.0
 40
1.0
 40
1.0
 40
1.0
 10
9.582878812360036
 20
121.21452930528
 30
0.0
 10
9.659618153420013
 20
121.21452930528
 30
0.0
 10
9.729536339720028
 20
121.19747611866
 30
0.0
 10
9.792106676860016
 20
121.16576239494
 30
0.0
  0
SPLINE
  5
298
330
221
100
AcDbEntity
  8
03___PRT_ALL_CURVES
  6
Continuous
 62
     4
100
AcDbSpline
210
0.0
220
0.0
230
1.0
 70
     8
 71
     3
 72
     8
 73
     4
 74
     0
 42
0.0000001
 43
0.0000000001
 40
0.0
 40
0.0
 40
0.0
 40
0.0
 40
1.0
 40
1.0
 40
1.0
 40
1.0
 10
9.792106676860016
 20
121.16576239494
 30
0.0
 10
9.85402481058
 20
121.13437923952
 30
0.0
 10
9.906889660400026
 20
121.08833554446
 30
0.0
 10
9.950505117999995
 20
121.0298271042
 30
0.0
  0
SPLINE
  5
299
330
221
100
AcDbEntity
  8
03___PRT_ALL_CURVES
  6
Continuous
 62
     4
100
AcDbSpline
210
0.0
220
0.0
230
1.0
 70
     8
 71
     3
 72
     8
 73
     4
 74
     0
 42
0.0000001
 43
0.0000000001
 40
0.0
 40
0.0
 40
0.0
 40
0.0
 40
1.0
 40
1.0
 40
1.0
 40
1.0
 10
9.950505117999995
 20
121.0298271042
 30
0.0
 10
9.97680784670004
 20
120.9945430167799
 30
0.0
 10
10.00238762790002
 20
120.93826743972
 30
0.0
 10
10.02626211914
 20
120.8632332387599
 30
0.0
  0
SPLINE
  5
29A
330
221
100
AcDbEntity
  8
03___PRT_ALL_CURVES
  6
Continuous
 62
     4
100
AcDbSpline
210
0.0
220
0.0
230
1.0
 70
     8
 71
     3
 72
     8
 73
     4
 74
     0
 42
0.0000001
 43
0.0000000001
 40
0.0
 40
0.0
 40
0.0
 40
0.0
 40
1.0
 40
1.0
 40
1.0
 40
1.0
 10
10.70839048818004
 20
121.01500678078
 30
0.0
 10
10.61971367798
 20
121.27762618696
 30
0.0
 10
10.48669861254001
 20
121.4737381340799
 30
0.0
 10
10.30553450192002
 20
121.60106569248
 30
0.0
  0
SPLINE
  5
29B
330
221
100
AcDbEntity
  8
03___PRT_ALL_CURVES
  6
Continuous
 62
     4
100
AcDbSpline
210
0.0
220
0.0
230
1.0
 70
     8
 71
     3
 72
     8
 73
     4
 74
     0
 42
0.0000001
 43
0.0000000001
 40
0.0
 40
0.0
 40
0.0
 40
0.0
 40
1.0
 40
1.0
 40
1.0
 40
1.0
 10
10.30553450192002
 20
121.60106569248
 30
0.0
 10
10.12517066148001
 20
121.72783079836
 30
0.0
 10
9.877899301820037
 20
121.79263311732
 30
0.0
 10
9.56412018846001
 20
121.79263311732
 30
0.0
  0
SPLINE
  5
29C
330
221
100
AcDbEntity
  8
03___PRT_ALL_CURVES
  6
Continuous
 62
     4
100
AcDbSpline
210
0.0
220
0.0
230
1.0
 70
     8
 71
     3
 72
     8
 73
     4
 74
     0
 42
0.0000001
 43
0.0000000001
 40
0.0
 40
0.0
 40
0.0
 40
0.0
 40
1.0
 40
1.0
 40
1.0
 40
1.0
 10
9.56412018846001
 20
121.79263311732
 30
0.0
 10
9.161664559540014
 20
121.79263311732
 30
0.0
 10
8.849590880920005
 20
121.68008181588
 30
0.0
 10
8.629604582260015
 20
121.45839020948
 30
0.0
  0
SPLINE
  5
29D
330
221
100
AcDbEntity
  8
03___PRT_ALL_CURVES
  6
Continuous
 62
     4
100
AcDbSpline
210
0.0
220
0.0
230
1.0
 70
     8
 71
     3
 72
     8
 73
     4
 74
     0
 42
0.0000001
 43
0.0000000001
 40
0.0
 40
0.0
 40
0.0
 40
0.0
 40
1.0
 40
1.0
 40
1.0
 40
1.0
 10
8.629604582260015
 20
121.45839020948
 30
0.0
 10
8.409618189620005
 20
121.2366985091
 30
0.0
 10
8.30047767130003
 20
120.91950881582
 30
0.0
 10
8.30047767130003
 20
120.50511601748
 30
0.0
  0
SPLINE
  5
29E
330
221
100
AcDbEntity
  8
03___PRT_ALL_CURVES
  6
Continuous
 62
     4
100
AcDbSpline
210
0.0
220
0.0
230
1.0
 70
     8
 71
     3
 72
     8
 73
     4
 74
     0
 42
0.0000001
 43
0.0000000001
 40
0.0
 40
0.0
 40
0.0
 40
0.0
 40
1.0
 40
1.0
 40
1.0
 40
1.0
 10
8.30047767130003
 20
120.50511601748
 30
0.0
 10
8.30047767130003
 20
120.19474762628
 30
0.0
 10
8.361869207140018
 20
119.94065481468
 30
0.0
 10
8.487837733460026
 20
119.7409904286399
 30
0.0
  0
SPLINE
  5
29F
330
221
100
AcDbEntity
  8
03___PRT_ALL_CURVES
  6
Continuous
 62
     4
100
AcDbSpline
210
0.0
220
0.0
230
1.0
 70
     8
 71
     3
 72
     8
 73
     4
 74
     0
 42
0.0000001
 43
0.0000000001
 40
0.0
 40
0.0
 40
0.0
 40
0.0
 40
1.0
 40
1.0
 40
1.0
 40
1.0
 10
8.487837733460026
 20
119.7409904286399
 30
0.0
 10
8.612551329599995
 20
119.5433151470799
 30
0.0
 10
8.760914220579991
 20
119.40347885068
 30
0.0
 10
8.933469453320015
 20
119.32574357308
 30
0.0
  0
SPLINE
  5
2A0
330
221
100
AcDbEntity
  8
03___PRT_ALL_CURVES
  6
Continuous
 62
     4
100
AcDbSpline
210
0.0
220
0.0
230
1.0
 70
     8
 71
     3
 72
     8
 73
     4
 74
     0
 42
0.0000001
 43
0.0000000001
 40
0.0
 40
0.0
 40
0.0
 40
0.0
 40
1.0
 40
1.0
 40
1.0
 40
1.0
 10
8.933469453320015
 20
119.32574357308
 30
0.0
 10
9.105388982480008
 20
119.24829468048
 30
0.0
 10
9.327080710800004
 20
119.20736698738
 30
0.0
 10
9.599931998980026
 20
119.20736698738
 30
0.0
  0
SPLINE
  5
2A1
330
221
100
AcDbEntity
  8
03___PRT_ALL_CURVES
  6
Continuous
 62
     4
100
AcDbSpline
210
0.0
220
0.0
230
1.0
 70
     8
 71
     3
 72
     8
 73
     4
 74
     0
 42
0.0000001
 43
0.0000000001
 40
0.0
 40
0.0
 40
0.0
 40
0.0
 40
1.0
 40
1.0
 40
1.0
 40
1.0
 10
9.599931998980026
 20
119.20736698738
 30
0.0
 10
9.82332901472003
 20
119.20736698738
 30
0.0
 10
10.00750364256001
 20
119.23976807828
 30
0.0
 10
10.15245587996
 20
119.30457025754
 30
0.0
  0
SPLINE
  5
2A2
330
221
100
AcDbEntity
  8
03___PRT_ALL_CURVES
  6
Continuous
 62
     4
100
AcDbSpline
210
0.0
220
0.0
230
1.0
 70
     8
 71
     3
 72
     8
 73
     4
 74
     0
 42
0.0000001
 43
0.0000000001
 40
0.0
 40
0.0
 40
0.0
 40
0.0
 40
1.0
 40
1.0
 40
1.0
 40
1.0
 10
10.15245587996
 20
119.30457025754
 30
0.0
 10
10.29740811736002
 20
119.36937243934
 30
0.0
 10
10.41848586352
 20
119.4648704042999
 30
0.0
 10
10.51727243506002
 20
119.5928634807999
 30
0.0
  0
SPLINE
  5
2A3
330
221
100
AcDbEntity
  8
03___PRT_ALL_CURVES
  6
Continuous
 62
     4
100
AcDbSpline
210
0.0
220
0.0
230
1.0
 70
     8
 71
     3
 72
     8
 73
     4
 74
     0
 42
0.0000001
 43
0.0000000001
 40
0.0
 40
0.0
 40
0.0
 40
0.0
 40
1.0
 40
1.0
 40
1.0
 40
1.0
 10
10.51727243506002
 20
119.5928634807999
 30
0.0
 10
10.61459766332001
 20
119.71896316256
 30
0.0
 10
10.68622113704001
 20
119.8775580092
 30
0.0
 10
10.73226482956002
 20
120.0685538654599
 30
0.0
  0
LINE
  5
2A8
330
221
100
AcDbEntity
  8
0
  6
Continuous
 62
     2
100
AcDbLine
 10
15.45525077092
 20
116.89999999938
 30
0.0
 11
15.55525077158001
 21
117.0000000000399
 31
0.0
  0
LINE
  5
2A9
330
221
100
AcDbEntity
  8
0
  6
Continuous
 62
     2
100
AcDbLine
 10
6.160501544860011
 20
91.80000000135996
 30
0.0
 11
6.260501545520015
 21
91.89999999948
 31
0.0
  0
LINE
  5
2AA
330
221
100
AcDbEntity
  8
0
  6
Continuous
 62
     2
100
AcDbLine
 10
31.26050154542003
 20
116.89999999938
 30
0.0
 11
31.36050154608
 21
117.0000000000399
 31
0.0
  0
LINE
  5
2AB
330
221
100
AcDbEntity
  8
0
  6
Continuous
 62
     7
100
AcDbLine
 10
18.19999999820001
 20
81.14807618459994
 30
0.0
 11
15.94999999986001
 21
79.84903807909996
 31
0.0
  0
LINE
  5
2AC
330
221
100
AcDbEntity
  8
0
  6
Continuous
 62
     2
100
AcDbLine
 10
21.96575231936001
 20
91.80000000135996
 30
0.0
 11
22.06575231747999
 21
91.89999999948
 31
0.0
  0
LINE
  5
2AD
330
221
100
AcDbEntity
  8
0
  6
Continuous
 62
     7
100
AcDbLine
 10
18.19999999820001
 20
75.95192376005997
 30
0.0
 11
20.44999999908001
 21
77.25096186809995
 31
0.0
  0
LINE
  5
2AE
330
221
100
AcDbEntity
  8
03___PRT_ALL_CURVES
  6
Continuous
 62
     4
100
AcDbLine
 10
11.79638476634003
 20
121.74999999964
 30
0.0
 11
10.85675330296002
 21
119.2500000009199
 31
0.0
  0
LINE
  5
2B3
330
221
100
AcDbEntity
  8
03___PRT_ALL_CURVES
  6
Continuous
 62
     4
100
AcDbLine
 10
11.64461137164
 20
119.2500000009199
 30
0.0
 11
11.76568926765998
 21
119.6626875855
 31
0.0
  0
LINE
  5
2B4
330
221
100
AcDbEntity
  8
03___PRT_ALL_CURVES
  6
Continuous
 62
     4
100
AcDbLine
 10
11.93451584644001
 20
120.20327422086
 30
0.0
 11
12.20736713716002
 21
121.1019781537
 31
0.0
  0
LINE
  5
2B5
330
221
100
AcDbEntity
  8
0
  6
Continuous
 62
     7
100
AcDbLine
 10
18.19999999820001
 20
56.14807618469999
 30
0.0
 11
15.94999999986001
 21
54.84903807919994
 31
0.0
  0
LINE
  5
2B6
330
221
100
AcDbEntity
  8
03___PRT_ALL_CURVES
  6
Continuous
 62
     4
100
AcDbLine
 10
15.61118693606002
 20
121.74999999964
 30
0.0
 11
15.22237391638004
 21
120.22885400206
 31
0.0
  0
LINE
  5
2B7
330
221
100
AcDbEntity
  8
03___PRT_ALL_CURVES
  6
Continuous
 62
     4
100
AcDbLine
 10
15.50716252638
 20
119.2500000009199
 30
0.0
 11
15.9948840884
 21
121.1565484408
 31
0.0
  0
LINE
  5
2BC
330
221
100
AcDbEntity
  8
0
  6
Continuous
 62
     7
100
AcDbLine
 10
18.19999999820001
 20
50.95192376015996
 30
0.0
 11
20.44999999908001
 21
52.25096186565997
 31
0.0
  0
LINE
  5
2BD
330
221
100
AcDbEntity
  8
0
  6
Continuous
 62
     7
100
AcDbLine
 10
-0.2500000003799983
 20
6.000000001499984
 30
0.0
 11
-0.2500000003799983
 21
124.00000000052
 31
0.0
  0
LINE
  5
2BE
330
221
100
AcDbEntity
  8
0
  6
Continuous
 62
     7
100
AcDbLine
 10
0.0
 20
129.99999999948
 30
0.0
 11
0.0
 21
124.00000000052
 31
0.0
  0
LINE
  5
2BF
330
221
100
AcDbEntity
  8
0
  6
Continuous
 62
     7
100
AcDbLine
 10
0.0
 20
6.000000001499984
 30
0.0
 11
0.0
 21
0.0
 31
0.0
  0
LINE
  5
2C0
330
221
100
AcDbEntity
  8
06___PRT_ALL_SURFS
  6
Continuous
 62
     7
100
AcDbLine
 10
0.0
 20
0.0
 30
0.0
 11
0.0
 21
6.800000001699971
 31
0.0
  0
LINE
  5
2C1
330
221
100
AcDbEntity
  8
06___PRT_ALL_SURFS
  6
Continuous
 62
     7
100
AcDbLine
 10
0.0
 20
123.20000000032
 30
0.0
 11
0.0
 21
129.99999999948
 31
0.0
  0
LINE
  5
2C2
330
221
100
AcDbEntity
  8
0
  6
Continuous
 62
     2
100
AcDbLine
 10
14.99999999994
 20
40.77446912145996
 30
0.0
 11
15.94999999986001
 21
41.72446912138
 31
0.0
  0
LINE
  5
2C3
330
221
100
AcDbEntity
  8
0
  6
Continuous
 62
     2
100
AcDbLine
 10
18.31006246794001
 20
44.08453158946
 30
0.0
 11
18.88530832532001
 21
44.65977744683997
 31
0.0
  0
LINE
  5
2C4
330
221
100
AcDbEntity
  8
0
  6
Continuous
 62
     7
100
AcDbLine
 10
18.19999999820001
 20
44.14807618423995
 30
0.0
 11
15.94999999986001
 21
42.84903807873999
 31
0.0
  0
LINE
  5
2C5
330
221
100
AcDbEntity
  8
0
  6
Continuous
 62
     7
100
AcDbLine
 10
18.19999999820001
 20
38.95192376223997
 30
0.0
 11
20.44999999908001
 21
40.25096186773996
 31
0.0
  0
LINE
  5
2C6
330
221
100
AcDbEntity
  8
02___PRT_ALL_AXES
  6
Continuous
 62
     7
100
AcDbLine
 10
31.99999999784004
 20
0.0
 30
0.0
 11
0.0
 21
0.0
 31
0.0
  0
LINE
  5
2C7
330
221
100
AcDbEntity
  8
06___PRT_ALL_SURFS
  6
Continuous
 62
     7
100
AcDbLine
 10
31.99999999784004
 20
0.0
 30
0.0
 11
0.0
 21
0.0
 31
0.0
  0
LINE
  5
2C8
330
221
100
AcDbEntity
  8
0
  6
Continuous
 62
     7
100
AcDbLine
 10
16.39999999902
 20
1.649999999459993
 30
0.0
 11
15.59999999882004
 21
1.649999999459993
 31
0.0
  0
LINE
  5
2C9
330
221
100
AcDbEntity
  8
0
  6
Continuous
 62
     7
100
AcDbLine
 10
17.74999999904003
 20
2.999999999479968
 30
0.0
 11
16.39999999902
 21
2.999999999479968
 31
0.0
  0
LINE
  5
2CA
330
221
100
AcDbEntity
  8
0
  6
Continuous
 62
     7
100
AcDbLine
 10
14.24999999880001
 20
2.999999999479968
 30
0.0
 11
15.59999999882004
 21
2.999999999479968
 31
0.0
  0
LINE
  5
2CB
330
221
100
AcDbEntity
  8
0
  6
Continuous
 62
     7
100
AcDbLine
 10
14.24999999880001
 20
3.799999999679983
 30
0.0
 11
15.59999999882004
 21
3.799999999679983
 31
0.0
  0
LINE
  5
2CC
330
221
100
AcDbEntity
  8
0
  6
Continuous
 62
     7
100
AcDbLine
 10
16.39999999902
 20
3.799999999679983
 30
0.0
 11
17.74999999904003
 21
3.799999999679983
 31
0.0
  0
LINE
  5
2CD
330
221
100
AcDbEntity
  8
0
  6
Continuous
 62
     7
100
AcDbLine
 10
15.59999999882004
 20
5.149999999699958
 30
0.0
 11
16.39999999902
 21
5.149999999699958
 31
0.0
  0
LINE
  5
2CE
330
221
100
AcDbEntity
  8
02___PRT_ALL_AXES
  6
Continuous
 62
     7
100
AcDbLine
 10
2.499999998720028
 20
129.99999999948
 30
0.0
 11
2.499999998720028
 21
124.00000000052
 31
0.0
  0
LINE
  5
2CF
330
221
100
AcDbEntity
  8
02___PRT_ALL_AXES
  6
Continuous
 62
     7
100
AcDbLine
 10
2.499999998720028
 20
6.000000001499984
 30
0.0
 11
2.499999998720028
 21
0.0
 31
0.0
  0
LINE
  5
2D0
330
221
100
AcDbEntity
  8
02___PRT_ALL_AXES
  6
Continuous
 62
     7
100
AcDbLine
 10
4.999999999979991
 20
129.99999999948
 30
0.0
 11
4.999999999979991
 21
124.00000000052
 31
0.0
  0
LINE
  5
2D1
330
221
100
AcDbEntity
  8
02___PRT_ALL_AXES
  6
Continuous
 62
     7
100
AcDbLine
 10
4.999999999979991
 20
6.000000001499984
 30
0.0
 11
4.999999999979991
 21
0.0
 31
0.0
  0
LINE
  5
2D2
330
221
100
AcDbEntity
  8
02___PRT_ALL_AXES
  6
Continuous
 62
     7
100
AcDbLine
 10
7.399999998039988
 20
129.99999999948
 30
0.0
 11
7.399999998039988
 21
124.00000000052
 31
0.0
  0
LINE
  5
2D3
330
221
100
AcDbEntity
  8
02___PRT_ALL_AXES
  6
Continuous
 62
     7
100
AcDbLine
 10
7.399999998039988
 20
6.000000001499984
 30
0.0
 11
7.399999998039988
 21
0.0
 31
0.0
  0
LINE
  5
2D4
330
221
100
AcDbEntity
  8
0
  6
Continuous
 62
     7
100
AcDbLine
 10
32.24999999822003
 20
6.000000001499984
 30
0.0
 11
-0.2500000003799983
 21
6.000000001499984
 31
0.0
  0
LINE
  5
2D5
330
221
100
AcDbEntity
  8
06___PRT_ALL_SURFS
  6
Continuous
 62
     7
100
AcDbLine
 10
0.0
 20
6.800000001699971
 30
0.0
 11
31.99999999784004
 21
6.800000001699971
 31
0.0
  0
LINE
  5
2D6
330
221
100
AcDbEntity
  8
06___PRT_ALL_SURFS
  6
Continuous
 62
     7
100
AcDbLine
 10
31.99999999784004
 20
7.000000000479986
 30
0.0
 11
0.0
 21
7.000000000479986
 31
0.0
  0
LINE
  5
2D7
330
221
100
AcDbEntity
  8
0
  6
Continuous
 62
     7
100
AcDbLine
 10
32.24999999822003
 20
12.40000000055997
 30
0.0
 11
-0.2500000003799983
 21
12.40000000055997
 31
0.0
  0
LINE
  5
2D8
330
221
100
AcDbEntity
  8
0
  6
Continuous
 62
     7
100
AcDbLine
 10
32.24999999822003
 20
12.99999999943998
 30
0.0
 11
-0.2500000003799983
 21
12.99999999943998
 31
0.0
  0
LINE
  5
2D9
330
221
100
AcDbEntity
  8
02___PRT_ALL_AXES
  6
Continuous
 62
     7
100
AcDbLine
 10
9.899999999300036
 20
129.99999999948
 30
0.0
 11
9.899999999300036
 21
124.00000000052
 31
0.0
  0
LINE
  5
2DA
330
221
100
AcDbEntity
  8
02___PRT_ALL_AXES
  6
Continuous
 62
     7
100
AcDbLine
 10
9.899999999300036
 20
6.000000001499984
 30
0.0
 11
9.899999999300036
 21
0.0
 31
0.0
  0
LINE
  5
2DB
330
221
100
AcDbEntity
  8
02___PRT_ALL_AXES
  6
Continuous
 62
     7
100
AcDbLine
 10
12.98499999896001
 20
71.87000000113997
 30
0.0
 11
12.98499999896001
 21
60.22999999949997
 31
0.0
  0
LINE
  5
2DC
330
221
100
AcDbEntity
  8
02___PRT_ALL_AXES
  6
Continuous
 62
     7
100
AcDbLine
 10
12.98499999896001
 20
34.87000000077995
 30
0.0
 11
12.98499999896001
 21
23.23000000167997
 31
0.0
  0
LINE
  5
2DD
330
221
100
AcDbEntity
  8
0
  6
Continuous
 62
     7
100
AcDbLine
 10
13.58499999784001
 20
71.86999997319998
 30
0.0
 11
13.58499999784001
 21
60.22999997155998
 31
0.0
  0
LINE
  5
2DE
330
221
100
AcDbEntity
  8
0
  6
Continuous
 62
     7
100
AcDbLine
 10
13.58499999784001
 20
34.86999997283993
 30
0.0
 11
13.58499999784001
 21
23.22999997373998
 31
0.0
  0
LINE
  5
2DF
330
221
100
AcDbEntity
  8
03___PRT_ALL_CURVES
  6
Continuous
 62
     4
100
AcDbLine
 10
13.81548435780002
 20
121.74999999964
 30
0.0
 11
13.81548435780002
 21
119.2500000009199
 31
0.0
  0
LINE
  5
2E0
330
221
100
AcDbEntity
  8
0
  6
Continuous
 62
     7
100
AcDbLine
 10
14.08499999860001
 20
71.86999997319998
 30
0.0
 11
14.08499999860001
 21
60.22999997155998
 31
0.0
  0
LINE
  5
2E1
330
221
100
AcDbEntity
  8
0
  6
Continuous
 62
     7
100
AcDbLine
 10
14.08499999860001
 20
34.86999997283993
 30
0.0
 11
14.08499999860001
 21
23.22999997373998
 31
0.0
  0
LINE
  5
2E2
330
221
100
AcDbEntity
  8
0
  6
Continuous
 62
     7
100
AcDbLine
 10
14.24999999880001
 20
127.0
 30
0.0
 11
14.24999999880001
 21
126.1999999997999
 31
0.0
  0
LINE
  5
2E3
330
221
100
AcDbEntity
  8
0
  6
Continuous
 62
     7
100
AcDbLine
 10
14.24999999880001
 20
3.799999999679983
 30
0.0
 11
14.24999999880001
 21
2.999999999479968
 31
0.0
  0
LINE
  5
2E4
330
221
100
AcDbEntity
  8
03___PRT_ALL_CURVES
  6
Continuous
 62
     4
100
AcDbLine
 10
14.44815845694004
 20
119.2500000009199
 30
0.0
 11
14.44815845694004
 21
121.1565484408
 31
0.0
  0
LINE
  5
2E5
330
221
100
AcDbEntity
  8
02___PRT_ALL_AXES
  6
Continuous
 62
     7
100
AcDbLine
 10
14.99999999994
 20
78.55000000153998
 30
0.0
 11
14.99999999994
 21
75.16405145721995
 31
0.0
  0
LINE
  5
2E6
330
221
100
AcDbEntity
  8
02___PRT_ALL_AXES
  6
Continuous
 62
     7
100
AcDbLine
 10
14.99999999994
 20
56.93594854341995
 30
0.0
 11
14.99999999994
 21
53.55000000163997
 31
0.0
  0
LINE
  5
2E7
330
221
100
AcDbEntity
  8
02___PRT_ALL_AXES
  6
Continuous
 62
     7
100
AcDbLine
 10
14.99999999994
 20
41.55000000117997
 30
0.0
 11
14.99999999994
 21
38.16405145685999
 31
0.0
  0
LINE
  5
2E8
330
221
100
AcDbEntity
  8
02___PRT_ALL_AXES
  6
Continuous
 62
     7
100
AcDbLine
 10
14.99999999994
 20
19.93594854305996
 30
0.0
 11
14.99999999994
 21
16.55000000127995
 31
0.0
  0
LINE
  5
2E9
330
221
100
AcDbEntity
  8
0
  6
Continuous
 62
     7
100
AcDbLine
 10
15.59999999882004
 20
1.649999999459993
 30
0.0
 11
15.59999999882004
 21
2.999999999479968
 31
0.0
  0
LINE
  5
2EA
330
221
100
AcDbEntity
  8
0
  6
Continuous
 62
     7
100
AcDbLine
 10
15.59999999882004
 20
3.799999999679983
 30
0.0
 11
15.59999999882004
 21
5.149999999699958
 31
0.0
  0
LINE
  5
2EB
330
221
100
AcDbEntity
  8
0
  6
Continuous
 62
     7
100
AcDbLine
 10
15.59999999882004
 20
124.84999999978
 30
0.0
 11
15.59999999882004
 21
126.1999999997999
 31
0.0
  0
LINE
  5
2EC
330
221
100
AcDbEntity
  8
0
  6
Continuous
 62
     7
100
AcDbLine
 10
15.59999999882004
 20
127.0
 30
0.0
 11
15.59999999882004
 21
128.3500000000199
 31
0.0
  0
LINE
  5
2ED
330
221
100
AcDbEntity
  8
0
  6
Continuous
 62
     7
100
AcDbLine
 10
15.94999999986001
 20
79.84903807909996
 30
0.0
 11
15.94999999986001
 21
77.25096186809995
 31
0.0
  0
LINE
  5
2EE
330
221
100
AcDbEntity
  8
0
  6
Continuous
 62
     7
100
AcDbLine
 10
15.94999999986001
 20
54.84903807919994
 30
0.0
 11
15.94999999986001
 21
52.25096186565997
 31
0.0
  0
LINE
  5
2EF
330
221
100
AcDbEntity
  8
0
  6
Continuous
 62
     7
100
AcDbLine
 10
15.94999999986001
 20
42.84903807873999
 30
0.0
 11
15.94999999986001
 21
40.25096186773996
 31
0.0
  0
LINE
  5
2F0
330
221
100
AcDbEntity
  8
0
  6
Continuous
 62
     7
100
AcDbLine
 10
15.94999999986001
 20
17.84903807883998
 30
0.0
 11
15.94999999986001
 21
15.25096186783995
 31
0.0
  0
LINE
  5
2F1
330
221
100
AcDbEntity
  8
03___PRT_ALL_CURVES
  6
Continuous
 62
     4
100
AcDbLine
 10
15.9948840884
 20
121.1565484408
 30
0.0
 11
15.9948840884
 21
119.2500000009199
 31
0.0
  0
LINE
  5
2F2
330
221
100
AcDbEntity
  8
0
  6
Continuous
 62
     7
100
AcDbLine
 10
16.39999999902
 20
128.3500000000199
 30
0.0
 11
16.39999999902
 21
127.0
 31
0.0
  0
LINE
  5
2F3
330
221
100
AcDbEntity
  8
0
  6
Continuous
 62
     7
100
AcDbLine
 10
16.39999999902
 20
5.149999999699958
 30
0.0
 11
16.39999999902
 21
3.799999999679983
 31
0.0
  0
LINE
  5
2F4
330
221
100
AcDbEntity
  8
0
  6
Continuous
 62
     7
100
AcDbLine
 10
16.39999999902
 20
1.649999999459993
 30
0.0
 11
16.39999999902
 21
2.999999999479968
 31
0.0
  0
LINE
  5
2F5
330
221
100
AcDbEntity
  8
0
  6
Continuous
 62
     7
100
AcDbLine
 10
16.39999999902
 20
124.84999999978
 30
0.0
 11
16.39999999902
 21
126.1999999997999
 31
0.0
  0
LINE
  5
2F6
330
221
100
AcDbEntity
  8
03___PRT_ALL_CURVES
  6
Continuous
 62
     4
100
AcDbLine
 10
16.627558185
 20
119.2500000009199
 30
0.0
 11
16.627558185
 21
121.74999999964
 31
0.0
  0
LINE
  5
2F7
330
221
100
AcDbEntity
  8
03___PRT_ALL_CURVES
  6
Continuous
 62
     4
100
AcDbLine
 10
27.02018417390002
 20
65.45000000144
 30
0.0
 11
27.07830156338002
 21
65.64809004213996
 31
0.0
  0
LINE
  5
2F8
330
221
100
AcDbEntity
  8
03___PRT_ALL_CURVES
  6
Continuous
 62
     4
100
AcDbLine
 10
27.15933832282002
 20
65.90757162629995
 30
0.0
 11
27.29030694074001
 21
66.33894951385997
 31
0.0
  0
LINE
  5
2F9
330
221
100
AcDbEntity
  8
03___PRT_ALL_CURVES
  6
Continuous
 62
     4
100
AcDbLine
 10
27.09303540234004
 20
66.65000000173995
 30
0.0
 11
26.64201230134003
 21
65.45000000144
 31
0.0
  0
LINE
  5
2FD
330
221
100
AcDbEntity
  8
0
  6
Continuous
 62
     7
100
AcDbLine
 10
17.22330935062001
 20
20.17709593731996
 30
0.0
 11
20.25330934852002
 21
20.71136668995999
 31
0.0
  0
LINE
  5
2FE
330
221
100
AcDbEntity
  8
0
  6
Continuous
 62
     7
100
AcDbLine
 10
20.16648526003999
 20
21.20377056671998
 30
0.0
 11
17.13648526214001
 21
20.66949981407998
 31
0.0
  0
LINE
  5
2FF
330
221
100
AcDbEntity
  8
0
  6
Continuous
 62
     7
100
AcDbLine
 10
17.03146519532004
 20
13.59999997291999
 30
0.0
 11
19.36853480362001
 21
13.59999997291999
 31
0.0
  0
LINE
  5
300
330
221
100
AcDbEntity
  8
0
  6
Continuous
 62
     7
100
AcDbLine
 10
15.94999999986001
 20
15.25096186783995
 30
0.0
 11
18.19999999820001
 21
13.95192376233996
 31
0.0
  0
LINE
  5
301
330
221
100
AcDbEntity
  8
0
  6
Continuous
 62
     7
100
AcDbLine
 10
20.44999999908001
 20
17.84903807883998
 30
0.0
 11
18.19999999820001
 21
19.14807618433994
 31
0.0
  0
LINE
  5
302
330
221
100
AcDbEntity
  8
03___PRT_ALL_CURVES
  6
Continuous
 62
     4
100
AcDbLine
 10
17.01978178205999
 20
121.74999999964
 30
0.0
 11
17.01978178205999
 21
121.1633697454199
 31
0.0
  0
LINE
  5
303
330
221
100
AcDbEntity
  8
0
  6
Continuous
 62
     7
100
AcDbLine
 10
17.74999999904003
 20
2.999999999479968
 30
0.0
 11
17.74999999904003
 21
3.799999999679983
 31
0.0
  0
LINE
  5
304
330
221
100
AcDbEntity
  8
0
  6
Continuous
 62
     7
100
AcDbLine
 10
17.74999999904003
 20
126.1999999997999
 30
0.0
 11
17.74999999904003
 21
127.0
 31
0.0
  0
LINE
  5
305
330
221
100
AcDbEntity
  8
03___PRT_ALL_CURVES
  6
Continuous
 62
     4
100
AcDbLine
 10
19.04740841514001
 20
121.2810367643399
 30
0.0
 11
19.04740841514001
 21
121.74999999964
 31
0.0
  0
LINE
  5
306
330
221
100
AcDbEntity
  8
0
  6
Continuous
 62
     7
100
AcDbLine
 10
20.44999999908001
 20
79.84903807909996
 30
0.0
 11
20.44999999908001
 21
77.25096186809995
 31
0.0
  0
LINE
  5
307
330
221
100
AcDbEntity
  8
0
  6
Continuous
 62
     7
100
AcDbLine
 10
20.44999999908001
 20
42.84903807873999
 30
0.0
 11
20.44999999908001
 21
40.25096186773996
 31
0.0
  0
LINE
  5
308
330
221
100
AcDbEntity
  8
0
  6
Continuous
 62
     7
100
AcDbLine
 10
20.44999999908001
 20
15.25096186783995
 30
0.0
 11
20.44999999908001
 21
17.84903807883998
 31
0.0
  0
LINE
  5
309
330
221
100
AcDbEntity
  8
0
  6
Continuous
 62
     7
100
AcDbLine
 10
20.44999999908001
 20
52.25096186565997
 30
0.0
 11
20.44999999908001
 21
54.84903807919994
 31
0.0
  0
LINE
  5
30A
330
221
100
AcDbEntity
  8
02___PRT_ALL_AXES
  6
Continuous
 62
     7
100
AcDbLine
 10
21.39999999900002
 20
16.55000000127995
 30
0.0
 11
21.39999999900002
 21
20.46994854439998
 31
0.0
  0
LINE
  5
30B
330
221
100
AcDbEntity
  8
02___PRT_ALL_AXES
  6
Continuous
 62
     7
100
AcDbLine
 10
21.39999999900002
 20
37.63005145805997
 30
0.0
 11
21.39999999900002
 21
41.55000000117997
 31
0.0
  0
LINE
  5
30C
330
221
100
AcDbEntity
  8
02___PRT_ALL_AXES
  6
Continuous
 62
     7
100
AcDbLine
 10
21.39999999900002
 20
53.55000000163997
 30
0.0
 11
21.39999999900002
 21
57.46994854475994
 31
0.0
  0
LINE
  5
30D
330
221
100
AcDbEntity
  8
02___PRT_ALL_AXES
  6
Continuous
 62
     7
100
AcDbLine
 10
21.39999999900002
 20
74.63005145841996
 30
0.0
 11
21.39999999900002
 21
78.55000000153998
 31
0.0
  0
LINE
  5
30E
330
221
100
AcDbEntity
  8
02___PRT_ALL_AXES
  6
Continuous
 62
     7
100
AcDbLine
 10
22.09999999854
 20
129.99999999948
 30
0.0
 11
22.09999999854
 21
124.00000000052
 31
0.0
  0
LINE
  5
30F
330
221
100
AcDbEntity
  8
02___PRT_ALL_AXES
  6
Continuous
 62
     7
100
AcDbLine
 10
22.09999999854
 20
6.000000001499984
 30
0.0
 11
22.09999999854
 21
0.0
 31
0.0
  0
LINE
  5
310
330
221
100
AcDbEntity
  8
0
  6
Continuous
 62
     7
100
AcDbLine
 10
22.31499999780002
 20
23.76427072383996
 30
0.0
 11
22.31499999780002
 21
34.33572922019997
 31
0.0
  0
LINE
  5
311
330
221
100
AcDbEntity
  8
0
  6
Continuous
 62
     7
100
AcDbLine
 10
22.31499999780002
 20
60.76427072419997
 30
0.0
 11
22.31499999780002
 21
71.33572922055995
 31
0.0
  0
LINE
  5
312
330
221
100
AcDbEntity
  8
0
  6
Continuous
 62
     7
100
AcDbLine
 10
22.81499999855998
 20
71.33572922055995
 30
0.0
 11
22.81499999855998
 21
60.76427072419997
 31
0.0
  0
LINE
  5
313
330
221
100
AcDbEntity
  8
0
  6
Continuous
 62
     7
100
AcDbLine
 10
22.81499999855998
 20
34.33572922019997
 30
0.0
 11
22.81499999855998
 21
23.76427072383996
 31
0.0
  0
LINE
  5
314
330
221
100
AcDbEntity
  8
02___PRT_ALL_AXES
  6
Continuous
 62
     7
100
AcDbLine
 10
23.41499999998001
 20
23.76400000047997
 30
0.0
 11
23.41499999998001
 21
34.33599999943999
 31
0.0
  0
LINE
  5
315
330
221
100
AcDbEntity
  8
02___PRT_ALL_AXES
  6
Continuous
 62
     7
100
AcDbLine
 10
23.41499999998001
 20
60.76400000083996
 30
0.0
 11
23.41499999998001
 21
71.33599999979995
 31
0.0
  0
LINE
  5
316
330
221
100
AcDbEntity
  8
03___PRT_ALL_CURVES
  6
Continuous
 62
     4
100
AcDbLine
 10
23.69952232908003
 20
119.2500000009199
 30
0.0
 11
23.69952232908003
 21
119.8161664530399
 31
0.0
  0
LINE
  5
317
330
221
100
AcDbEntity
  8
03___PRT_ALL_CURVES
  6
Continuous
 62
     4
100
AcDbLine
 10
27.02018417390002
 20
28.45000000107999
 30
0.0
 11
27.07830156338002
 21
28.64809004177997
 31
0.0
  0
LINE
  5
318
330
221
100
AcDbEntity
  8
03___PRT_ALL_CURVES
  6
Continuous
 62
     4
100
AcDbLine
 10
27.15933832282002
 20
28.90757162593997
 30
0.0
 11
27.29030694074001
 21
29.33894951349998
 31
0.0
  0
LINE
  5
319
330
221
100
AcDbEntity
  8
03___PRT_ALL_CURVES
  6
Continuous
 62
     4
100
AcDbLine
 10
27.09303540234004
 20
29.65000000137996
 30
0.0
 11
26.64201230134003
 21
28.45000000107999
 31
0.0
  0
LINE
  5
31B
330
221
100
AcDbEntity
  8
0
  6
Continuous
 62
     7
100
AcDbLine
 10
18.19999999820001
 20
19.14807618433994
 30
0.0
 11
15.94999999986001
 21
17.84903807883998
 31
0.0
  0
LINE
  5
31C
330
221
100
AcDbEntity
  8
0
  6
Continuous
 62
     7
100
AcDbLine
 10
18.19999999820001
 20
13.95192376233996
 30
0.0
 11
20.44999999908001
 21
15.25096186783995
 31
0.0
  0
LINE
  5
31D
330
221
100
AcDbEntity
  8
03___PRT_ALL_CURVES
  6
Continuous
 62
     4
100
AcDbLine
 10
26.24337653270001
 20
29.22435195503996
 30
0.0
 11
26.57079814861999
 21
29.29720325459996
 31
0.0
  0
LINE
  5
31E
330
221
100
AcDbEntity
  8
02___PRT_ALL_AXES
  6
Continuous
 62
     7
100
AcDbLine
 10
24.59999999980002
 20
129.99999999948
 30
0.0
 11
24.59999999980002
 21
124.00000000052
 31
0.0
  0
LINE
  5
31F
330
221
100
AcDbEntity
  8
02___PRT_ALL_AXES
  6
Continuous
 62
     7
100
AcDbLine
 10
24.59999999980002
 20
6.000000001499984
 30
0.0
 11
24.59999999980002
 21
0.0
 31
0.0
  0
LINE
  5
320
330
221
100
AcDbEntity
  8
02___PRT_ALL_AXES
  6
Continuous
 62
     7
100
AcDbLine
 10
26.99999999786002
 20
129.99999999948
 30
0.0
 11
26.99999999786002
 21
124.00000000052
 31
0.0
  0
LINE
  5
321
330
221
100
AcDbEntity
  8
02___PRT_ALL_AXES
  6
Continuous
 62
     7
100
AcDbLine
 10
26.99999999786002
 20
6.000000001499984
 30
0.0
 11
26.99999999786002
 21
0.0
 31
0.0
  0
LINE
  5
322
330
221
100
AcDbEntity
  8
03___PRT_ALL_CURVES
  6
Continuous
 62
     4
100
AcDbLine
 10
28.06875180244
 20
66.65000000173995
 30
0.0
 11
28.06875180244
 21
65.45000000144
 31
0.0
  0
LINE
  5
323
330
221
100
AcDbEntity
  8
03___PRT_ALL_CURVES
  6
Continuous
 62
     4
100
AcDbLine
 10
28.06875180244
 20
29.65000000137996
 30
0.0
 11
28.06875180244
 21
28.45000000107999
 31
0.0
  0
LINE
  5
324
330
221
100
AcDbEntity
  8
03___PRT_ALL_CURVES
  6
Continuous
 62
     4
100
AcDbLine
 10
28.41745556782001
 20
28.45000000107999
 30
0.0
 11
28.41745556782001
 21
29.10811731831996
 31
0.0
  0
LINE
  5
325
330
221
100
AcDbEntity
  8
03___PRT_ALL_CURVES
  6
Continuous
 62
     4
100
AcDbLine
 10
28.41745556782001
 20
65.45000000144
 30
0.0
 11
28.41745556782001
 21
66.10811731867994
 31
0.0
  0
LINE
  5
326
330
221
100
AcDbEntity
  8
03___PRT_ALL_CURVES
  6
Continuous
 62
     4
100
AcDbLine
 10
28.86684188012001
 20
66.65000000173995
 30
0.0
 11
28.86684188012001
 21
65.98533422921997
 31
0.0
  0
LINE
  5
327
330
221
100
AcDbEntity
  8
03___PRT_ALL_CURVES
  6
Continuous
 62
     4
100
AcDbLine
 10
28.86684188012001
 20
29.65000000137996
 30
0.0
 11
28.86684188012001
 21
28.98533422885998
 31
0.0
  0
LINE
  5
328
330
221
100
AcDbEntity
  8
03___PRT_ALL_CURVES
  6
Continuous
 62
     4
100
AcDbLine
 10
29.21636418336001
 20
28.45000000107999
 30
0.0
 11
29.21636418336001
 21
29.65000000137996
 31
0.0
  0
LINE
  5
329
330
221
100
AcDbEntity
  8
03___PRT_ALL_CURVES
  6
Continuous
 62
     4
100
AcDbLine
 10
29.21636418336001
 20
65.45000000144
 30
0.0
 11
29.21636418336001
 21
66.65000000173995
 31
0.0
  0
LINE
  5
32A
330
221
100
AcDbEntity
  8
03___PRT_ALL_CURVES
  6
Continuous
 62
     4
100
AcDbLine
 10
29.47666434348
 20
66.34877219169996
 30
0.0
 11
29.47666434348
 21
66.07537519975997
 31
0.0
  0
LINE
  5
32B
330
221
100
AcDbEntity
  8
02___PRT_ALL_AXES
  6
Continuous
 62
     7
100
AcDbLine
 10
29.49999999912001
 20
129.99999999948
 30
0.0
 11
29.49999999912001
 21
124.00000000052
 31
0.0
  0
LINE
  5
32C
330
221
100
AcDbEntity
  8
02___PRT_ALL_AXES
  6
Continuous
 62
     7
100
AcDbLine
 10
29.49999999912001
 20
6.000000001499984
 30
0.0
 11
29.49999999912001
 21
0.0
 31
0.0
  0
LINE
  5
32D
330
221
100
AcDbEntity
  8
03___PRT_ALL_CURVES
  6
Continuous
 62
     4
100
AcDbLine
 10
29.82700547159999
 20
66.24972715483995
 30
0.0
 11
29.82700547159999
 21
65.45000000144
 31
0.0
  0
LINE
  5
32E
330
221
100
AcDbEntity
  8
03___PRT_ALL_CURVES
  6
Continuous
 62
     4
100
AcDbLine
 10
30.16424941230002
 20
65.45000000144
 30
0.0
 11
30.16424941230002
 21
66.67046389527994
 31
0.0
  0
LINE
  5
32F
330
221
100
AcDbEntity
  8
03___PRT_ALL_CURVES
  6
Continuous
 62
     4
100
AcDbLine
 10
30.38444060259999
 20
28.45000000107999
 30
0.0
 11
30.38444060259999
 21
28.72175989697999
 31
0.0
  0
LINE
  5
330
330
221
100
AcDbEntity
  8
03___PRT_ALL_CURVES
  6
Continuous
 62
     4
100
AcDbLine
 10
26.64201230134003
 20
28.45000000107999
 30
0.0
 11
27.02018417390002
 21
28.45000000107999
 31
0.0
  0
LINE
  5
331
330
221
100
AcDbEntity
  8
03___PRT_ALL_CURVES
  6
Continuous
 62
     4
100
AcDbLine
 10
27.55961116718004
 20
28.45000000107999
 30
0.0
 11
27.94842432909999
 21
28.45000000107999
 31
0.0
  0
LINE
  5
332
330
221
100
AcDbEntity
  8
03___PRT_ALL_CURVES
  6
Continuous
 62
     4
100
AcDbLine
 10
28.06875180244
 20
28.45000000107999
 30
0.0
 11
28.41745556782001
 21
28.45000000107999
 31
0.0
  0
LINE
  5
333
330
221
100
AcDbEntity
  8
03___PRT_ALL_CURVES
  6
Continuous
 62
     4
100
AcDbLine
 10
28.86684188012001
 20
28.45000000107999
 30
0.0
 11
29.21636418336001
 21
28.45000000107999
 31
0.0
  0
LINE
  5
334
330
221
100
AcDbEntity
  8
03___PRT_ALL_CURVES
  6
Continuous
 62
     4
100
AcDbLine
 10
29.38416775682003
 20
28.45000000107999
 30
0.0
 11
30.38444060259999
 21
28.45000000107999
 31
0.0
  0
LINE
  5
335
330
221
100
AcDbEntity
  8
03___PRT_ALL_CURVES
  6
Continuous
 62
     4
100
AcDbLine
 10
27.07830156338002
 20
28.64809004177997
 30
0.0
 11
27.49985670198001
 21
28.64809004177997
 31
0.0
  0
LINE
  5
336
330
221
100
AcDbEntity
  8
03___PRT_ALL_CURVES
  6
Continuous
 62
     4
100
AcDbLine
 10
30.38444060259999
 20
28.72175989697999
 30
0.0
 11
29.86384028490002
 21
28.72175989697999
 31
0.0
  0
LINE
  5
337
330
221
100
AcDbEntity
  8
03___PRT_ALL_CURVES
  6
Continuous
 62
     4
100
AcDbLine
 10
27.42291263692002
 20
28.90757162593997
 30
0.0
 11
27.15933832282002
 21
28.90757162593997
 31
0.0
  0
LINE
  5
338
330
221
100
AcDbEntity
  8
03___PRT_ALL_CURVES
  6
Continuous
 62
     4
100
AcDbLine
 10
29.21636418336001
 20
29.65000000137996
 30
0.0
 11
28.86684188012001
 21
29.65000000137996
 31
0.0
  0
LINE
  5
339
330
221
100
AcDbEntity
  8
03___PRT_ALL_CURVES
  6
Continuous
 62
     4
100
AcDbLine
 10
28.41499995170003
 20
29.65000000137996
 30
0.0
 11
28.06875180244
 21
29.65000000137996
 31
0.0
  0
LINE
  5
33A
330
221
100
AcDbEntity
  8
03___PRT_ALL_CURVES
  6
Continuous
 62
     4
100
AcDbLine
 10
27.49740108586002
 20
29.65000000137996
 30
0.0
 11
27.09303540234004
 21
29.65000000137996
 31
0.0
  0
LINE
  5
33B
330
221
100
AcDbEntity
  8
03___PRT_ALL_CURVES
  6
Continuous
 62
     4
100
AcDbLine
 10
29.40872448952001
 20
29.28738064787998
 30
0.0
 11
29.74269427370001
 21
29.26036837271997
 31
0.0
  0
LINE
  5
33C
330
221
100
AcDbEntity
  8
03___PRT_ALL_CURVES
  6
Continuous
 62
     4
100
AcDbLine
 10
26.58225783360001
 20
28.84290585483996
 30
0.0
 11
26.25729197604002
 21
28.94113232081995
 31
0.0
  0
LINE
  5
33D
330
221
100
AcDbEntity
  8
03___PRT_ALL_CURVES
  6
Continuous
 62
     4
100
AcDbLine
 10
28.41745556782001
 20
29.10811731831996
 30
0.0
 11
28.86684188012001
 21
28.45000000107999
 31
0.0
  0
LINE
  5
33E
330
221
100
AcDbEntity
  8
03___PRT_ALL_CURVES
  6
Continuous
 62
     4
100
AcDbLine
 10
27.94842432909999
 20
28.45000000107999
 30
0.0
 11
27.49740108586002
 21
29.65000000137996
 31
0.0
  0
LINE
  5
33F
330
221
100
AcDbEntity
  8
03___PRT_ALL_CURVES
  6
Continuous
 62
     4
100
AcDbLine
 10
27.29030694074001
 20
29.33894951349998
 30
0.0
 11
27.42291263692002
 21
28.90757162593997
 31
0.0
  0
LINE
  5
340
330
221
100
AcDbEntity
  8
03___PRT_ALL_CURVES
  6
Continuous
 62
     4
100
AcDbLine
 10
27.49985670198001
 20
28.64809004177997
 30
0.0
 11
27.55961116718004
 21
28.45000000107999
 31
0.0
  0
LINE
  5
341
330
221
100
AcDbEntity
  8
06___PRT_ALL_SURFS
  6
Continuous
 62
     7
100
AcDbLine
 10
31.99999999784004
 20
129.99999999948
 30
0.0
 11
31.99999999784004
 21
123.20000000032
 31
0.0
  0
LINE
  5
342
330
221
100
AcDbEntity
  8
0
  6
Continuous
 62
     7
100
AcDbLine
 10
31.99999999784004
 20
129.99999999948
 30
0.0
 11
31.99999999784004
 21
124.00000000052
 31
0.0
  0
LINE
  5
343
330
221
100
AcDbEntity
  8
06___PRT_ALL_SURFS
  6
Continuous
 62
     7
100
AcDbLine
 10
31.99999999784004
 20
6.800000001699971
 30
0.0
 11
31.99999999784004
 21
0.0
 31
0.0
  0
LINE
  5
344
330
221
100
AcDbEntity
  8
0
  6
Continuous
 62
     7
100
AcDbLine
 10
31.99999999784004
 20
6.000000001499984
 30
0.0
 11
31.99999999784004
 21
0.0
 31
0.0
  0
LINE
  5
345
330
221
100
AcDbEntity
  8
0
  6
Continuous
 62
     7
100
AcDbLine
 10
32.24999999822003
 20
6.000000001499984
 30
0.0
 11
32.24999999822003
 21
124.00000000052
 31
0.0
  0
LINE
  5
346
330
221
100
AcDbEntity
  8
0
  6
Continuous
 62
     7
100
AcDbLine
 10
17.13648526214001
 20
37.43050012996
 30
0.0
 11
20.16648526003999
 21
36.89622937985999
 31
0.0
  0
LINE
  5
347
330
221
100
AcDbEntity
  8
0
  6
Continuous
 62
     7
100
AcDbLine
 10
20.25330934852002
 20
37.38863325661995
 30
0.0
 11
17.22330935062001
 21
37.92290400671996
 31
0.0
  0
LINE
  5
348
330
221
100
AcDbEntity
  8
0
  6
Continuous
 62
     7
100
AcDbLine
 10
15.94999999986001
 20
40.25096186773996
 30
0.0
 11
18.19999999820001
 21
38.95192376223997
 31
0.0
  0
LINE
  5
349
330
221
100
AcDbEntity
  8
0
  6
Continuous
 62
     7
100
AcDbLine
 10
20.44999999908001
 20
42.84903807873999
 30
0.0
 11
18.19999999820001
 21
44.14807618423995
 31
0.0
  0
LINE
  5
34A
330
221
100
AcDbEntity
  8
03___PRT_ALL_CURVES
  6
Continuous
 62
     4
100
AcDbLine
 10
28.86684188012001
 20
28.98533422885998
 30
0.0
 11
28.41499995170003
 21
29.65000000137996
 31
0.0
  0
LINE
  5
34B
330
221
100
AcDbEntity
  8
0
  6
Continuous
 62
     7
100
AcDbLine
 10
17.03146506070004
 20
44.49999997365998
 30
0.0
 11
19.36853493824003
 21
44.49999997365998
 31
0.0
  0
LINE
  5
34C
330
221
100
AcDbEntity
  8
0
  6
Continuous
 62
     7
100
AcDbLine
 10
15.94999999986001
 20
52.25096186565997
 30
0.0
 11
18.19999999820001
 21
50.95192376015996
 31
0.0
  0
LINE
  5
34D
330
221
100
AcDbEntity
  8
03___PRT_ALL_CURVES
  6
Continuous
 62
     4
100
AcDbLine
 10
27.94842432909999
 20
65.45000000144
 30
0.0
 11
27.49740108586002
 21
66.65000000173995
 31
0.0
  0
LINE
  5
34E
330
221
100
AcDbEntity
  8
03___PRT_ALL_CURVES
  6
Continuous
 62
     4
100
AcDbLine
 10
27.29030694074001
 20
66.33894951385997
 30
0.0
 11
27.42291263692002
 21
65.90757162629995
 31
0.0
  0
LINE
  5
34F
330
221
100
AcDbEntity
  8
03___PRT_ALL_CURVES
  6
Continuous
 62
     4
100
AcDbLine
 10
12.20736713716002
 20
121.1019781537
 30
0.0
 11
12.48362900272002
 21
120.20327422086
 31
0.0
  0
LINE
  5
350
330
221
100
AcDbEntity
  8
03___PRT_ALL_CURVES
  6
Continuous
 62
     4
100
AcDbLine
 10
27.49985670198001
 20
65.64809004213996
 30
0.0
 11
27.55961116718004
 21
65.45000000144
 31
0.0
  0
LINE
  5
351
330
221
100
AcDbEntity
  8
03___PRT_ALL_CURVES
  6
Continuous
 62
     4
100
AcDbLine
 10
12.64392913678003
 20
119.6626875855
 30
0.0
 11
12.76841761018002
 21
119.2500000009199
 31
0.0
  0
LINE
  5
352
330
221
100
AcDbEntity
  8
03___PRT_ALL_CURVES
  6
Continuous
 62
     4
100
AcDbLine
 10
15.22237391638004
 20
120.22885400206
 30
0.0
 11
14.83015031932001
 21
121.74999999964
 31
0.0
  0
LINE
  5
353
330
221
100
AcDbEntity
  8
03___PRT_ALL_CURVES
  6
Continuous
 62
     4
100
AcDbLine
 10
14.44815845694004
 20
121.1565484408
 30
0.0
 11
14.93417473154003
 21
119.2500000009199
 31
0.0
  0
LINE
  5
354
330
221
100
AcDbEntity
  8
0
  6
Continuous
 62
     7
100
AcDbLine
 10
17.22330935062001
 20
57.17709593767995
 30
0.0
 11
20.25330934852002
 21
57.71136669031995
 31
0.0
  0
LINE
  5
355
330
221
100
AcDbEntity
  8
0
  6
Continuous
 62
     7
100
AcDbLine
 10
20.16648526003999
 20
58.20377056707997
 30
0.0
 11
17.13648526214001
 21
57.66949981443997
 31
0.0
  0
LINE
  5
356
330
221
100
AcDbEntity
  8
0
  6
Continuous
 62
     7
100
AcDbLine
 10
17.03146519532004
 20
50.59999997327995
 30
0.0
 11
19.36853480362001
 21
50.59999997327995
 31
0.0
  0
LINE
  5
357
330
221
100
AcDbEntity
  8
0
  6
Continuous
 62
     7
100
AcDbLine
 10
20.44999999908001
 20
54.84903807919994
 30
0.0
 11
18.19999999820001
 21
56.14807618469999
 31
0.0
  0
LINE
  5
358
330
221
100
AcDbEntity
  8
03___PRT_ALL_CURVES
  6
Continuous
 62
     4
100
AcDbLine
 10
28.41745556782001
 20
66.10811731867994
 30
0.0
 11
28.86684188012001
 21
65.45000000144
 31
0.0
  0
LINE
  5
359
330
221
100
AcDbEntity
  8
03___PRT_ALL_CURVES
  6
Continuous
 62
     4
100
AcDbLine
 10
28.86684188012001
 20
65.98533422921997
 30
0.0
 11
28.41499995170003
 21
66.65000000173995
 31
0.0
  0
LINE
  5
35A
330
221
100
AcDbEntity
  8
03___PRT_ALL_CURVES
  6
Continuous
 62
     4
100
AcDbLine
 10
13.57844503000001
 20
119.2500000009199
 30
0.0
 11
12.63881327198001
 21
121.74999999964
 31
0.0
  0
LINE
  5
35B
330
221
100
AcDbEntity
  8
03___PRT_ALL_CURVES
  6
Continuous
 62
     4
100
AcDbLine
 10
26.24337653270001
 20
66.22435195539998
 30
0.0
 11
26.57079814861999
 21
66.29720325496001
 31
0.0
  0
LINE
  5
35C
330
221
100
AcDbEntity
  8
03___PRT_ALL_CURVES
  6
Continuous
 62
     4
100
AcDbLine
 10
26.64201230134003
 20
65.45000000144
 30
0.0
 11
27.02018417390002
 21
65.45000000144
 31
0.0
  0
LINE
  5
35D
330
221
100
AcDbEntity
  8
03___PRT_ALL_CURVES
  6
Continuous
 62
     4
100
AcDbLine
 10
27.55961116718004
 20
65.45000000144
 30
0.0
 11
27.94842432909999
 21
65.45000000144
 31
0.0
  0
LINE
  5
35E
330
221
100
AcDbEntity
  8
03___PRT_ALL_CURVES
  6
Continuous
 62
     4
100
AcDbLine
 10
28.06875180244
 20
65.45000000144
 30
0.0
 11
28.41745556782001
 21
65.45000000144
 31
0.0
  0
LINE
  5
35F
330
221
100
AcDbEntity
  8
03___PRT_ALL_CURVES
  6
Continuous
 62
     4
100
AcDbLine
 10
28.86684188012001
 20
65.45000000144
 30
0.0
 11
29.21636418336001
 21
65.45000000144
 31
0.0
  0
LINE
  5
360
330
221
100
AcDbEntity
  8
03___PRT_ALL_CURVES
  6
Continuous
 62
     4
100
AcDbLine
 10
29.82700547159999
 20
65.45000000144
 30
0.0
 11
30.16424941230002
 21
65.45000000144
 31
0.0
  0
LINE
  5
361
330
221
100
AcDbEntity
  8
03___PRT_ALL_CURVES
  6
Continuous
 62
     4
100
AcDbLine
 10
27.07830156338002
 20
65.64809004213996
 30
0.0
 11
27.49985670198001
 21
65.64809004213996
 31
0.0
  0
LINE
  5
362
330
221
100
AcDbEntity
  8
03___PRT_ALL_CURVES
  6
Continuous
 62
     4
100
AcDbLine
 10
27.42291263692002
 20
65.90757162629995
 30
0.0
 11
27.15933832282002
 21
65.90757162629995
 31
0.0
  0
LINE
  5
363
330
221
100
AcDbEntity
  8
03___PRT_ALL_CURVES
  6
Continuous
 62
     4
100
AcDbLine
 10
29.21636418336001
 20
66.65000000173995
 30
0.0
 11
28.86684188012001
 21
66.65000000173995
 31
0.0
  0
LINE
  5
364
330
221
100
AcDbEntity
  8
03___PRT_ALL_CURVES
  6
Continuous
 62
     4
100
AcDbLine
 10
28.41499995170003
 20
66.65000000173995
 30
0.0
 11
28.06875180244
 21
66.65000000173995
 31
0.0
  0
LINE
  5
365
330
221
100
AcDbEntity
  8
03___PRT_ALL_CURVES
  6
Continuous
 62
     4
100
AcDbLine
 10
27.49740108586002
 20
66.65000000173995
 30
0.0
 11
27.09303540234004
 21
66.65000000173995
 31
0.0
  0
LINE
  5
366
330
221
100
AcDbEntity
  8
03___PRT_ALL_CURVES
  6
Continuous
 62
     4
100
AcDbLine
 10
30.16424941230002
 20
66.67046389527994
 30
0.0
 11
29.8883970176
 21
66.67046389527994
 31
0.0
  0
LINE
  5
367
330
221
100
AcDbEntity
  8
03___PRT_ALL_CURVES
  6
Continuous
 62
     4
100
AcDbLine
 10
26.58225783360001
 20
65.84290585519997
 30
0.0
 11
26.25729197604002
 21
65.94113231864
 31
0.0
  0
LINE
  5
368
330
221
100
AcDbEntity
  8
0
  6
Continuous
 62
     7
100
AcDbLine
 10
15.94999999986001
 20
77.25096186809995
 30
0.0
 11
18.19999999820001
 21
75.95192376005997
 31
0.0
  0
LINE
  5
369
330
221
100
AcDbEntity
  8
0
  6
Continuous
 62
     7
100
AcDbLine
 10
17.13648526214001
 20
74.43050013031993
 30
0.0
 11
20.16648526003999
 21
73.89622937767996
 31
0.0
  0
LINE
  5
36A
330
221
100
AcDbEntity
  8
0
  6
Continuous
 62
     7
100
AcDbLine
 10
20.25330934852002
 20
74.38863325443998
 30
0.0
 11
17.22330935062001
 21
74.92290400707995
 31
0.0
  0
LINE
  5
36B
330
221
100
AcDbEntity
  8
0
  6
Continuous
 62
     7
100
AcDbLine
 10
20.44999999908001
 20
79.84903807909996
 30
0.0
 11
18.19999999820001
 21
81.14807618459994
 31
0.0
  0
LINE
  5
36C
330
221
100
AcDbEntity
  8
0
  6
Continuous
 62
     7
100
AcDbLine
 10
17.03146506070004
 20
81.49999997147998
 30
0.0
 11
19.36853493824003
 21
81.49999997147998
 31
0.0
  0
LINE
  5
36D
330
221
100
AcDbEntity
  8
0
  6
Continuous
 62
     7
100
AcDbLine
 10
-0.2500000003799983
 20
91.80000000135996
 30
0.0
 11
32.24999999822003
 21
91.80000000135996
 31
0.0
  0
LINE
  5
36E
330
221
100
AcDbEntity
  8
0
  6
Continuous
 62
     7
100
AcDbLine
 10
-0.2500000003799983
 20
91.89999999948
 30
0.0
 11
32.24999999822003
 21
91.89999999948
 31
0.0
  0
LINE
  5
36F
330
221
100
AcDbEntity
  8
0
  6
Continuous
 62
     7
100
AcDbLine
 10
32.24999999822003
 20
116.89999999938
 30
0.0
 11
-0.2500000003799983
 21
116.89999999938
 31
0.0
  0
LINE
  5
370
330
221
100
AcDbEntity
  8
0
  6
Continuous
 62
     7
100
AcDbLine
 10
-0.2500000003799983
 20
117.0000000000399
 30
0.0
 11
32.24999999822003
 21
117.0000000000399
 31
0.0
  0
LINE
  5
371
330
221
100
AcDbEntity
  8
03___PRT_ALL_CURVES
  6
Continuous
 62
     4
100
AcDbLine
 10
10.73226482956002
 20
120.0685538654599
 30
0.0
 11
10.05525262504003
 21
120.2731923309599
 31
0.0
  0
LINE
  5
372
330
221
100
AcDbEntity
  8
03___PRT_ALL_CURVES
  6
Continuous
 62
     4
100
AcDbLine
 10
10.02626211914
 20
120.8632332387599
 30
0.0
 11
10.70839048818004
 21
121.01500678078
 31
0.0
  0
LINE
  5
373
330
221
100
AcDbEntity
  8
0
  6
Continuous
 62
     7
100
AcDbLine
 10
32.24999999822003
 20
117.60000000146
 30
0.0
 11
-0.2500000003799983
 21
117.60000000146
 31
0.0
  0
LINE
  5
374
330
221
100
AcDbEntity
  8
03___PRT_ALL_CURVES
  6
Continuous
 62
     4
100
AcDbLine
 10
10.85675330296002
 20
119.2500000009199
 30
0.0
 11
11.64461137164
 21
119.2500000009199
 31
0.0
  0
LINE
  5
375
330
221
100
AcDbEntity
  8
03___PRT_ALL_CURVES
  6
Continuous
 62
     4
100
AcDbLine
 10
12.76841761018002
 20
119.2500000009199
 30
0.0
 11
13.57844503000001
 21
119.2500000009199
 31
0.0
  0
LINE
  5
376
330
221
100
AcDbEntity
  8
03___PRT_ALL_CURVES
  6
Continuous
 62
     4
100
AcDbLine
 10
13.81548435780002
 20
119.2500000009199
 30
0.0
 11
14.44815845694004
 21
119.2500000009199
 31
0.0
  0
LINE
  5
377
330
221
100
AcDbEntity
  8
03___PRT_ALL_CURVES
  6
Continuous
 62
     4
100
AcDbLine
 10
14.93417473154003
 20
119.2500000009199
 30
0.0
 11
15.50716252638
 21
119.2500000009199
 31
0.0
  0
LINE
  5
378
330
221
100
AcDbEntity
  8
03___PRT_ALL_CURVES
  6
Continuous
 62
     4
100
AcDbLine
 10
15.9948840884
 20
119.2500000009199
 30
0.0
 11
16.627558185
 21
119.2500000009199
 31
0.0
  0
LINE
  5
379
330
221
100
AcDbEntity
  8
03___PRT_ALL_CURVES
  6
Continuous
 62
     4
100
AcDbLine
 10
17.44099588502002
 20
119.2500000009199
 30
0.0
 11
18.13335628592
 21
119.2500000009199
 31
0.0
  0
LINE
  5
37A
330
221
100
AcDbEntity
  8
03___PRT_ALL_CURVES
  6
Continuous
 62
     4
100
AcDbLine
 10
21.61562116288002
 20
119.2500000009199
 30
0.0
 11
23.69952232908003
 21
119.2500000009199
 31
0.0
  0
LINE
  5
37B
330
221
100
AcDbEntity
  8
03___PRT_ALL_CURVES
  6
Continuous
 62
     4
100
AcDbLine
 10
11.76568926765998
 20
119.6626875855
 30
0.0
 11
12.64392913678003
 21
119.6626875855
 31
0.0
  0
LINE
  5
37C
330
221
100
AcDbEntity
  8
03___PRT_ALL_CURVES
  6
Continuous
 62
     4
100
AcDbLine
 10
23.69952232908003
 20
119.8161664530399
 30
0.0
 11
22.61493833366001
 21
119.8161664530399
 31
0.0
  0
LINE
  5
37D
330
221
100
AcDbEntity
  8
03___PRT_ALL_CURVES
  6
Continuous
 62
     4
100
AcDbLine
 10
12.48362900272002
 20
120.20327422086
 30
0.0
 11
11.93451584644001
 21
120.20327422086
 31
0.0
  0
LINE
  5
37E
330
221
100
AcDbEntity
  8
03___PRT_ALL_CURVES
  6
Continuous
 62
     4
100
AcDbLine
 10
17.01978178205999
 20
121.1633697454199
 30
0.0
 11
18.25443418194001
 21
121.1633697454199
 31
0.0
  0
LINE
  5
37F
330
221
100
AcDbEntity
  8
03___PRT_ALL_CURVES
  6
Continuous
 62
     4
100
AcDbLine
 10
19.04740841514001
 20
121.74999999964
 30
0.0
 11
17.01978178205999
 21
121.74999999964
 31
0.0
  0
LINE
  5
380
330
221
100
AcDbEntity
  8
03___PRT_ALL_CURVES
  6
Continuous
 62
     4
100
AcDbLine
 10
16.627558185
 20
121.74999999964
 30
0.0
 11
15.61118693606002
 21
121.74999999964
 31
0.0
  0
LINE
  5
381
330
221
100
AcDbEntity
  8
03___PRT_ALL_CURVES
  6
Continuous
 62
     4
100
AcDbLine
 10
14.83015031932001
 20
121.74999999964
 30
0.0
 11
13.81548435780002
 21
121.74999999964
 31
0.0
  0
LINE
  5
382
330
221
100
AcDbEntity
  8
03___PRT_ALL_CURVES
  6
Continuous
 62
     4
100
AcDbLine
 10
12.63881327198001
 20
121.74999999964
 30
0.0
 11
11.79638476634003
 21
121.74999999964
 31
0.0
  0
LINE
  5
383
330
221
100
AcDbEntity
  8
06___PRT_ALL_SURFS
  6
Continuous
 62
     7
100
AcDbLine
 10
31.99999999784004
 20
123.0000000015399
 30
0.0
 11
0.0
 21
123.0000000015399
 31
0.0
  0
LINE
  5
384
330
221
100
AcDbEntity
  8
06___PRT_ALL_SURFS
  6
Continuous
 62
     7
100
AcDbLine
 10
31.99999999784004
 20
123.20000000032
 30
0.0
 11
0.0
 21
123.20000000032
 31
0.0
  0
LINE
  5
385
330
221
100
AcDbEntity
  8
0
  6
Continuous
 62
     7
100
AcDbLine
 10
32.24999999822003
 20
124.00000000052
 30
0.0
 11
-0.2500000003799983
 21
124.00000000052
 31
0.0
  0
LINE
  5
386
330
221
100
AcDbEntity
  8
0
  6
Continuous
 62
     7
100
AcDbLine
 10
16.39999999902
 20
124.84999999978
 30
0.0
 11
15.59999999882004
 21
124.84999999978
 31
0.0
  0
LINE
  5
387
330
221
100
AcDbEntity
  8
0
  6
Continuous
 62
     7
100
AcDbLine
 10
17.74999999904003
 20
126.1999999997999
 30
0.0
 11
16.39999999902
 21
126.1999999997999
 31
0.0
  0
LINE
  5
388
330
221
100
AcDbEntity
  8
0
  6
Continuous
 62
     7
100
AcDbLine
 10
14.24999999880001
 20
126.1999999997999
 30
0.0
 11
15.59999999882004
 21
126.1999999997999
 31
0.0
  0
LINE
  5
389
330
221
100
AcDbEntity
  8
0
  6
Continuous
 62
     7
100
AcDbLine
 10
14.24999999880001
 20
127.0
 30
0.0
 11
15.59999999882004
 21
127.0
 31
0.0
  0
LINE
  5
38A
330
221
100
AcDbEntity
  8
0
  6
Continuous
 62
     7
100
AcDbLine
 10
16.39999999902
 20
127.0
 30
0.0
 11
17.74999999904003
 21
127.0
 31
0.0
  0
LINE
  5
38B
330
221
100
AcDbEntity
  8
0
  6
Continuous
 62
     7
100
AcDbLine
 10
15.59999999882004
 20
128.3500000000199
 30
0.0
 11
16.39999999902
 21
128.3500000000199
 31
0.0
  0
LINE
  5
38C
330
221
100
AcDbEntity
  8
02___PRT_ALL_AXES
  6
Continuous
 62
     7
100
AcDbLine
 10
31.99999999784004
 20
129.99999999948
 30
0.0
 11
0.0
 21
129.99999999948
 31
0.0
  0
LINE
  5
38D
330
221
100
AcDbEntity
  8
06___PRT_ALL_SURFS
  6
Continuous
 62
     7
100
AcDbLine
 10
0.0
 20
129.99999999948
 30
0.0
 11
31.99999999784004
 21
129.99999999948
 31
0.0
  0
LINE
  5
38E
330
221
100
AcDbEntity
  8
03___PRT_ALL_CURVES
  6
Continuous
 62
     4
100
AcDbLine
 10
21.66678102246001
 20
120.9945430167799
 30
0.0
 11
22.36255080948001
 21
120.93826743972
 31
0.0
  0
ARC
  5
38F
330
221
100
AcDbEntity
  8
0
  6
Continuous
 62
     7
100
AcDbCircle
 10
1.549999998800018
 20
92.80000000033996
 30
0.0
 40
0.9999999989799999
100
AcDbArc
 50
245.5491792545999
 51
270.0
  0
ARC
  5
390
330
221
100
AcDbEntity
  8
0
  6
Continuous
 62
     7
100
AcDbCircle
 10
1.549999998800018
 20
116.00000000106
 30
0.0
 40
0.9999999989799999
100
AcDbArc
 50
90.0
 51
114.4508207454001
  0
ARC
  5
391
330
221
100
AcDbEntity
  8
02___PRT_ALL_AXES
  6
Continuous
 62
     7
100
AcDbCircle
 10
16.68499999798001
 20
23.23000000167997
 30
0.0
 40
3.69999999902
100
AcDbArc
 50
180.0
 51
242.9089782415
  0
ARC
  5
392
330
221
100
AcDbEntity
  8
0
  6
Continuous
 62
     7
100
AcDbCircle
 10
16.68499999798001
 20
23.22999997373998
 30
0.0
 40
3.10000000014
100
AcDbArc
 50
180.0000000001999
 51
279.9999999997
  0
ARC
  5
393
330
221
100
AcDbEntity
  8
0
  6
Continuous
 62
     7
100
AcDbCircle
 10
15.99999999892
 20
3.399999999579961
 30
0.0
 40
2.84999999976
100
AcDbArc
 50
113.7203254665
 51
66.27967453810001
  0
ARC
  5
394
330
221
100
AcDbEntity
  8
0
  6
Continuous
 62
     7
100
AcDbCircle
 10
15.99999999892
 20
3.399999999579961
 30
0.0
 40
2.7499999991
100
AcDbArc
 50
108.8395913588
 51
71.16040866799997
  0
ARC
  5
395
330
221
100
AcDbEntity
  8
0
  6
Continuous
 62
     7
100
AcDbCircle
 10
16.68499999798001
 20
23.22999997373998
 30
0.0
 40
2.59999999938
100
AcDbArc
 50
180.0000000001999
 51
279.9999999997
  0
CIRCLE
  5
396
330
221
100
AcDbEntity
  8
06___PRT_ALL_SURFS
  6
Continuous
 62
     7
100
AcDbCircle
 10
15.99999999892
 20
3.399999999579961
 30
0.0
 40
1.6000000004
  0
CIRCLE
  5
397
330
221
100
AcDbEntity
  8
0
  6
Continuous
 62
     7
100
AcDbCircle
 10
16.77999999848004
 20
23.50999997253999
 30
0.0
 40
0.50000000076
  0
ARC
  5
398
330
221
100
AcDbEntity
  8
02___PRT_ALL_AXES
  6
Continuous
 62
     7
100
AcDbCircle
 10
16.68499999798001
 20
60.22999999949997
 30
0.0
 40
3.69999999902
100
AcDbArc
 50
180.0
 51
242.9089782415
  0
ARC
  5
399
330
221
100
AcDbEntity
  8
02___PRT_ALL_AXES
  6
Continuous
 62
     7
100
AcDbCircle
 10
16.68499999798001
 20
34.87000000077995
 30
0.0
 40
3.69999999902
100
AcDbArc
 50
117.0910217585
 51
180.0
  0
ARC
  5
39A
330
221
100
AcDbEntity
  8
0
  6
Continuous
 62
     7
100
AcDbCircle
 10
16.68499999798001
 20
60.22999997155998
 30
0.0
 40
3.10000000014
100
AcDbArc
 50
180.0000000001999
 51
279.9999999997
  0
ARC
  5
39B
330
221
100
AcDbEntity
  8
0
  6
Continuous
 62
     7
100
AcDbCircle
 10
16.68499999798001
 20
34.86999997283993
 30
0.0
 40
3.10000000014
100
AcDbArc
 50
80.00000000030003
 51
179.9999999998
  0
ARC
  5
39C
330
221
100
AcDbEntity
  8
0
  6
Continuous
 62
     7
100
AcDbCircle
 10
16.68499999798001
 20
60.22999997155998
 30
0.0
 40
2.59999999938
100
AcDbArc
 50
180.0000000001999
 51
279.9999999997
  0
ARC
  5
39D
330
221
100
AcDbEntity
  8
0
  6
Continuous
 62
     7
100
AcDbCircle
 10
16.68499999798001
 20
34.86999997283993
 30
0.0
 40
2.59999999938
100
AcDbArc
 50
80.00000000030003
 51
179.9999999998
  0
CIRCLE
  5
39E
330
221
100
AcDbEntity
  8
0
  6
Continuous
 62
     7
100
AcDbCircle
 10
16.77999999848004
 20
60.50999997289998
 30
0.0
 40
0.50000000076
  0
CIRCLE
  5
39F
330
221
100
AcDbEntity
  8
0
  6
Continuous
 62
     7
100
AcDbCircle
 10
16.77999999848004
 20
34.58999997149999
 30
0.0
 40
0.50000000076
  0
ARC
  5
3A0
330
221
100
AcDbEntity
  8
02___PRT_ALL_AXES
  6
Continuous
 62
     7
100
AcDbCircle
 10
19.71499999842001
 20
23.76400000047997
 30
0.0
 40
3.69999999902
100
AcDbArc
 50
297.0910217584999
 51
0.0
  0
ARC
  5
3A1
330
221
100
AcDbEntity
  8
02___PRT_ALL_AXES
  6
Continuous
 62
     7
100
AcDbCircle
 10
18.19999999820001
 20
16.55000000127995
 30
0.0
 40
3.2000000008
100
AcDbArc
 50
180.0
 51
0.0
  0
ARC
  5
3A2
330
221
100
AcDbEntity
  8
0
  6
Continuous
 62
     7
100
AcDbCircle
 10
19.71499999842001
 20
23.76427072383996
 30
0.0
 40
3.10000000014
100
AcDbArc
 50
279.9999999998999
 51
359.9999999998
  0
ARC
  5
3A3
330
221
100
AcDbEntity
  8
0
  6
Continuous
 62
     7
100
AcDbCircle
 10
19.71499999842001
 20
23.76427072383996
 30
0.0
 40
2.59999999938
100
AcDbArc
 50
279.9999999998999
 51
359.9999999974
  0
CIRCLE
  5
3A4
330
221
100
AcDbEntity
  8
0
  6
Continuous
 62
     7
100
AcDbCircle
 10
18.19999999820001
 20
16.54999997333996
 30
0.0
 40
1.30000000096
  0
CIRCLE
  5
3A5
330
221
100
AcDbEntity
  8
0
  6
Continuous
 62
     7
100
AcDbCircle
 10
19.61999999792002
 20
24.89499997367997
 30
0.0
 40
0.50000000076
  0
ARC
  5
3A6
330
221
100
AcDbEntity
  8
02___PRT_ALL_AXES
  6
Continuous
 62
     7
100
AcDbCircle
 10
19.71499999842001
 20
60.76400000083996
 30
0.0
 40
3.69999999902
100
AcDbArc
 50
297.0910217584999
 51
0.0
  0
ARC
  5
3A7
330
221
100
AcDbEntity
  8
02___PRT_ALL_AXES
  6
Continuous
 62
     7
100
AcDbCircle
 10
19.71499999842001
 20
34.33599999943999
 30
0.0
 40
3.69999999902
100
AcDbArc
 50
0.0
 51
62.90897824149996
  0
ARC
  5
3A8
330
221
100
AcDbEntity
  8
02___PRT_ALL_AXES
  6
Continuous
 62
     7
100
AcDbCircle
 10
18.19999999820001
 20
53.55000000163997
 30
0.0
 40
3.2000000008
100
AcDbArc
 50
180.0
 51
0.0
  0
ARC
  5
3A9
330
221
100
AcDbEntity
  8
02___PRT_ALL_AXES
  6
Continuous
 62
     7
100
AcDbCircle
 10
18.19999999820001
 20
41.55000000117997
 30
0.0
 40
3.2000000008
100
AcDbArc
 50
0.0
 51
180.0
  0
ARC
  5
3AA
330
221
100
AcDbEntity
  8
0
  6
Continuous
 62
     7
100
AcDbCircle
 10
19.71499999842001
 20
60.76427072419997
 30
0.0
 40
3.10000000014
100
AcDbArc
 50
279.9999999998999
 51
359.9999999998
  0
ARC
  5
3AB
330
221
100
AcDbEntity
  8
0
  6
Continuous
 62
     7
100
AcDbCircle
 10
19.71499999842001
 20
34.33572922019997
 30
0.0
 40
3.10000000014
100
AcDbArc
 50
0.0000000002000442
 51
80.00000000010006
  0
ARC
  5
3AC
330
221
100
AcDbEntity
  8
0
  6
Continuous
 62
     7
100
AcDbCircle
 10
19.71499999842001
 20
60.76427072419997
 30
0.0
 40
2.59999999938
100
AcDbArc
 50
279.9999999998999
 51
359.9999999974
  0
ARC
  5
3AD
330
221
100
AcDbEntity
  8
0
  6
Continuous
 62
     7
100
AcDbCircle
 10
19.71499999842001
 20
34.33572922019997
 30
0.0
 40
2.59999999938
100
AcDbArc
 50
0.0000000002999899
 51
80.00000000010006
  0
CIRCLE
  5
3AE
330
221
100
AcDbEntity
  8
0
  6
Continuous
 62
     7
100
AcDbCircle
 10
18.19999999820001
 20
53.54999997369998
 30
0.0
 40
1.30000000096
  0
CIRCLE
  5
3AF
330
221
100
AcDbEntity
  8
0
  6
Continuous
 62
     7
100
AcDbCircle
 10
18.19999999820001
 20
41.54999997323995
 30
0.0
 40
1.30000000096
  0
CIRCLE
  5
3B0
330
221
100
AcDbEntity
  8
0
  6
Continuous
 62
     7
100
AcDbCircle
 10
19.61999999792002
 20
61.89499997149997
 30
0.0
 40
0.50000000076
  0
CIRCLE
  5
3B1
330
221
100
AcDbEntity
  8
0
  6
Continuous
 62
     7
100
AcDbCircle
 10
19.61999999792002
 20
33.2049999729
 30
0.0
 40
0.50000000076
  0
ARC
  5
3B2
330
221
100
AcDbEntity
  8
02___PRT_ALL_AXES
  6
Continuous
 62
     7
100
AcDbCircle
 10
19.71499999842001
 20
71.33599999979995
 30
0.0
 40
3.69999999902
100
AcDbArc
 50
0.0
 51
62.90897824149996
  0
ARC
  5
3B3
330
221
100
AcDbEntity
  8
02___PRT_ALL_AXES
  6
Continuous
 62
     7
100
AcDbCircle
 10
16.68499999798001
 20
71.87000000113997
 30
0.0
 40
3.69999999902
100
AcDbArc
 50
117.0910217585
 51
180.0
  0
ARC
  5
3B4
330
221
100
AcDbEntity
  8
02___PRT_ALL_AXES
  6
Continuous
 62
     7
100
AcDbCircle
 10
18.19999999820001
 20
78.55000000153998
 30
0.0
 40
3.2000000008
100
AcDbArc
 50
0.0
 51
180.0
  0
ARC
  5
3B5
330
221
100
AcDbEntity
  8
0
  6
Continuous
 62
     7
100
AcDbCircle
 10
19.71499999842001
 20
71.33572922055995
 30
0.0
 40
3.10000000014
100
AcDbArc
 50
0.0000000002000442
 51
80.00000000010006
  0
ARC
  5
3B6
330
221
100
AcDbEntity
  8
0
  6
Continuous
 62
     7
100
AcDbCircle
 10
16.68499999798001
 20
71.86999997319998
 30
0.0
 40
3.10000000014
100
AcDbArc
 50
80.00000000030003
 51
179.9999999998
  0
ARC
  5
3B7
330
221
100
AcDbEntity
  8
0
  6
Continuous
 62
     7
100
AcDbCircle
 10
15.99999999892
 20
126.5999999998999
 30
0.0
 40
2.84999999976
100
AcDbArc
 50
293.7203254654
 51
246.2796745503999
  0
ARC
  5
3B8
330
221
100
AcDbEntity
  8
0
  6
Continuous
 62
     7
100
AcDbCircle
 10
15.99999999892
 20
126.5999999998999
 30
0.0
 40
2.7499999991
100
AcDbArc
 50
288.8395913588
 51
251.1604086680001
  0
ARC
  5
3B9
330
221
100
AcDbEntity
  8
0
  6
Continuous
 62
     7
100
AcDbCircle
 10
16.68499999798001
 20
71.86999997319998
 30
0.0
 40
2.59999999938
100
AcDbArc
 50
80.00000000030003
 51
179.9999999998
  0
ARC
  5
3BA
330
221
100
AcDbEntity
  8
0
  6
Continuous
 62
     7
100
AcDbCircle
 10
19.71499999842001
 20
71.33572922055995
 30
0.0
 40
2.59999999938
100
AcDbArc
 50
0.0000000002999899
 51
80.00000000010006
  0
CIRCLE
  5
3BB
330
221
100
AcDbEntity
  8
06___PRT_ALL_SURFS
  6
Continuous
 62
     7
100
AcDbCircle
 10
15.99999999892
 20
126.5999999998999
 30
0.0
 40
1.6000000004
  0
CIRCLE
  5
3BC
330
221
100
AcDbEntity
  8
0
  6
Continuous
 62
     7
100
AcDbCircle
 10
18.19999999820001
 20
78.5499999736
 30
0.0
 40
1.30000000096
  0
ARC
  5
3BD
330
221
100
AcDbEntity
  8
0
  6
Continuous
 62
     7
100
AcDbCircle
 10
30.44999999904002
 20
116.00000000106
 30
0.0
 40
0.9999999989799999
100
AcDbArc
 50
65.54917925470001
 51
90.0
  0
ARC
  5
3BE
330
221
100
AcDbEntity
  8
0
  6
Continuous
 62
     7
100
AcDbCircle
 10
30.44999999904002
 20
92.80000000033996
 30
0.0
 40
0.9999999989799999
100
AcDbArc
 50
270.0
 51
294.4508207453999
  0
CIRCLE
  5
3BF
330
221
100
AcDbEntity
  8
0
  6
Continuous
 62
     7
100
AcDbCircle
 10
19.61999999792002
 20
70.20499997325999
 30
0.0
 40
0.50000000076
  0
CIRCLE
  5
3C0
330
221
100
AcDbEntity
  8
0
  6
Continuous
 62
     7
100
AcDbCircle
 10
16.77999999848004
 20
71.58999997185998
 30
0.0
 40
0.50000000076
  0
ENDSEC
  0
SECTION
  2
OBJECTS
  0
DICTIONARY
  5
C
330
0
100
AcDbDictionary
281
     1
  3
ACAD_CIP_PREVIOUS_PRODUCT_INFO
350
41D
  3
ACAD_COLOR
350
3F7
  3
ACAD_DETAILVIEWSTYLE
350
410
  3
ACAD_GROUP
350
D
  3
ACAD_LAYOUT
350
1A
  3
ACAD_MATERIAL
350
3C5
  3
ACAD_MLEADERSTYLE
350
40C
  3
ACAD_MLINESTYLE
350
17
  3
ACAD_PLOTSETTINGS
350
19
  3
ACAD_PLOTSTYLENAME
350
E
  3
ACAD_SCALELIST
350
3FA
  3
ACAD_SECTIONVIEWSTYLE
350
40E
  3
ACAD_TABLESTYLE
350
3F8
  3
ACAD_VISUALSTYLE
350
3DE
  3
ACDB_RECOMPOSE_DATA
350
42A
  3
AcDbVariableDictionary
350
412
  0
DICTIONARY
  5
421
330
2
100
AcDbDictionary
280
     1
281
     1
  3
ACAD_LAYERSTATES
360
422
  0
XRECORD
  5
41D
102
{ACAD_REACTORS
330
C
102
}
330
C
100
AcDbXrecord
280
     1
300
ACD
300
2018
300
ACD_F_S
  0
DICTIONARY
  5
3F7
102
{ACAD_REACTORS
330
C
102
}
330
C
100
AcDbDictionary
281
     1
  0
DICTIONARY
  5
410
102
{ACAD_REACTORS
330
C
102
}
330
C
100
AcDbDictionary
281
     1
  3
Imperial24
350
411
  0
DICTIONARY
  5
D
102
{ACAD_REACTORS
330
C
102
}
330
C
100
AcDbDictionary
281
     1
  0
DICTIONARY
  5
1A
102
{ACAD_REACTORS
330
C
102
}
330
C
100
AcDbDictionary
281
     1
  3
Layout1
350
3C2
  3
Model
350
3C1
  0
DICTIONARY
  5
3C5
102
{ACAD_REACTORS
330
C
102
}
330
C
100
AcDbDictionary
281
     1
  3
ByBlock
350
3CE
  3
ByLayer
350
3C6
  3
Global
350
3D6
  0
DICTIONARY
  5
40C
102
{ACAD_REACTORS
330
C
102
}
330
C
100
AcDbDictionary
281
     1
  3
Standard
350
40D
  0
DICTIONARY
  5
17
102
{ACAD_REACTORS
330
C
102
}
330
C
100
AcDbDictionary
281
     1
  3
Standard
350
18
  0
DICTIONARY
  5
19
102
{ACAD_REACTORS
330
C
102
}
330
C
100
AcDbDictionary
281
     1
  0
ACDBDICTIONARYWDFLT
  5
E
102
{ACAD_REACTORS
330
C
102
}
330
C
100
AcDbDictionary
281
     1
  3
Normal
350
F
100
AcDbDictionaryWithDefault
340
F
  0
DICTIONARY
  5
3FA
102
{ACAD_REACTORS
330
C
102
}
330
C
100
AcDbDictionary
281
     1
  3
A0
350
3FB
  3
A1
350
3FC
  3
A2
350
3FD
  3
A3
350
3FE
  3
A4
350
3FF
  3
A5
350
400
  3
A6
350
401
  3
A7
350
402
  3
A8
350
403
  3
A9
350
404
  3
B0
350
405
  3
B1
350
406
  3
B2
350
407
  3
B3
350
408
  3
B4
350
409
  3
B5
350
40A
  3
B6
350
40B
  0
DICTIONARY
  5
40E
102
{ACAD_REACTORS
330
C
102
}
330
C
100
AcDbDictionary
281
     1
  3
Imperial24
350
40F
  0
DICTIONARY
  5
3F8
102
{ACAD_REACTORS
330
C
102
}
330
C
100
AcDbDictionary
281
     1
  3
Standard
350
3F9
  0
DICTIONARY
  5
3DE
102
{ACAD_REACTORS
330
C
102
}
330
C
100
AcDbDictionary
281
     1
  3
2dWireframe
350
3E4
  3
Basic
350
3E3
  3
Brighten
350
3EA
  3
ColorChange
350
3EE
  3
Conceptual
350
3E7
  3
Dim
350
3E9
  3
EdgeColorOff
350
3F6
  3
Facepattern
350
3ED
  3
Flat
350
3DF
  3
FlatWithEdges
350
3E0
  3
Gouraud
350
3E1
  3
GouraudWithEdges
350
3E2
  3
Hidden
350
3E6
  3
JitterOff
350
3F4
  3
Linepattern
350
3EC
  3
OverhangOff
350
3F5
  3
Realistic
350
3E8
  3
Shaded
350
3F3
  3
Shaded with edges
350
3F2
  3
Shades of Gray
350
3EF
  3
Sketchy
350
3F0
  3
Thicken
350
3EB
  3
Wireframe
350
3E5
  3
X-Ray
350
3F1
  0
XRECORD
  5
42A
102
{ACAD_REACTORS
330
C
102
}
330
C
100
AcDbXrecord
280
     1
 90
        1
330
3F9
  0
DICTIONARY
  5
412
102
{ACAD_REACTORS
330
C
102
}
330
C
100
AcDbDictionary
281
     1
  3
CANNOSCALE
350
417
  3
CMLEADERSTYLE
350
414
  3
CTABLESTYLE
350
413
  3
CVIEWDETAILSTYLE
350
415
  3
CVIEWSECTIONSTYLE
350
416
  0
DICTIONARY
  5
422
102
{ACAD_REACTORS
330
421
102
}
330
421
100
AcDbDictionary
281
     1
  0
ACDBDETAILVIEWSTYLE
  5
411
102
{ACAD_REACTORS
330
410
102
}
330
410
100
AcDbModelDocViewStyle
 70
     0
  3
Imperial24
290
     0
300
Imperial24
 90
        0
100
AcDbDetailViewStyle
 70
     0
 71
     0
 90
        3
 71
     1
340
11
 62
   256
 40
0.24
340
0
 62
   256
 40
0.24
300

 40
0.36
280
     3
 71
     2
340
16
 90
       25
 62
   256
 71
     3
340
11
 62
   256
 40
0.24
 90
        1
 40
0.75
 90
        1
300
%<\AcVar ViewType \f "%tc1">% %<\AcVar ViewDetailId>%\PSCALE %<\AcVar ViewScale \f "%sn">%
 71
     4
340
16
 90
       25
 62
   256
340
16
 90
       25
 62
   256
280
     0
  0
LAYOUT
  5
3C2
102
{ACAD_REACTORS
330
1A
102
}
330
1A
100
AcDbPlotSettings
  1

  2
none_device
  4
ANSI_C_(22.00_x_17.00_Inches)
  6

 40
0.0
 41
0.0
 42
0.0
 43
0.0
 44
558.8
 45
431.8
 46
0.0
 47
0.0
 48
0.0
 49
0.0
140
0.0
141
0.0
142
1.0
143
1.0
 70
     0
 72
     0
 73
     0
 74
     0
  7

 75
     0
 76
     0
 77
     2
 78
   300
147
1.0
148
0.0
149
0.0
100
AcDbLayout
  1
Layout1
 70
     1
 71
     1
 10
0.0
 20
0.0
 11
12.0
 21
9.0
 12
0.0
 22
0.0
 32
0.0
 14
1.000000000000000E+20
 24
1.000000000000000E+20
 34
1.000000000000000E+20
 15
-1.000000000000000E+20
 25
-1.000000000000000E+20
 35
-1.000000000000000E+20
146
0.0
 13
0.0
 23
0.0
 33
0.0
 16
1.0
 26
0.0
 36
0.0
 17
0.0
 27
1.0
 37
0.0
 76
     0
330
222
  0
LAYOUT
  5
3C1
102
{ACAD_REACTORS
330
1A
102
}
330
1A
100
AcDbPlotSettings
  1

  2
none_device
  4
ANSI_C_(22.00_x_17.00_Inches)
  6

 40
0.0
 41
0.0
 42
0.0
 43
0.0
 44
558.8
 45
431.8
 46
0.0
 47
0.0
 48
0.0
 49
0.0
140
0.0
141
0.0
142
1.0
143
1.0
 70
  1024
 72
     0
 73
     0
 74
     0
  7

 75
     0
 76
     0
 77
     2
 78
   300
147
1.0
148
0.0
149
0.0
100
AcDbLayout
  1
Model
 70
     0
 71
     0
 10
0.0
 20
0.0
 11
22.0
 21
17.0
 12
0.0
 22
0.0
 32
0.0
 14
0.0
 24
0.0
 34
0.0
 15
0.0
 25
0.0
 35
0.0
146
0.0
 13
0.0
 23
0.0
 33
0.0
 16
1.0
 26
0.0
 36
0.0
 17
0.0
 27
1.0
 37
0.0
 76
     0
330
221
331
1F4
  0
MATERIAL
  5
3CE
102
{ACAD_REACTORS
330
3C5
102
}
330
3C5
100
AcDbMaterial
  1
ByBlock
 72
     0
 73
     2
 43
0.0208333333333333
 43
0.0
 43
0.0
 43
0.0
 43
0.0
 43
0.0208333333333333
 43
0.0
 43
0.0
 43
0.0
 43
0.0
 43
1.0
 43
0.0
 43
0.0
 43
0.0
 43
0.0
 43
1.0
 77
     0
 78
     2
 47
0.0208333333333333
 47
0.0
 47
0.0
 47
0.0
 47
0.0
 47
0.0208333333333333
 47
0.0
 47
0.0
 47
0.0
 47
0.0
 47
1.0
 47
0.0
 47
0.0
 47
0.0
 47
0.0
 47
1.0
171
     0
172
     2
 49
0.0208333333333333
 49
0.0
 49
0.0
 49
0.0
 49
0.0
 49
0.0208333333333333
 49
0.0
 49
0.0
 49
0.0
 49
0.0
 49
1.0
 49
0.0
 49
0.0
 49
0.0
 49
0.0
 49
1.0
175
     0
176
     2
142
0.0208333333333333
142
0.0
142
0.0
142
0.0
142
0.0
142
0.0208333333333333
142
0.0
142
0.0
142
0.0
142
0.0
142
1.0
142
0.0
142
0.0
142
0.0
142
0.0
142
1.0
179
     0
270
     2
144
0.0208333333333333
144
0.0
144
0.0
144
0.0
144
0.0
144
0.0208333333333333
144
0.0
144
0.0
144
0.0
144
0.0
144
1.0
144
0.0
144
0.0
144
0.0
144
0.0
144
1.0
274
     2
147
0.0208333333333333
147
0.0
147
0.0
147
0.0
147
0.0
147
0.0208333333333333
147
0.0
147
0.0
147
0.0
147
0.0
147
1.0
147
0.0
147
0.0
147
0.0
147
0.0
147
1.0
 94
      127
  0
MATERIAL
  5
3C6
102
{ACAD_REACTORS
330
3C5
102
}
330
3C5
100
AcDbMaterial
  1
ByLayer
 72
     0
 73
     2
 43
0.0208333333333333
 43
0.0
 43
0.0
 43
0.0
 43
0.0
 43
0.0208333333333333
 43
0.0
 43
0.0
 43
0.0
 43
0.0
 43
1.0
 43
0.0
 43
0.0
 43
0.0
 43
0.0
 43
1.0
 77
     0
 78
     2
 47
0.0208333333333333
 47
0.0
 47
0.0
 47
0.0
 47
0.0
 47
0.0208333333333333
 47
0.0
 47
0.0
 47
0.0
 47
0.0
 47
1.0
 47
0.0
 47
0.0
 47
0.0
 47
0.0
 47
1.0
171
     0
172
     2
 49
0.0208333333333333
 49
0.0
 49
0.0
 49
0.0
 49
0.0
 49
0.0208333333333333
 49
0.0
 49
0.0
 49
0.0
 49
0.0
 49
1.0
 49
0.0
 49
0.0
 49
0.0
 49
0.0
 49
1.0
175
     0
176
     2
142
0.0208333333333333
142
0.0
142
0.0
142
0.0
142
0.0
142
0.0208333333333333
142
0.0
142
0.0
142
0.0
142
0.0
142
1.0
142
0.0
142
0.0
142
0.0
142
0.0
142
1.0
179
     0
270
     2
144
0.0208333333333333
144
0.0
144
0.0
144
0.0
144
0.0
144
0.0208333333333333
144
0.0
144
0.0
144
0.0
144
0.0
144
1.0
144
0.0
144
0.0
144
0.0
144
0.0
144
1.0
274
     2
147
0.0208333333333333
147
0.0
147
0.0
147
0.0
147
0.0
147
0.0208333333333333
147
0.0
147
0.0
147
0.0
147
0.0
147
1.0
147
0.0
147
0.0
147
0.0
147
0.0
147
1.0
 94
      127
  0
MATERIAL
  5
3D6
102
{ACAD_REACTORS
330
3C5
102
}
330
3C5
100
AcDbMaterial
  1
Global
 72
     0
 73
     2
 43
0.0208333333333333
 43
0.0
 43
0.0
 43
0.0
 43
0.0
 43
0.0208333333333333
 43
0.0
 43
0.0
 43
0.0
 43
0.0
 43
1.0
 43
0.0
 43
0.0
 43
0.0
 43
0.0
 43
1.0
 77
     0
 78
     2
 47
0.0208333333333333
 47
0.0
 47
0.0
 47
0.0
 47
0.0
 47
0.0208333333333333
 47
0.0
 47
0.0
 47
0.0
 47
0.0
 47
1.0
 47
0.0
 47
0.0
 47
0.0
 47
0.0
 47
1.0
171
     0
172
     2
 49
0.0208333333333333
 49
0.0
 49
0.0
 49
0.0
 49
0.0
 49
0.0208333333333333
 49
0.0
 49
0.0
 49
0.0
 49
0.0
 49
1.0
 49
0.0
 49
0.0
 49
0.0
 49
0.0
 49
1.0
175
     0
176
     2
142
0.0208333333333333
142
0.0
142
0.0
142
0.0
142
0.0
142
0.0208333333333333
142
0.0
142
0.0
142
0.0
142
0.0
142
1.0
142
0.0
142
0.0
142
0.0
142
0.0
142
1.0
179
     0
270
     2
144
0.0208333333333333
144
0.0
144
0.0
144
0.0
144
0.0
144
0.0208333333333333
144
0.0
144
0.0
144
0.0
144
0.0
144
1.0
144
0.0
144
0.0
144
0.0
144
0.0
144
1.0
274
     2
147
0.0208333333333333
147
0.0
147
0.0
147
0.0
147
0.0
147
0.0208333333333333
147
0.0
147
0.0
147
0.0
147
0.0
147
1.0
147
0.0
147
0.0
147
0.0
147
0.0
147
1.0
 94
      127
  0
MLEADERSTYLE
  5
40D
102
{ACAD_REACTORS
330
40C
102
}
330
40C
100
AcDbMLeaderStyle
179
     2
170
     2
171
     1
172
     0
 90
        2
 40
0.0
 41
0.0
173
     1
 91
-1056964608
340
14
 92
       -2
290
     1
 42
0.09
291
     1
 43
0.36
  3
Standard
341
0
 44
0.18
300

342
11
174
     1
178
     6
175
     1
176
     0
 93
-1056964608
 45
0.18
292
     0
297
     0
 46
0.18
343
0
 94
-1056964608
 47
1.0
 49
1.0
140
1.0
293
     1
141
0.0
294
     1
177
     0
142
1.0
295
     0
296
     0
143
0.125
271
     0
272
     9
273
     9
298
     1
  0
MLINESTYLE
  5
18
102
{ACAD_REACTORS
330
17
102
}
330
17
100
AcDbMlineStyle
  2
STANDARD
 70
     0
  3

 62
   256
 51
90.0
 52
90.0
 71
     2
 49
0.5
 62
   256
  6
BYLAYER
 49
-0.5
 62
   256
  6
BYLAYER
  0
ACDBPLACEHOLDER
  5
F
102
{ACAD_REACTORS
330
E
102
}
330
E
  0
SCALE
  5
3FB
102
{ACAD_REACTORS
330
3FA
102
}
330
3FA
100
AcDbScale
 70
     0
300
1:1
140
1.0
141
1.0
290
     1
  0
SCALE
  5
3FC
102
{ACAD_REACTORS
330
3FA
102
}
330
3FA
100
AcDbScale
 70
     0
300
1/128" = 1'-0"
140
0.0078125
141
12.0
290
     0
  0
SCALE
  5
3FD
102
{ACAD_REACTORS
330
3FA
102
}
330
3FA
100
AcDbScale
 70
     0
300
1/64" = 1'-0"
140
0.015625
141
12.0
290
     0
  0
SCALE
  5
3FE
102
{ACAD_REACTORS
330
3FA
102
}
330
3FA
100
AcDbScale
 70
     0
300
1/32" = 1'-0"
140
0.03125
141
12.0
290
     0
  0
SCALE
  5
3FF
102
{ACAD_REACTORS
330
3FA
102
}
330
3FA
100
AcDbScale
 70
     0
300
1/16" = 1'-0"
140
0.0625
141
12.0
290
     0
  0
SCALE
  5
400
102
{ACAD_REACTORS
330
3FA
102
}
330
3FA
100
AcDbScale
 70
     0
300
3/32" = 1'-0"
140
0.09375
141
12.0
290
     0
  0
SCALE
  5
401
102
{ACAD_REACTORS
330
3FA
102
}
330
3FA
100
AcDbScale
 70
     0
300
1/8" = 1'-0"
140
0.125
141
12.0
290
     0
  0
SCALE
  5
402
102
{ACAD_REACTORS
330
3FA
102
}
330
3FA
100
AcDbScale
 70
     0
300
3/16" = 1'-0"
140
0.1875
141
12.0
290
     0
  0
SCALE
  5
403
102
{ACAD_REACTORS
330
3FA
102
}
330
3FA
100
AcDbScale
 70
     0
300
1/4" = 1'-0"
140
0.25
141
12.0
290
     0
  0
SCALE
  5
404
102
{ACAD_REACTORS
330
3FA
102
}
330
3FA
100
AcDbScale
 70
     0
300
3/8" = 1'-0"
140
0.375
141
12.0
290
     0
  0
SCALE
  5
405
102
{ACAD_REACTORS
330
3FA
102
}
330
3FA
100
AcDbScale
 70
     0
300
1/2" = 1'-0"
140
0.5
141
12.0
290
     0
  0
SCALE
  5
406
102
{ACAD_REACTORS
330
3FA
102
}
330
3FA
100
AcDbScale
 70
     0
300
3/4" = 1'-0"
140
0.75
141
12.0
290
     0
  0
SCALE
  5
407
102
{ACAD_REACTORS
330
3FA
102
}
330
3FA
100
AcDbScale
 70
     0
300
1" = 1'-0"
140
1.0
141
12.0
290
     0
  0
SCALE
  5
408
102
{ACAD_REACTORS
330
3FA
102
}
330
3FA
100
AcDbScale
 70
     0
300
1-1/2" = 1'-0"
140
1.5
141
12.0
290
     0
  0
SCALE
  5
409
102
{ACAD_REACTORS
330
3FA
102
}
330
3FA
100
AcDbScale
 70
     0
300
3" = 1'-0"
140
3.0
141
12.0
290
     0
  0
SCALE
  5
40A
102
{ACAD_REACTORS
330
3FA
102
}
330
3FA
100
AcDbScale
 70
     0
300
6" = 1'-0"
140
6.0
141
12.0
290
     0
  0
SCALE
  5
40B
102
{ACAD_REACTORS
330
3FA
102
}
330
3FA
100
AcDbScale
 70
     0
300
1'-0" = 1'-0"
140
12.0
141
12.0
290
     0
  0
ACDBSECTIONVIEWSTYLE
  5
40F
102
{ACAD_REACTORS
330
40E
102
}
330
40E
100
AcDbModelDocViewStyle
 70
     0
  3
Imperial24
290
     0
300
Imperial24
 90
        0
100
AcDbSectionViewStyle
 70
     0
 71
     0
 90
       78
 71
     1
340
11
 62
   256
 40
0.24
340
0
340
0
 62
   256
 40
0.24
300
I, O, Q, S, X, Z
 40
0.48
 90
        3
 40
0.18
 90
        1
 71
     2
340
16
 90
       25
 62
   256
340
16
 90
       50
 62
   256
 40
0.24
 40
0.0
 40
0.24
 71
     3
340
11
 62
   256
 40
0.24
 90
        1
 40
0.75
 90
        1
300
%<\AcVar ViewType \f "%tc1">% %<\AcVar ViewSectionStartId>%-%<\AcVar ViewSectionEndId>%\PSCALE %<\AcVar ViewScale \f "%sn">%
 71
     4
 62
   256
 62
   257
300
ANSI31
 40
1.0
 90
        0
290
     0
290
     0
 90
        6
 40
0.0
 40
1.570796326794897
 40
0.2617993877991494
 40
1.308996938995747
 40
-0.2617993877991494
 40
1.832595714594046
  0
TABLESTYLE
  5
3F9
102
{ACAD_REACTORS
330
3F8
102
}
102
{ACAD_XDICTIONARY
360
428
102
}
330
3F8
100
AcDbTableStyle
  3
Standard
 70
     0
 71
     0
 40
0.06
 41
0.06
280
     0
281
     0
  7
STANDARD
140
0.18
170
     2
 62
     0
 63
   257
283
     0
 90
      512
 91
        0
  1

274
    -2
284
     1
 64
     0
275
    -2
285
     1
 65
     0
276
    -2
286
     1
 66
     0
277
    -2
287
     1
 67
     0
278
    -2
288
     1
 68
     0
279
    -2
289
     1
 69
     0
  7
STANDARD
140
0.25
170
     5
 62
     0
 63
   257
283
     0
 90
      512
 91
        0
  1

274
    -2
284
     1
 64
     0
275
    -2
285
     1
 65
     0
276
    -2
286
     1
 66
     0
277
    -2
287
     1
 67
     0
278
    -2
288
     1
 68
     0
279
    -2
289
     1
 69
     0
  7
STANDARD
140
0.18
170
     5
 62
     0
 63
   257
283
     0
 90
      512
 91
        0
  1

274
    -2
284
     1
 64
     0
275
    -2
285
     1
 65
     0
276
    -2
286
     1
 66
     0
277
    -2
287
     1
 67
     0
278
    -2
288
     1
 68
     0
279
    -2
289
     1
 69
     0
  0
VISUALSTYLE
  5
3E4
102
{ACAD_REACTORS
330
3DE
102
}
330
3DE
100
AcDbVisualStyle
  2
2dWireframe
 70
     4
177
     3
291
     0
 70
    58
 90
        0
176
     1
 90
        2
176
     1
 90
        0
176
     1
 90
        0
176
     1
 40
0.6
176
     1
 40
30.0
176
     1
 62
     7
420
 16777215
176
     1
 90
        1
176
     1
 90
        4
176
     1
 62
     7
176
     1
 62
   257
176
     1
 90
        1
176
     1
 90
        1
176
     1
 40
1.0
176
     1
 90
        0
176
     1
 62
   257
176
     1
 40
1.0
176
     1
 90
        1
176
     1
 90
        6
176
     1
 90
        2
176
     1
 62
     7
176
     1
 90
        5
176
     1
 90
        0
176
     1
 90
        0
176
     1
290
     0
176
     1
 90
        1
176
     1
 40
0.0
176
     1
 90
        0
176
     1
290
     1
176
     1
290
     1
176
     1
290
     0
176
     1
290
     0
176
     1
290
     0
176
     1
290
     0
176
     1
290
     0
176
     1
290
     0
176
     1
290
     0
176
     1
 90
       50
176
     1
 40
0.0
176
     1
 40
1.0
176
     1
 90
        0
176
     1
 62
    18
420
        0
176
     1
 90
       50
176
     1
 90
        3
176
     1
 62
     5
420
      255
176
     1
290
     0
176
     1
 90
       50
176
     1
 90
       50
176
     1
 90
       50
176
     1
290
     0
176
     1
 90
       50
176
     1
 62
   256
176
     0
 40
1.0
176
     0
 90
        2
176
     1
  1
strokes_ogs.tif
176
     1
290
     0
176
     1
 40
1.0
176
     1
 40
1.0
176
     1
  0
VISUALSTYLE
  5
3E3
102
{ACAD_REACTORS
330
3DE
102
}
330
3DE
100
AcDbVisualStyle
  2
Basic
 70
     7
177
     3
291
     1
 70
    58
 90
        1
176
     1
 90
        0
176
     1
 90
        1
176
     1
 90
        0
176
     1
 40
0.6
176
     1
 40
30.0
176
     1
 62
     7
420
 16777215
176
     1
 90
        0
176
     1
 90
        4
176
     1
 62
     7
176
     1
 62
   257
176
     1
 90
        1
176
     1
 90
        1
176
     1
 40
1.0
176
     1
 90
        8
176
     1
 62
     7
176
     1
 40
1.0
176
     1
 90
        1
176
     1
 90
        6
176
     1
 90
        2
176
     1
 62
     7
176
     1
 90
        5
176
     1
 90
        0
176
     1
 90
        0
176
     1
290
     0
176
     1
 90
        1
176
     1
 40
0.0
176
     1
 90
        0
176
     1
290
     0
176
     1
290
     1
176
     1
290
     1
176
     1
290
     0
176
     1
290
     0
176
     1
290
     0
176
     1
290
     0
176
     1
290
     0
176
     1
290
     0
176
     1
 90
       50
176
     1
 40
0.0
176
     1
 40
1.0
176
     1
 90
        0
176
     1
 62
    18
420
        0
176
     1
 90
       50
176
     1
 90
        3
176
     1
 62
     5
420
      255
176
     1
290
     0
176
     1
 90
       50
176
     1
 90
       50
176
     1
 90
       50
176
     1
290
     0
176
     1
 90
       50
176
     1
 62
   256
176
     0
 40
1.0
176
     0
 90
        2
176
     1
  1
strokes_ogs.tif
176
     1
290
     0
176
     1
 40
1.0
176
     1
 40
1.0
176
     1
  0
VISUALSTYLE
  5
3EA
102
{ACAD_REACTORS
330
3DE
102
}
330
3DE
100
AcDbVisualStyle
  2
Brighten
 70
    12
177
     3
291
     1
 70
    58
 90
        2
176
     1
 90
        2
176
     1
 90
        0
176
     1
 90
        0
176
     1
 40
0.6
176
     1
 40
30.0
176
     1
 62
     7
420
 16777215
176
     1
 90
        1
176
     1
 90
        4
176
     1
 62
     7
176
     1
 62
   257
176
     1
 90
        1
176
     1
 90
        1
176
     1
 40
1.0
176
     1
 90
        8
176
     1
 62
     7
176
     1
 40
1.0
176
     1
 90
        1
176
     1
 90
        6
176
     1
 90
        2
176
     1
 62
     7
176
     1
 90
        5
176
     1
 90
        0
176
     1
 90
        0
176
     1
290
     0
176
     1
 90
        1
176
     1
 40
50.0
176
     1
 90
        0
176
     1
290
     0
176
     1
290
     1
176
     1
290
     1
176
     1
290
     0
176
     1
290
     0
176
     1
290
     0
176
     1
290
     0
176
     1
290
     0
176
     1
290
     0
176
     1
 90
       50
176
     1
 40
0.0
176
     1
 40
1.0
176
     1
 90
        0
176
     1
 62
    18
420
        0
176
     1
 90
       50
176
     1
 90
        3
176
     1
 62
     5
420
      255
176
     1
290
     0
176
     1
 90
       50
176
     1
 90
       50
176
     1
 90
       50
176
     1
290
     0
176
     1
 90
       50
176
     1
 62
   256
176
     0
 40
1.0
176
     0
 90
        2
176
     1
  1
strokes_ogs.tif
176
     1
290
     0
176
     1
 40
1.0
176
     1
 40
1.0
176
     1
  0
VISUALSTYLE
  5
3EE
102
{ACAD_REACTORS
330
3DE
102
}
330
3DE
100
AcDbVisualStyle
  2
ColorChange
 70
    16
177
     3
291
     1
 70
    58
 90
        2
176
     1
 90
        2
176
     1
 90
        3
176
     1
 90
        0
176
     1
 40
0.6
176
     1
 40
30.0
176
     1
 62
     8
420
  8421504
176
     1
 90
        1
176
     1
 90
        4
176
     1
 62
     7
176
     1
 62
   257
176
     1
 90
        1
176
     1
 90
        1
176
     1
 40
1.0
176
     1
 90
        8
176
     1
 62
     8
420
  8421504
176
     1
 40
1.0
176
     1
 90
        1
176
     1
 90
        6
176
     1
 90
        2
176
     1
 62
     7
176
     1
 90
        5
176
     1
 90
        0
176
     1
 90
        0
176
     1
290
     0
176
     1
 90
        1
176
     1
 40
0.0
176
     1
 90
        0
176
     1
290
     0
176
     1
290
     1
176
     1
290
     1
176
     1
290
     0
176
     1
290
     0
176
     1
290
     0
176
     1
290
     0
176
     1
290
     0
176
     1
290
     0
176
     1
 90
       50
176
     1
 40
0.0
176
     1
 40
1.0
176
     1
 90
        0
176
     1
 62
    18
420
        0
176
     1
 90
       50
176
     1
 90
        3
176
     1
 62
     5
420
      255
176
     1
290
     0
176
     1
 90
       50
176
     1
 90
       50
176
     1
 90
       50
176
     1
290
     0
176
     1
 90
       50
176
     1
 62
   256
176
     0
 40
1.0
176
     0
 90
        2
176
     1
  1
strokes_ogs.tif
176
     1
290
     0
176
     1
 40
1.0
176
     1
 40
1.0
176
     1
  0
VISUALSTYLE
  5
3E7
102
{ACAD_REACTORS
330
3DE
102
}
330
3DE
100
AcDbVisualStyle
  2
Conceptual
 70
     9
177
     3
291
     0
 70
    58
 90
        3
176
     1
 90
        2
176
     1
 90
        0
176
     1
 90
        0
176
     1
 40
0.6
176
     1
 40
30.0
176
     1
 62
     7
420
 16777215
176
     1
 90
        2
176
     1
 90
        2
176
     1
 62
     7
176
     1
 62
   257
176
     1
 90
        1
176
     1
 90
        1
176
     1
 40
179.0
176
     1
 90
        8
176
     1
 62
     7
176
     1
 40
1.0
176
     1
 90
        1
176
     1
 90
        6
176
     1
 90
        2
176
     1
 62
     7
176
     1
 90
        3
176
     1
 90
        0
176
     1
 90
        0
176
     1
290
     0
176
     1
 90
        1
176
     1
 40
0.0
176
     1
 90
        0
176
     1
290
     0
176
     1
290
     1
176
     1
290
     1
176
     1
290
     0
176
     1
290
     0
176
     1
290
     0
176
     1
290
     0
176
     1
290
     0
176
     1
290
     0
176
     1
 90
       50
176
     1
 40
0.0
176
     1
 40
1.0
176
     1
 90
        0
176
     1
 62
    18
420
        0
176
     1
 90
       50
176
     1
 90
        3
176
     1
 62
     5
420
      255
176
     1
290
     0
176
     1
 90
       50
176
     1
 90
       50
176
     1
 90
       50
176
     1
290
     0
176
     1
 90
       50
176
     1
 62
   256
176
     0
 40
1.0
176
     0
 90
        2
176
     1
  1
strokes_ogs.tif
176
     1
290
     0
176
     1
 40
1.0
176
     1
 40
1.0
176
     1
  0
VISUALSTYLE
  5
3E9
102
{ACAD_REACTORS
330
3DE
102
}
330
3DE
100
AcDbVisualStyle
  2
Dim
 70
    11
177
     3
291
     1
 70
    58
 90
        2
176
     1
 90
        2
176
     1
 90
        0
176
     1
 90
        0
176
     1
 40
0.6
176
     1
 40
30.0
176
     1
 62
     7
420
 16777215
176
     1
 90
        1
176
     1
 90
        4
176
     1
 62
     7
176
     1
 62
   257
176
     1
 90
        1
176
     1
 90
        1
176
     1
 40
1.0
176
     1
 90
        8
176
     1
 62
     7
176
     1
 40
1.0
176
     1
 90
        1
176
     1
 90
        6
176
     1
 90
        2
176
     1
 62
     7
176
     1
 90
        5
176
     1
 90
        0
176
     1
 90
        0
176
     1
290
     0
176
     1
 90
        1
176
     1
 40
-50.0
176
     1
 90
        0
176
     1
290
     0
176
     1
290
     1
176
     1
290
     1
176
     1
290
     0
176
     1
290
     0
176
     1
290
     0
176
     1
290
     0
176
     1
290
     0
176
     1
290
     0
176
     1
 90
       50
176
     1
 40
0.0
176
     1
 40
1.0
176
     1
 90
        0
176
     1
 62
    18
420
        0
176
     1
 90
       50
176
     1
 90
        3
176
     1
 62
     5
420
      255
176
     1
290
     0
176
     1
 90
       50
176
     1
 90
       50
176
     1
 90
       50
176
     1
290
     0
176
     1
 90
       50
176
     1
 62
   256
176
     0
 40
1.0
176
     0
 90
        2
176
     1
  1
strokes_ogs.tif
176
     1
290
     0
176
     1
 40
1.0
176
     1
 40
1.0
176
     1
  0
VISUALSTYLE
  5
3F6
102
{ACAD_REACTORS
330
3DE
102
}
330
3DE
100
AcDbVisualStyle
  2
EdgeColorOff
 70
    22
177
     3
291
     1
 70
    58
 90
        2
176
     0
 90
        2
176
     0
 90
        0
176
     0
 90
        0
176
     0
 40
0.6
176
     0
 40
30.0
176
     0
 62
     7
420
 16777215
176
     0
 90
        1
176
     0
 90
        4
176
     0
 62
     7
176
     0
 62
   257
176
     0
 90
        1
176
     0
 90
        1
176
     0
 40
1.0
176
     0
 90
        8
176
     2
 62
     7
176
     0
 40
1.0
176
     0
 90
        1
176
     0
 90
        6
176
     0
 90
        2
176
     0
 62
     7
176
     0
 90
        5
176
     0
 90
        0
176
     0
 90
        0
176
     0
290
     0
176
     0
 90
        1
176
     0
 40
0.0
176
     0
 90
        0
176
     0
290
     0
176
     0
290
     1
176
     0
290
     1
176
     0
290
     0
176
     0
290
     0
176
     0
290
     0
176
     0
290
     0
176
     0
290
     0
176
     0
290
     0
176
     0
 90
       50
176
     0
 40
0.0
176
     0
 40
1.0
176
     0
 90
        0
176
     0
 62
    18
420
        0
176
     0
 90
       50
176
     0
 90
        3
176
     0
 62
     5
420
      255
176
     0
290
     0
176
     0
 90
       50
176
     0
 90
       50
176
     0
 90
       50
176
     0
290
     0
176
     0
 90
       50
176
     0
 62
   256
176
     0
 40
1.0
176
     0
 90
        2
176
     0
  1
strokes_ogs.tif
176
     0
290
     0
176
     0
 40
1.0
176
     0
 40
1.0
176
     0
  0
VISUALSTYLE
  5
3ED
102
{ACAD_REACTORS
330
3DE
102
}
330
3DE
100
AcDbVisualStyle
  2
Facepattern
 70
    15
177
     3
291
     1
 70
    58
 90
        2
176
     1
 90
        2
176
     1
 90
        0
176
     1
 90
        0
176
     1
 40
0.6
176
     1
 40
30.0
176
     1
 62
     7
420
 16777215
176
     1
 90
        1
176
     1
 90
        4
176
     1
 62
     7
176
     1
 62
   257
176
     1
 90
        1
176
     1
 90
        1
176
     1
 40
1.0
176
     1
 90
        8
176
     1
 62
     7
176
     1
 40
1.0
176
     1
 90
        1
176
     1
 90
        6
176
     1
 90
        2
176
     1
 62
     7
176
     1
 90
        5
176
     1
 90
        0
176
     1
 90
        0
176
     1
290
     0
176
     1
 90
        1
176
     1
 40
0.0
176
     1
 90
        0
176
     1
290
     0
176
     1
290
     1
176
     1
290
     1
176
     1
290
     0
176
     1
290
     0
176
     1
290
     0
176
     1
290
     0
176
     1
290
     0
176
     1
290
     0
176
     1
 90
       50
176
     1
 40
0.0
176
     1
 40
1.0
176
     1
 90
        0
176
     1
 62
    18
420
        0
176
     1
 90
       50
176
     1
 90
        3
176
     1
 62
     5
420
      255
176
     1
290
     0
176
     1
 90
       50
176
     1
 90
       50
176
     1
 90
       50
176
     1
290
     0
176
     1
 90
       50
176
     1
 62
   256
176
     0
 40
1.0
176
     0
 90
        2
176
     1
  1
strokes_ogs.tif
176
     1
290
     0
176
     1
 40
1.0
176
     1
 40
1.0
176
     1
  0
VISUALSTYLE
  5
3DF
102
{ACAD_REACTORS
330
3DE
102
}
330
3DE
100
AcDbVisualStyle
  2
Flat
 70
     0
177
     3
291
     1
 70
    58
 90
        2
176
     1
 90
        1
176
     1
 90
        1
176
     1
 90
        2
176
     1
 40
0.6
176
     1
 40
30.0
176
     1
 62
     7
420
 16777215
176
     1
 90
        0
176
     1
 90
        0
176
     1
 62
     7
176
     1
 62
   257
176
     1
 90
        1
176
     1
 90
        1
176
     1
 40
1.0
176
     1
 90
        8
176
     1
 62
     7
176
     1
 40
1.0
176
     1
 90
        1
176
     1
 90
        6
176
     1
 90
        2
176
     1
 62
     7
176
     1
 90
        5
176
     1
 90
        0
176
     1
 90
        0
176
     1
290
     0
176
     1
 90
       13
176
     1
 40
0.0
176
     1
 90
        0
176
     1
290
     0
176
     1
290
     1
176
     1
290
     1
176
     1
290
     0
176
     1
290
     0
176
     1
290
     0
176
     1
290
     0
176
     1
290
     0
176
     1
290
     0
176
     1
 90
       50
176
     1
 40
0.0
176
     1
 40
1.0
176
     1
 90
        0
176
     1
 62
    18
420
        0
176
     1
 90
       50
176
     1
 90
        3
176
     1
 62
     5
420
      255
176
     1
290
     0
176
     1
 90
       50
176
     1
 90
       50
176
     1
 90
       50
176
     1
290
     0
176
     1
 90
       50
176
     1
 62
   256
176
     0
 40
1.0
176
     0
 90
        2
176
     1
  1
strokes_ogs.tif
176
     1
290
     0
176
     1
 40
1.0
176
     1
 40
1.0
176
     1
  0
VISUALSTYLE
  5
3E0
102
{ACAD_REACTORS
330
3DE
102
}
330
3DE
100
AcDbVisualStyle
  2
FlatWithEdges
 70
     1
177
     3
291
     1
 70
    58
 90
        2
176
     1
 90
        1
176
     1
 90
        1
176
     1
 90
        2
176
     1
 40
0.6
176
     1
 40
30.0
176
     1
 62
     7
420
 16777215
176
     1
 90
        1
176
     1
 90
        0
176
     1
 62
     7
176
     1
 62
   257
176
     1
 90
        1
176
     1
 90
        1
176
     1
 40
1.0
176
     1
 90
        0
176
     1
 62
   257
176
     1
 40
1.0
176
     1
 90
        1
176
     1
 90
        6
176
     1
 90
        2
176
     1
 62
     7
176
     1
 90
        5
176
     1
 90
        0
176
     1
 90
        0
176
     1
290
     0
176
     1
 90
       13
176
     1
 40
0.0
176
     1
 90
        0
176
     1
290
     0
176
     1
290
     1
176
     1
290
     1
176
     1
290
     0
176
     1
290
     0
176
     1
290
     0
176
     1
290
     0
176
     1
290
     0
176
     1
290
     0
176
     1
 90
       50
176
     1
 40
0.0
176
     1
 40
1.0
176
     1
 90
        0
176
     1
 62
    18
420
        0
176
     1
 90
       50
176
     1
 90
        3
176
     1
 62
     5
420
      255
176
     1
290
     0
176
     1
 90
       50
176
     1
 90
       50
176
     1
 90
       50
176
     1
290
     0
176
     1
 90
       50
176
     1
 62
   256
176
     0
 40
1.0
176
     0
 90
        2
176
     1
  1
strokes_ogs.tif
176
     1
290
     0
176
     1
 40
1.0
176
     1
 40
1.0
176
     1
  0
VISUALSTYLE
  5
3E1
102
{ACAD_REACTORS
330
3DE
102
}
330
3DE
100
AcDbVisualStyle
  2
Gouraud
 70
     2
177
     3
291
     1
 70
    58
 90
        2
176
     1
 90
        2
176
     1
 90
        1
176
     1
 90
        2
176
     1
 40
0.6
176
     1
 40
30.0
176
     1
 62
     7
420
 16777215
176
     1
 90
        0
176
     1
 90
        0
176
     1
 62
     7
176
     1
 62
   257
176
     1
 90
        1
176
     1
 90
        1
176
     1
 40
1.0
176
     1
 90
        0
176
     1
 62
     7
176
     1
 40
1.0
176
     1
 90
        1
176
     1
 90
        6
176
     1
 90
        2
176
     1
 62
     7
176
     1
 90
        5
176
     1
 90
        0
176
     1
 90
        0
176
     1
290
     0
176
     1
 90
       13
176
     1
 40
0.0
176
     1
 90
        0
176
     1
290
     0
176
     1
290
     1
176
     1
290
     1
176
     1
290
     0
176
     1
290
     0
176
     1
290
     0
176
     1
290
     0
176
     1
290
     0
176
     1
290
     0
176
     1
 90
       50
176
     1
 40
0.0
176
     1
 40
1.0
176
     1
 90
        0
176
     1
 62
    18
420
        0
176
     1
 90
       50
176
     1
 90
        3
176
     1
 62
     5
420
      255
176
     1
290
     0
176
     1
 90
       50
176
     1
 90
       50
176
     1
 90
       50
176
     1
290
     0
176
     1
 90
       50
176
     1
 62
   256
176
     0
 40
1.0
176
     0
 90
        2
176
     1
  1
strokes_ogs.tif
176
     1
290
     0
176
     1
 40
1.0
176
     1
 40
1.0
176
     1
  0
VISUALSTYLE
  5
3E2
102
{ACAD_REACTORS
330
3DE
102
}
330
3DE
100
AcDbVisualStyle
  2
GouraudWithEdges
 70
     3
177
     3
291
     1
 70
    58
 90
        2
176
     1
 90
        2
176
     1
 90
        1
176
     1
 90
        2
176
     1
 40
0.6
176
     1
 40
30.0
176
     1
 62
     7
420
 16777215
176
     1
 90
        1
176
     1
 90
        0
176
     1
 62
     7
176
     1
 62
   257
176
     1
 90
        1
176
     1
 90
        1
176
     1
 40
1.0
176
     1
 90
        0
176
     1
 62
   257
176
     1
 40
1.0
176
     1
 90
        1
176
     1
 90
        6
176
     1
 90
        2
176
     1
 62
     7
176
     1
 90
        5
176
     1
 90
        0
176
     1
 90
        0
176
     1
290
     0
176
     1
 90
       13
176
     1
 40
0.0
176
     1
 90
        0
176
     1
290
     0
176
     1
290
     1
176
     1
290
     1
176
     1
290
     0
176
     1
290
     0
176
     1
290
     0
176
     1
290
     0
176
     1
290
     0
176
     1
290
     0
176
     1
 90
       50
176
     1
 40
0.0
176
     1
 40
1.0
176
     1
 90
        0
176
     1
 62
    18
420
        0
176
     1
 90
       50
176
     1
 90
        3
176
     1
 62
     5
420
      255
176
     1
290
     0
176
     1
 90
       50
176
     1
 90
       50
176
     1
 90
       50
176
     1
290
     0
176
     1
 90
       50
176
     1
 62
   256
176
     0
 40
1.0
176
     0
 90
        2
176
     1
  1
strokes_ogs.tif
176
     1
290
     0
176
     1
 40
1.0
176
     1
 40
1.0
176
     1
  0
VISUALSTYLE
  5
3E6
102
{ACAD_REACTORS
330
3DE
102
}
330
3DE
100
AcDbVisualStyle
  2
Hidden
 70
     6
177
     3
291
     0
 70
    58
 90
        1
176
     1
 90
        2
176
     1
 90
        2
176
     1
 90
        0
176
     1
 40
0.6
176
     1
 40
30.0
176
     1
 62
     7
420
 16777215
176
     1
 90
        2
176
     1
 90
        2
176
     1
 62
     7
176
     1
 62
   257
176
     1
 90
        2
176
     1
 90
        1
176
     1
 40
40.0
176
     1
 90
        0
176
     1
 62
   257
176
     1
 40
1.0
176
     1
 90
        1
176
     1
 90
        6
176
     1
 90
        2
176
     1
 62
     7
176
     1
 90
        3
176
     1
 90
        0
176
     1
 90
        0
176
     1
290
     0
176
     1
 90
        1
176
     1
 40
0.0
176
     1
 90
        0
176
     1
290
     0
176
     1
290
     1
176
     1
290
     1
176
     1
290
     0
176
     1
290
     0
176
     1
290
     0
176
     1
290
     0
176
     1
290
     0
176
     1
290
     0
176
     1
 90
       50
176
     1
 40
0.0
176
     1
 40
1.0
176
     1
 90
        0
176
     1
 62
    18
420
        0
176
     1
 90
       50
176
     1
 90
        3
176
     1
 62
     5
420
      255
176
     1
290
     0
176
     1
 90
       50
176
     1
 90
       50
176
     1
 90
       50
176
     1
290
     0
176
     1
 90
       50
176
     1
 62
   256
176
     0
 40
1.0
176
     0
 90
        2
176
     1
  1
strokes_ogs.tif
176
     1
290
     0
176
     1
 40
1.0
176
     1
 40
1.0
176
     1
  0
VISUALSTYLE
  5
3F4
102
{ACAD_REACTORS
330
3DE
102
}
330
3DE
100
AcDbVisualStyle
  2
JitterOff
 70
    20
177
     3
291
     1
 70
    58
 90
        2
176
     0
 90
        2
176
     0
 90
        0
176
     0
 90
        0
176
     0
 40
0.6
176
     0
 40
30.0
176
     0
 62
     7
420
 16777215
176
     0
 90
        1
176
     0
 90
        4
176
     0
 62
     7
176
     0
 62
   257
176
     0
 90
        1
176
     0
 90
        1
176
     0
 40
1.0
176
     0
 90
       10
176
     2
 62
     7
176
     0
 40
1.0
176
     0
 90
        1
176
     0
 90
        6
176
     0
 90
        2
176
     0
 62
     7
176
     0
 90
        5
176
     0
 90
        0
176
     0
 90
        0
176
     0
290
     0
176
     0
 90
        1
176
     0
 40
0.0
176
     0
 90
        0
176
     0
290
     0
176
     0
290
     1
176
     0
290
     1
176
     0
290
     0
176
     0
290
     0
176
     0
290
     0
176
     0
290
     0
176
     0
290
     0
176
     0
290
     0
176
     0
 90
       50
176
     0
 40
0.0
176
     0
 40
1.0
176
     0
 90
        0
176
     0
 62
    18
420
        0
176
     0
 90
       50
176
     0
 90
        3
176
     0
 62
     5
420
      255
176
     0
290
     0
176
     0
 90
       50
176
     0
 90
       50
176
     0
 90
       50
176
     0
290
     0
176
     0
 90
       50
176
     0
 62
   256
176
     0
 40
1.0
176
     0
 90
        2
176
     0
  1
strokes_ogs.tif
176
     0
290
     0
176
     0
 40
1.0
176
     0
 40
1.0
176
     0
  0
VISUALSTYLE
  5
3EC
102
{ACAD_REACTORS
330
3DE
102
}
330
3DE
100
AcDbVisualStyle
  2
Linepattern
 70
    14
177
     3
291
     1
 70
    58
 90
        2
176
     1
 90
        2
176
     1
 90
        0
176
     1
 90
        0
176
     1
 40
0.6
176
     1
 40
30.0
176
     1
 62
     7
420
 16777215
176
     1
 90
        1
176
     1
 90
        4
176
     1
 62
     7
176
     1
 62
   257
176
     1
 90
        7
176
     1
 90
        7
176
     1
 40
1.0
176
     1
 90
        8
176
     1
 62
     7
176
     1
 40
1.0
176
     1
 90
        1
176
     1
 90
        6
176
     1
 90
        2
176
     1
 62
     7
176
     1
 90
        5
176
     1
 90
        0
176
     1
 90
        0
176
     1
290
     0
176
     1
 90
        1
176
     1
 40
0.0
176
     1
 90
        0
176
     1
290
     0
176
     1
290
     1
176
     1
290
     1
176
     1
290
     0
176
     1
290
     0
176
     1
290
     0
176
     1
290
     0
176
     1
290
     0
176
     1
290
     0
176
     1
 90
       50
176
     1
 40
0.0
176
     1
 40
1.0
176
     1
 90
        0
176
     1
 62
    18
420
        0
176
     1
 90
       50
176
     1
 90
        3
176
     1
 62
     5
420
      255
176
     1
290
     0
176
     1
 90
       50
176
     1
 90
       50
176
     1
 90
       50
176
     1
290
     0
176
     1
 90
       50
176
     1
 62
   256
176
     0
 40
1.0
176
     0
 90
        2
176
     1
  1
strokes_ogs.tif
176
     1
290
     0
176
     1
 40
1.0
176
     1
 40
1.0
176
     1
  0
VISUALSTYLE
  5
3F5
102
{ACAD_REACTORS
330
3DE
102
}
330
3DE
100
AcDbVisualStyle
  2
OverhangOff
 70
    21
177
     3
291
     1
 70
    58
 90
        2
176
     0
 90
        2
176
     0
 90
        0
176
     0
 90
        0
176
     0
 40
0.6
176
     0
 40
30.0
176
     0
 62
     7
420
 16777215
176
     0
 90
        1
176
     0
 90
        4
176
     0
 62
     7
176
     0
 62
   257
176
     0
 90
        1
176
     0
 90
        1
176
     0
 40
1.0
176
     0
 90
        9
176
     2
 62
     7
176
     0
 40
1.0
176
     0
 90
        1
176
     0
 90
        6
176
     0
 90
        2
176
     0
 62
     7
176
     0
 90
        5
176
     0
 90
        0
176
     0
 90
        0
176
     0
290
     0
176
     0
 90
        1
176
     0
 40
0.0
176
     0
 90
        0
176
     0
290
     0
176
     0
290
     1
176
     0
290
     1
176
     0
290
     0
176
     0
290
     0
176
     0
290
     0
176
     0
290
     0
176
     0
290
     0
176
     0
290
     0
176
     0
 90
       50
176
     0
 40
0.0
176
     0
 40
1.0
176
     0
 90
        0
176
     0
 62
    18
420
        0
176
     0
 90
       50
176
     0
 90
        3
176
     0
 62
     5
420
      255
176
     0
290
     0
176
     0
 90
       50
176
     0
 90
       50
176
     0
 90
       50
176
     0
290
     0
176
     0
 90
       50
176
     0
 62
   256
176
     0
 40
1.0
176
     0
 90
        2
176
     0
  1
strokes_ogs.tif
176
     0
290
     0
176
     0
 40
1.0
176
     0
 40
1.0
176
     0
  0
VISUALSTYLE
  5
3E8
102
{ACAD_REACTORS
330
3DE
102
}
330
3DE
100
AcDbVisualStyle
  2
Realistic
 70
     8
177
     3
291
     0
 70
    58
 90
        2
176
     1
 90
        3
176
     1
 90
        0
176
     1
 90
        2
176
     1
 40
0.6
176
     1
 40
30.0
176
     1
 62
     7
420
 16777215
176
     1
 90
        0
176
     1
 90
        0
176
     1
 62
     7
176
     1
 62
   257
176
     1
 90
        1
176
     1
 90
        1
176
     1
 40
1.0
176
     1
 90
        8
176
     1
 62
   257
176
     1
 40
1.0
176
     1
 90
        1
176
     1
 90
        6
176
     1
 90
        2
176
     1
 62
     7
176
     1
 90
        3
176
     1
 90
        0
176
     1
 90
        0
176
     1
290
     0
176
     1
 90
       13
176
     1
 40
0.0
176
     1
 90
        0
176
     1
290
     0
176
     1
290
     1
176
     1
290
     1
176
     1
290
     0
176
     1
290
     0
176
     1
290
     0
176
     1
290
     0
176
     1
290
     0
176
     1
290
     0
176
     1
 90
       50
176
     1
 40
0.0
176
     1
 40
1.0
176
     1
 90
        0
176
     1
 62
    18
420
        0
176
     1
 90
       50
176
     1
 90
        3
176
     1
 62
     5
420
      255
176
     1
290
     0
176
     1
 90
       50
176
     1
 90
       50
176
     1
 90
       50
176
     1
290
     0
176
     1
 90
       50
176
     1
 62
   256
176
     0
 40
1.0
176
     0
 90
        2
176
     1
  1
strokes_ogs.tif
176
     1
290
     0
176
     1
 40
1.0
176
     1
 40
1.0
176
     1
  0
VISUALSTYLE
  5
3F3
102
{ACAD_REACTORS
330
3DE
102
}
330
3DE
100
AcDbVisualStyle
  2
Shaded
 70
    27
177
     3
291
     0
 70
    58
 90
        2
176
     1
 90
        2
176
     1
 90
        1
176
     1
 90
        2
176
     1
 40
0.6
176
     1
 40
30.0
176
     1
 62
     7
420
 16777215
176
     1
 90
        0
176
     1
 90
        4
176
     1
 62
     7
176
     1
 62
   257
176
     1
 90
        1
176
     1
 90
        1
176
     1
 40
1.0
176
     1
 90
        8
176
     1
 62
   257
176
     1
 40
1.0
176
     1
 90
        1
176
     1
 90
        6
176
     1
 90
        2
176
     1
 62
     8
420
  7895160
176
     1
 90
        3
176
     1
 90
        0
176
     1
 90
        0
176
     1
290
     0
176
     1
 90
        5
176
     1
 40
0.0
176
     1
 90
        0
176
     1
290
     0
176
     1
290
     1
176
     1
290
     1
176
     1
290
     0
176
     1
290
     0
176
     1
290
     0
176
     1
290
     0
176
     1
290
     0
176
     1
290
     0
176
     1
 90
       50
176
     1
 40
0.0
176
     1
 40
1.0
176
     1
 90
        0
176
     1
 62
    18
420
        0
176
     1
 90
       50
176
     1
 90
        3
176
     1
 62
     5
420
      255
176
     1
290
     0
176
     1
 90
       50
176
     1
 90
       50
176
     1
 90
       50
176
     1
290
     0
176
     1
 90
       50
176
     1
 62
   256
176
     0
 40
1.0
176
     0
 90
        2
176
     1
  1
strokes_ogs.tif
176
     1
290
     0
176
     1
 40
1.0
176
     1
 40
1.0
176
     1
  0
VISUALSTYLE
  5
3F2
102
{ACAD_REACTORS
330
3DE
102
}
330
3DE
100
AcDbVisualStyle
  2
Shaded with edges
 70
    26
177
     3
291
     0
 70
    58
 90
        2
176
     1
 90
        2
176
     1
 90
        1
176
     1
 90
        2
176
     1
 40
0.6
176
     1
 40
30.0
176
     1
 62
     7
420
 16777215
176
     1
 90
        1
176
     1
 90
        2
176
     1
 62
     7
176
     1
 62
   257
176
     1
 90
        2
176
     1
 90
        1
176
     1
 40
1.0
176
     1
 90
        8
176
     1
 62
   257
176
     1
 40
1.0
176
     1
 90
        1
176
     1
 90
        6
176
     1
 90
        2
176
     1
 62
     7
176
     1
 90
        3
176
     1
 90
        0
176
     1
 90
        0
176
     1
290
     0
176
     1
 90
        5
176
     1
 40
0.0
176
     1
 90
        0
176
     1
290
     0
176
     1
290
     1
176
     1
290
     1
176
     1
290
     0
176
     1
290
     0
176
     1
290
     0
176
     1
290
     0
176
     1
290
     0
176
     1
290
     0
176
     1
 90
       50
176
     1
 40
0.0
176
     1
 40
1.0
176
     1
 90
        0
176
     1
 62
    18
420
        0
176
     1
 90
       50
176
     1
 90
        3
176
     1
 62
     5
420
      255
176
     1
290
     0
176
     1
 90
       50
176
     1
 90
       50
176
     1
 90
       50
176
     1
290
     0
176
     1
 90
       50
176
     1
 62
   256
176
     0
 40
1.0
176
     0
 90
        2
176
     1
  1
strokes_ogs.tif
176
     1
290
     0
176
     1
 40
1.0
176
     1
 40
1.0
176
     1
  0
VISUALSTYLE
  5
3EF
102
{ACAD_REACTORS
330
3DE
102
}
330
3DE
100
AcDbVisualStyle
  2
Shades of Gray
 70
    23
177
     3
291
     0
 70
    58
 90
        2
176
     1
 90
        2
176
     1
 90
        3
176
     1
 90
        0
176
     1
 40
0.6
176
     1
 40
30.0
176
     1
 62
     7
420
 16777215
176
     1
 90
        2
176
     1
 90
        2
176
     1
 62
     7
176
     1
 62
     7
176
     1
 90
        1
176
     1
 90
        1
176
     1
 40
40.0
176
     1
 90
        8
176
     1
 62
     7
176
     1
 40
1.0
176
     1
 90
        1
176
     1
 90
        6
176
     1
 90
        2
176
     1
 62
     7
176
     1
 90
        3
176
     1
 90
        0
176
     1
 90
        0
176
     1
290
     0
176
     1
 90
        1
176
     1
 40
0.0
176
     1
 90
        0
176
     1
290
     0
176
     1
290
     1
176
     1
290
     1
176
     1
290
     0
176
     1
290
     0
176
     1
290
     0
176
     1
290
     0
176
     1
290
     0
176
     1
290
     0
176
     1
 90
       50
176
     1
 40
0.0
176
     1
 40
1.0
176
     1
 90
        0
176
     1
 62
    18
420
        0
176
     1
 90
       50
176
     1
 90
        3
176
     1
 62
     5
420
      255
176
     1
290
     0
176
     1
 90
       50
176
     1
 90
       50
176
     1
 90
       50
176
     1
290
     0
176
     1
 90
       50
176
     1
 62
   256
176
     0
 40
1.0
176
     0
 90
        2
176
     1
  1
strokes_ogs.tif
176
     1
290
     0
176
     1
 40
1.0
176
     1
 40
1.0
176
     1
  0
VISUALSTYLE
  5
3F0
102
{ACAD_REACTORS
330
3DE
102
}
330
3DE
100
AcDbVisualStyle
  2
Sketchy
 70
    24
177
     3
291
     0
 70
    58
 90
        1
176
     1
 90
        2
176
     1
 90
        2
176
     1
 90
        0
176
     1
 40
0.6
176
     1
 40
30.0
176
     1
 62
     7
420
 16777215
176
     1
 90
        2
176
     1
 90
        2
176
     1
 62
     7
176
     1
 62
     7
176
     1
 90
        1
176
     1
 90
        1
176
     1
 40
40.0
176
     1
 90
       11
176
     1
 62
     7
176
     1
 40
1.0
176
     1
 90
        1
176
     1
 90
        6
176
     1
 90
        2
176
     1
 62
     7
176
     1
 90
        6
176
     1
 90
        0
176
     1
 90
        0
176
     1
290
     0
176
     1
 90
        1
176
     1
 40
0.0
176
     1
 90
        0
176
     1
290
     0
176
     1
290
     1
176
     1
290
     1
176
     1
290
     0
176
     1
290
     0
176
     1
290
     0
176
     1
290
     0
176
     1
290
     0
176
     1
290
     0
176
     1
 90
       50
176
     1
 40
0.0
176
     1
 40
1.0
176
     1
 90
        0
176
     1
 62
    18
420
        0
176
     1
 90
       50
176
     1
 90
        3
176
     1
 62
     5
420
      255
176
     1
290
     0
176
     1
 90
       50
176
     1
 90
       50
176
     1
 90
       50
176
     1
290
     0
176
     1
 90
       50
176
     1
 62
   256
176
     0
 40
1.0
176
     0
 90
        2
176
     1
  1
strokes_ogs.tif
176
     1
290
     0
176
     1
 40
1.0
176
     1
 40
1.0
176
     1
  0
VISUALSTYLE
  5
3EB
102
{ACAD_REACTORS
330
3DE
102
}
330
3DE
100
AcDbVisualStyle
  2
Thicken
 70
    13
177
     3
291
     1
 70
    58
 90
        2
176
     1
 90
        2
176
     1
 90
        0
176
     1
 90
        0
176
     1
 40
0.6
176
     1
 40
30.0
176
     1
 62
     7
420
 16777215
176
     1
 90
        1
176
     1
 90
        4
176
     1
 62
     7
176
     1
 62
   257
176
     1
 90
        1
176
     1
 90
        1
176
     1
 40
1.0
176
     1
 90
       12
176
     1
 62
     7
176
     1
 40
1.0
176
     1
 90
        1
176
     1
 90
        6
176
     1
 90
        2
176
     1
 62
     7
176
     1
 90
        5
176
     1
 90
        0
176
     1
 90
        0
176
     1
290
     0
176
     1
 90
        1
176
     1
 40
0.0
176
     1
 90
        0
176
     1
290
     0
176
     1
290
     1
176
     1
290
     1
176
     1
290
     0
176
     1
290
     0
176
     1
290
     0
176
     1
290
     0
176
     1
290
     0
176
     1
290
     0
176
     1
 90
       50
176
     1
 40
0.0
176
     1
 40
1.0
176
     1
 90
        0
176
     1
 62
    18
420
        0
176
     1
 90
       50
176
     1
 90
        3
176
     1
 62
     5
420
      255
176
     1
290
     0
176
     1
 90
       50
176
     1
 90
       50
176
     1
 90
       50
176
     1
290
     0
176
     1
 90
       50
176
     1
 62
   256
176
     0
 40
1.0
176
     0
 90
        2
176
     1
  1
strokes_ogs.tif
176
     1
290
     0
176
     1
 40
1.0
176
     1
 40
1.0
176
     1
  0
VISUALSTYLE
  5
3E5
102
{ACAD_REACTORS
330
3DE
102
}
330
3DE
100
AcDbVisualStyle
  2
Wireframe
 70
     5
177
     3
291
     0
 70
    58
 90
        0
176
     1
 90
        2
176
     1
 90
        0
176
     1
 90
        0
176
     1
 40
0.6
176
     1
 40
30.0
176
     1
 62
     7
420
 16777215
176
     1
 90
        1
176
     1
 90
        4
176
     1
 62
     7
176
     1
 62
   257
176
     1
 90
        1
176
     1
 90
        1
176
     1
 40
1.0
176
     1
 90
        0
176
     1
 62
   257
176
     1
 40
1.0
176
     1
 90
        1
176
     1
 90
        6
176
     1
 90
        2
176
     1
 62
     7
176
     1
 90
        3
176
     1
 90
        0
176
     1
 90
        0
176
     1
290
     0
176
     1
 90
        1
176
     1
 40
0.0
176
     1
 90
        0
176
     1
290
     0
176
     1
290
     1
176
     1
290
     1
176
     1
290
     0
176
     1
290
     0
176
     1
290
     0
176
     1
290
     0
176
     1
290
     0
176
     1
290
     0
176
     1
 90
       50
176
     1
 40
0.0
176
     1
 40
1.0
176
     1
 90
        0
176
     1
 62
    18
420
        0
176
     1
 90
       50
176
     1
 90
        3
176
     1
 62
     5
420
      255
176
     1
290
     0
176
     1
 90
       50
176
     1
 90
       50
176
     1
 90
       50
176
     1
290
     0
176
     1
 90
       50
176
     1
 62
   256
176
     0
 40
1.0
176
     0
 90
        2
176
     1
  1
strokes_ogs.tif
176
     1
290
     0
176
     1
 40
1.0
176
     1
 40
1.0
176
     1
  0
VISUALSTYLE
  5
3F1
102
{ACAD_REACTORS
330
3DE
102
}
330
3DE
100
AcDbVisualStyle
  2
X-Ray
 70
    25
177
     3
291
     0
 70
    58
 90
        2
176
     1
 90
        2
176
     1
 90
        1
176
     1
 90
        1
176
     1
 40
0.5
176
     1
 40
30.0
176
     1
 62
     7
420
 16777215
176
     1
 90
        1
176
     1
 90
        0
176
     1
 62
     7
176
     1
 62
   257
176
     1
 90
        1
176
     1
 90
        1
176
     1
 40
1.0
176
     1
 90
        8
176
     1
 62
     7
176
     1
 40
1.0
176
     1
 90
        1
176
     1
 90
        6
176
     1
 90
        2
176
     1
 62
     7
176
     1
 90
        3
176
     1
 90
        0
176
     1
 90
        0
176
     1
290
     0
176
     1
 90
       13
176
     1
 40
0.0
176
     1
 90
        0
176
     1
290
     0
176
     1
290
     1
176
     1
290
     1
176
     1
290
     0
176
     1
290
     0
176
     1
290
     0
176
     1
290
     0
176
     1
290
     0
176
     1
290
     0
176
     1
 90
       50
176
     1
 40
0.0
176
     1
 40
1.0
176
     1
 90
        0
176
     1
 62
    18
420
        0
176
     1
 90
       50
176
     1
 90
        3
176
     1
 62
     5
420
      255
176
     1
290
     0
176
     1
 90
       50
176
     1
 90
       50
176
     1
 90
       50
176
     1
290
     0
176
     1
 90
       50
176
     1
 62
   256
176
     0
 40
1.0
176
     0
 90
        2
176
     1
  1
strokes_ogs.tif
176
     1
290
     0
176
     1
 40
1.0
176
     1
 40
1.0
176
     1
  0
DICTIONARYVAR
  5
417
102
{ACAD_REACTORS
330
412
102
}
330
412
100
DictionaryVariables
280
     0
  1
1:1
  0
DICTIONARYVAR
  5
414
102
{ACAD_REACTORS
330
412
102
}
330
412
100
DictionaryVariables
280
     0
  1
Standard
  0
DICTIONARYVAR
  5
413
102
{ACAD_REACTORS
330
412
102
}
330
412
100
DictionaryVariables
280
     0
  1
Standard
  0
DICTIONARYVAR
  5
415
102
{ACAD_REACTORS
330
412
102
}
330
412
100
DictionaryVariables
280
     0
  1
Imperial24
  0
DICTIONARYVAR
  5
416
102
{ACAD_REACTORS
330
412
102
}
330
412
100
DictionaryVariables
280
     0
  1
Imperial24
  0
DICTIONARY
  5
428
330
3F9
100
AcDbDictionary
280
     1
281
     1
  3
ACAD_ROUNDTRIP_2008_TABLESTYLE_CELLSTYLEMAP
360
429
  0
CELLSTYLEMAP
  5
429
102
{ACAD_REACTORS
330
428
102
}
330
428
100
AcDbCellStyleMap
 90
        3
300
CELLSTYLE
  1
TABLEFORMAT_BEGIN
 90
        5
170
     1
 91
        0
 92
    32768
 62
   257
 93
        1
300
CONTENTFORMAT
  1
CONTENTFORMAT_BEGIN
 90
        0
 91
        0
 92
      512
 93
        0
300

 40
0.0
140
1.0
 94
        5
 62
     0
340
11
144
0.25
309
CONTENTFORMAT_END
171
     0
 94
        0
309
TABLEFORMAT_END
  1
CELLSTYLE_BEGIN
 90
        1
 91
        1
300
_TITLE
309
CELLSTYLE_END
300
CELLSTYLE
  1
TABLEFORMAT_BEGIN
 90
        5
170
     1
 91
        0
 92
        0
 62
   257
 93
        1
300
CONTENTFORMAT
  1
CONTENTFORMAT_BEGIN
 90
        0
 91
        0
 92
      512
 93
        0
300

 40
0.0
140
1.0
 94
        5
 62
     0
340
11
144
0.18
309
CONTENTFORMAT_END
171
     0
 94
        0
309
TABLEFORMAT_END
  1
CELLSTYLE_BEGIN
 90
        2
 91
        1
300
_HEADER
309
CELLSTYLE_END
300
CELLSTYLE
  1
TABLEFORMAT_BEGIN
 90
        5
170
     1
 91
        0
 92
        0
 62
   257
 93
        1
300
CONTENTFORMAT
  1
CONTENTFORMAT_BEGIN
 90
        0
 91
        0
 92
      512
 93
        0
300

 40
0.0
140
1.0
 94
        2
 62
     0
340
11
144
0.18
309
CONTENTFORMAT_END
171
     0
 94
        0
309
TABLEFORMAT_END
  1
CELLSTYLE_BEGIN
 90
        3
 91
        2
300
_DATA
309
CELLSTYLE_END
  0
ENDSEC
  0
SECTION
  2
ACDSDATA
 70
     2
 71
     2
  0
ACDSSCHEMA
 90
        0
  1
AcDb_Thumbnail_Schema
  2
AcDbDs::ID
280
    10
 91
        8
  2
Thumbnail_Data
280
    15
 91
        0
101
ACDSRECORD
 95
        0
 90
        2
  2
AcDbDs::TreatedAsObjectData
280
     1
291
     1
101
ACDSRECORD
 95
        0
 90
        3
  2
AcDbDs::Legacy
280
     1
291
     1
101
ACDSRECORD
  1
AcDbDs::ID
 90
        4
  2
AcDs:Indexable
280
     1
291
     1
101
ACDSRECORD
  1
AcDbDs::ID
 90
        5
  2
AcDbDs::HandleAttribute
280
     7
282
     1
  0
ACDSSCHEMA
 90
        1
  1
AcDb3DSolid_ASM_Data
  2
AcDbDs::ID
280
    10
 91
        8
  2
ASM_Data
280
    15
 91
        0
101
ACDSRECORD
 95
        1
 90
        2
  2
AcDbDs::TreatedAsObjectData
280
     1
291
     1
101
ACDSRECORD
 95
        1
 90
        3
  2
AcDbDs::Legacy
280
     1
291
     1
101
ACDSRECORD
  1
AcDbDs::ID
 90
        4
  2
AcDs:Indexable
280
     1
291
     1
101
ACDSRECORD
  1
AcDbDs::ID
 90
        5
  2
AcDbDs::HandleAttribute
280
     7
282
     1
  0
ACDSSCHEMA
 90
        2
  1
AcDbDs::TreatedAsObjectDataSchema
  2
AcDbDs::TreatedAsObjectData
280
     1
 91
        0
  0
ACDSSCHEMA
 90
        3
  1
AcDbDs::LegacySchema
  2
AcDbDs::Legacy
280
     1
 91
        0
  0
ACDSSCHEMA
 90
        4
  1
AcDbDs::IndexedPropertySchema
  2
AcDs:Indexable
280
     1
 91
        0
  0
ACDSSCHEMA
 90
        5
  1
AcDbDs::HandleAttributeSchema
  2
AcDbDs::HandleAttribute
280
     7
 91
        1
284
     1
  0
ACDSRECORD
 90
        0
  2
AcDbDs::ID
280
    10
320
3C1
  2
Thumbnail_Data
280
    15
 94
     1216
310
89504E470D0A1A0A0000000D49484452000001000000007F080300000037AFECF400000300504C5445212830FFFFFF2128300000000000000000000000000000000000000000000000000000330000660000990000CC0000FF0033000033330033660033990033CC0033FF0066000066330066660066990066CC0066FF0099
310
000099330099660099990099CC0099FF00CC0000CC3300CC6600CC9900CCCC00CCFF00FF0000FF3300FF6600FF9900FFCC00FFFF3300003300333300663300993300CC3300FF3333003333333333663333993333CC3333FF3366003366333366663366993366CC3366FF3399003399333399663399993399CC3399FF33CC00
310
33CC3333CC6633CC9933CCCC33CCFF33FF0033FF3333FF6633FF9933FFCC33FFFF6600006600336600666600996600CC6600FF6633006633336633666633996633CC6633FF6666006666336666666666996666CC6666FF6699006699336699666699996699CC6699FF66CC0066CC3366CC6666CC9966CCCC66CCFF66FF0066
310
FF3366FF6666FF9966FFCC66FFFF9900009900339900669900999900CC9900FF9933009933339933669933999933CC9933FF9966009966339966669966999966CC9966FF9999009999339999669999999999CC9999FF99CC0099CC3399CC6699CC9999CCCC99CCFF99FF0099FF3399FF6699FF9999FFCC99FFFFCC0000CC00
310
33CC0066CC0099CC00CCCC00FFCC3300CC3333CC3366CC3399CC33CCCC33FFCC6600CC6633CC6666CC6699CC66CCCC66FFCC9900CC9933CC9966CC9999CC99CCCC99FFCCCC00CCCC33CCCC66CCCC99CCCCCCCCCCFFCCFF00CCFF33CCFF66CCFF99CCFFCCCCFFFFFF0000FF0033FF0066FF0099FF00CCFF00FFFF3300FF3333
310
FF3366FF3399FF33CCFF33FFFF6600FF6633FF6666FF6699FF66CCFF66FFFF9900FF9933FF9966FF9999FF99CCFF99FFFFCC00FFCC33FFCC66FFCC99FFCCCCFFCCFFFFFF00FFFF33FFFF66FFFF99FFFFCCFFFFFF0000000D0D0D1A1A1A2828283535354343435050505D5D5D6B6B6B787878868686939393A1A1A1AEAEAEBB
310
BBBBC9C9C9D6D6D6E4E4E4F1F1F1FFFFFF0000000000000000000000000000000000000000000000000000000000002E4550F10000017B4944415478DAEDDD416E83301040515F28F73F99F76D0289804D552A5509FFB95255E1555F0C1E8F87788C7F6EF38736AEDEE6F7CFF3D7E6E2E67A0B60F9CCBB00EBA80750BE0546
310
0D203F0B9806D776DBB763F7E5016E00004401CC021643273B2F3302CEF75E2B0E38D50D00000000000000000000000000000000000000C0E701C809E6B3C276873D040100000000000000005EA16119E05E2B5B0678D40A6F047A008FFF7FB647C08C8F80DDDB33006200731CD2203980F5BD992AC0F2C2CC2803CCC34458
310
1C01BB50A807B05C6A030C00F73F96F7460000F00C300B88034482D602A1D5E04CAF06E503A4C4E6FA20EC02D817B02FD01E01F9BD41BBC3BFEB0600000000B3C0D502A1E3976B8A04AD056A234042448D503E27D89D05EA59E1351F582F926AEF0C0D35426A840600152200DC0266816E20A446281C093E0F99692F87473E
310
2304205E2233E26971FB02F60566BC46A8961576C88A2F53FB43370000003C04017CFA2D503F73D4A9B3009C3CDD3E7BFCCD66812FD4BCDBFE1FC1890B0000000049454E44AE426082
  0
ENDSEC
  0
EOF
